SplineFontDB: 3.2
FontName: NotoSerif-Regular
FullName: Noto Serif Regular
FamilyName: Noto Serif
Weight: Book
Copyright: Copyright 2022 The Noto Project Authors https:github.comnotofontslatin-greek-cyrillic
Version: 2.13
ItalicAngle: 0
UnderlinePosition: -256
UnderlineWidth: 102.4
Ascent: 1638
Descent: 410
InvalidEm: 0
sfntRevision: 0x00020354
LayerCount: 2
Layer: 0 0 "Back" 1
Layer: 1 0 "Fore" 0
XUID: [1021 282 2012869056 11590559]
StyleMap: 0x0040
FSType: 0
OS2Version: 4
OS2_WeightWidthSlopeOnly: 1
OS2_UseTypoMetrics: 1
CreationTime: 1633362496
ModificationTime: 1719097351
PfmFamily: 17
TTFWeight: 400
TTFWidth: 5
LineGap: 0
VLineGap: 0
Panose: 2 2 5 2 6 5 5 2 2 4
OS2TypoAscent: 2189
OS2TypoAOffset: 0
OS2TypoDescent: -600
OS2TypoDOffset: 0
OS2TypoLinegap: 0
OS2WinAscent: 2189
OS2WinAOffset: 0
OS2WinDescent: 797
OS2WinDOffset: 0
HheadAscent: 2189
HheadAOffset: 0
HheadDescent: -600
HheadDOffset: 0
OS2SubXSize: 1331
OS2SubYSize: 1229
OS2SubXOff: 0
OS2SubYOff: 154
OS2SupXSize: 1331
OS2SupYSize: 1229
OS2SupXOff: 0
OS2SupYOff: 717
OS2StrikeYSize: 102
OS2StrikeYPos: 659
OS2CapHeight: 1462
OS2XHeight: 1098
OS2Vendor: 'GOOG'
OS2CodePages: 0000019f.00000000
OS2UnicodeRanges: e00002ff.4000201f.08000029.00100000
Lookup: 1 0 0 "'aalt' Access All Alternates lookup 0" { "'aalt' Access All Alternates lookup 0 subtable"  } ['aalt' ('DFLT' <'dflt' > 'cyrl' <'MKD ' 'SRB ' 'dflt' > 'grek' <'APPH' 'IPPH' 'dflt' > 'latn' <'APPH' 'CAT ' 'IPPH' 'MAH ' 'MOL ' 'NAV ' 'ROM ' 'dflt' > ) ]
Lookup: 3 0 0 "'aalt' Access All Alternates lookup 1" { "'aalt' Access All Alternates lookup 1 subtable"  } ['aalt' ('DFLT' <'dflt' > 'cyrl' <'MKD ' 'SRB ' 'dflt' > 'grek' <'APPH' 'IPPH' 'dflt' > 'latn' <'APPH' 'CAT ' 'IPPH' 'MAH ' 'MOL ' 'NAV ' 'ROM ' 'dflt' > ) ]

StartChar: .notdef
Encoding: 1114112 -1 0
Width: 1228
GlyphClass: 1
Flags: HW
LayerCount: 2
Fore
SplineSet
193 0 m 1
 193 1462 l 1
 1034 1462 l 1
 1034 0 l 1
 193 0 l 1
297 104 m 1
 930 104 l 1
 930 1358 l 1
 297 1358 l 1
 297 104 l 1
EndSplineSet
EndChar

StartChar: exclam
Encoding: 33 33 4
Width: 679
GlyphClass: 1
Flags: HW
LayerCount: 2
Fore
SplineSet
285 412 m 1
 221 1462 l 1
 459 1462 l 1
 395 412 l 1
 285 412 l 1
340 -14 m 0
 268 -14 211 21 211 125 c 0
 211 231 268 264 340 264 c 0
 410 264 469 231 469 125 c 0
 469 21 410 -14 340 -14 c 0
EndSplineSet
Substitution2: "'smcp' Lowercase to Small Capitals lookup 38 subtable" exclam.sc
Substitution2: "'c2sc' Capitals to Small Capitals lookup 37 subtable" exclam.sc
Substitution2: "'aalt' Access All Alternates lookup 0 subtable" exclam.sc
EndChar

StartChar: quotedbl
Encoding: 34 34 5
Width: 835
GlyphClass: 1
Flags: HW
LayerCount: 2
Fore
SplineSet
178 981 m 1
 117 1462 l 1
 334 1462 l 1
 272 981 l 1
 178 981 l 1
563 981 m 1
 502 1462 l 1
 719 1462 l 1
 657 981 l 1
 563 981 l 1
EndSplineSet
EndChar

StartChar: numbersign
Encoding: 35 35 6
Width: 1144
GlyphClass: 1
Flags: HW
LayerCount: 2
Fore
SplineSet
162 0 m 1
 240 416 l 1
 51 416 l 1
 51 537 l 1
 262 537 l 1
 340 938 l 1
 117 938 l 1
 117 1059 l 1
 362 1059 l 1
 436 1462 l 1
 561 1462 l 1
 485 1059 l 1
 770 1059 l 1
 846 1462 l 1
 969 1462 l 1
 893 1059 l 1
 1094 1059 l 1
 1094 938 l 1
 870 938 l 1
 795 537 l 1
 1028 537 l 1
 1028 416 l 1
 770 416 l 1
 692 0 l 1
 569 0 l 1
 647 416 l 1
 362 416 l 1
 285 0 l 1
 162 0 l 1
387 537 m 1
 672 537 l 1
 748 938 l 1
 463 938 l 1
 387 537 l 1
EndSplineSet
EndChar

StartChar: dollar
Encoding: 36 36 7
Width: 1144
GlyphClass: 1
Flags: HW
LayerCount: 2
Fore
SplineSet
518 82 m 1
 262 82 115 188 115 360 c 0
 115 442 168 498 262 498 c 1
 289 328 340 172 518 172 c 1
 518 678 l 1
 262 793 170 893 170 1073 c 0
 170 1257 305 1374 518 1397 c 1
 518 1556 l 1
 621 1556 l 1
 621 1401 l 1
 867 1395 961 1298 961 1171 c 0
 961 1083 897 1038 799 1038 c 1
 799 1157 766 1293 621 1307 c 1
 621 829 l 1
 867 720 1001 625 1001 430 c 0
 1001 225 865 111 621 86 c 1
 621 -162 l 1
 518 -162 l 1
 518 82 l 1
518 1303 m 1
 409 1280 354 1196 354 1090 c 0
 354 975 412 921 518 874 c 1
 518 1303 l 1
621 178 m 1
 744 198 813 282 813 399 c 0
 813 508 762 570 621 633 c 1
 621 178 l 1
EndSplineSet
EndChar

StartChar: percent
Encoding: 37 37 8
Width: 1835
GlyphClass: 1
Flags: HW
LayerCount: 2
Fore
SplineSet
428 573 m 0
 192 573 92 756 92 1030 c 0
 92 1304 192 1483 430 1483 c 0
 653 1483 764 1304 764 1030 c 0
 764 756 653 573 428 573 c 0
481 0 m 1
 1212 1462 l 1
 1346 1462 l 1
 616 0 l 1
 481 0 l 1
428 657 m 0
 541 657 578 794 578 1030 c 0
 578 1261 541 1397 430 1397 c 0
 317 1397 276 1261 276 1030 c 0
 276 794 317 657 428 657 c 0
1407 -20 m 0
 1171 -20 1071 162 1071 436 c 0
 1071 710 1171 889 1409 889 c 0
 1632 889 1743 710 1743 436 c 0
 1743 162 1632 -20 1407 -20 c 0
1407 63 m 0
 1520 63 1556 200 1556 436 c 0
 1556 667 1520 803 1409 803 c 0
 1296 803 1255 667 1255 436 c 0
 1255 200 1296 63 1407 63 c 0
EndSplineSet
EndChar

StartChar: ampersand
Encoding: 38 38 9
Width: 1519
GlyphClass: 1
Flags: HW
LayerCount: 2
Fore
SplineSet
561 -20 m 0
 233 -20 74 152 74 410 c 0
 74 641 202 745 401 829 c 1
 297 952 244 1049 244 1182 c 0
 244 1362 359 1483 631 1483 c 0
 893 1483 993 1350 993 1192 c 0
 993 1016 897 927 647 821 c 1
 1020 426 l 1
 1057 549 1067 682 1067 782 c 2
 1067 862 l 1
 1436 862 l 1
 1436 776 l 1
 1417 776 l 2
 1325 776 1237 762 1202 637 c 0
 1177 549 1149 442 1102 340 c 1
 1292 137 l 2
 1331 96 1372 86 1483 86 c 2
 1501 86 l 1
 1501 0 l 1
 1174 0 l 1
 1004 180 l 1
 906 67 770 -20 561 -20 c 0
578 899 m 1
 740 969 813 1047 813 1190 c 0
 813 1299 762 1382 623 1382 c 0
 502 1382 434 1305 434 1188 c 0
 434 1084 476 1014 578 899 c 1
580 94 m 0
 742 94 852 164 930 260 c 1
 477 745 l 1
 352 675 274 579 274 403 c 0
 274 202 398 94 580 94 c 0
EndSplineSet
Substitution2: "'smcp' Lowercase to Small Capitals lookup 38 subtable" ampersand.sc
Substitution2: "'c2sc' Capitals to Small Capitals lookup 37 subtable" ampersand.sc
Substitution2: "'aalt' Access All Alternates lookup 0 subtable" ampersand.sc
EndChar

StartChar: quotesingle
Encoding: 39 39 10
Width: 450
GlyphClass: 1
Flags: HW
LayerCount: 2
Fore
SplineSet
178 981 m 1
 117 1462 l 1
 334 1462 l 1
 272 981 l 1
 178 981 l 1
EndSplineSet
EndChar

StartChar: parenleft
Encoding: 40 40 11
Width: 708
GlyphClass: 1
Flags: HW
LayerCount: 2
Fore
SplineSet
643 -262 m 1
 266 -112 117 155 117 649 c 0
 117 1141 266 1406 643 1556 c 1
 643 1464 l 1
 362 1294 330 975 330 649 c 0
 330 323 362 2 643 -168 c 1
 643 -262 l 1
EndSplineSet
Substitution2: "'smcp' Lowercase to Small Capitals lookup 38 subtable" parenleft.sc
Substitution2: "'c2sc' Capitals to Small Capitals lookup 37 subtable" parenleft.sc
Substitution2: "'sups' Superscript lookup 24 subtable" uni207D
Substitution2: "'sinf' Scientific Inferiors lookup 23 subtable" uni208D
Substitution2: "'subs' Subscript lookup 22 subtable" uni208D
AlternateSubs2: "'aalt' Access All Alternates lookup 1 subtable" uni208D uni207D parenleft.sc
EndChar

StartChar: parenright
Encoding: 41 41 12
Width: 708
GlyphClass: 1
Flags: HW
LayerCount: 2
Fore
SplineSet
66 -168 m 1
 347 2 379 323 379 649 c 0
 379 975 347 1294 66 1464 c 1
 66 1556 l 1
 443 1406 592 1141 592 649 c 0
 592 155 443 -112 66 -262 c 1
 66 -168 l 1
EndSplineSet
Substitution2: "'smcp' Lowercase to Small Capitals lookup 38 subtable" parenright.sc
Substitution2: "'c2sc' Capitals to Small Capitals lookup 37 subtable" parenright.sc
Substitution2: "'sups' Superscript lookup 24 subtable" uni207E
Substitution2: "'sinf' Scientific Inferiors lookup 23 subtable" uni208E
Substitution2: "'subs' Subscript lookup 22 subtable" uni208E
AlternateSubs2: "'aalt' Access All Alternates lookup 1 subtable" uni208E uni207E parenright.sc
EndChar

StartChar: asterisk
Encoding: 42 42 13
Width: 1024
GlyphClass: 1
Flags: HW
LayerCount: 2
Fore
SplineSet
418 774 m 1
 469 1098 l 1
 156 903 l 1
 84 1063 l 1
 428 1165 l 1
 84 1268 l 1
 156 1430 l 1
 471 1231 l 1
 418 1556 l 1
 596 1556 l 1
 539 1233 l 1
 856 1425 l 1
 928 1266 l 1
 582 1165 l 1
 928 1065 l 1
 856 907 l 1
 539 1098 l 1
 596 774 l 1
 418 774 l 1
EndSplineSet
EndChar

StartChar: plus
Encoding: 43 43 14
Width: 1144
GlyphClass: 1
Flags: HW
LayerCount: 2
Fore
SplineSet
510 293 m 1
 510 672 l 1
 133 672 l 1
 133 793 l 1
 510 793 l 1
 510 1171 l 1
 633 1171 l 1
 633 793 l 1
 1012 793 l 1
 1012 672 l 1
 633 672 l 1
 633 293 l 1
 510 293 l 1
EndSplineSet
Substitution2: "'sups' Superscript lookup 24 subtable" uni207A
Substitution2: "'sinf' Scientific Inferiors lookup 23 subtable" uni208A
Substitution2: "'subs' Subscript lookup 22 subtable" uni208A
AlternateSubs2: "'aalt' Access All Alternates lookup 1 subtable" uni208A uni207A
EndChar

StartChar: comma
Encoding: 44 44 15
Width: 512
GlyphClass: 1
Flags: HW
LayerCount: 2
Fore
SplineSet
61 -229 m 1
 194 -186 256 -125 256 -45 c 0
 256 37 106 18 106 143 c 0
 106 221 164 264 240 264 c 0
 324 264 397 201 397 86 c 0
 397 -88 305 -243 61 -315 c 1
 61 -229 l 1
EndSplineSet
EndChar

StartChar: hyphen
Encoding: 45 45 16
Width: 634
GlyphClass: 1
Flags: HW
LayerCount: 2
Fore
SplineSet
51 481 m 1
 51 635 l 1
 584 635 l 1
 584 481 l 1
 51 481 l 1
EndSplineSet
EndChar

StartChar: period
Encoding: 46 46 17
Width: 512
GlyphClass: 1
Flags: HW
LayerCount: 2
Fore
SplineSet
256 -14 m 0
 184 -14 127 21 127 125 c 0
 127 231 184 264 256 264 c 0
 326 264 385 231 385 125 c 0
 385 21 326 -14 256 -14 c 0
EndSplineSet
EndChar

StartChar: slash
Encoding: 47 47 18
Width: 589
GlyphClass: 1
Flags: HW
LayerCount: 2
Fore
SplineSet
0 -248 m 1
 471 1556 l 1
 590 1556 l 1
 121 -248 l 1
 0 -248 l 1
EndSplineSet
Substitution2: "'frac' Diagonal Fractions lookup 27 subtable" fraction
Substitution2: "'aalt' Access All Alternates lookup 0 subtable" fraction
EndChar

StartChar: zero
Encoding: 48 48 19
Width: 1144
GlyphClass: 1
Flags: HW
LayerCount: 2
Fore
SplineSet
573 -20 m 0
 235 -20 92 280 92 735 c 0
 92 1188 235 1483 575 1483 c 0
 894 1483 1053 1188 1053 733 c 0
 1053 280 895 -20 573 -20 c 0
573 90 m 0
 772 90 840 327 840 733 c 0
 840 1139 772 1372 575 1372 c 0
 374 1372 305 1139 305 733 c 0
 305 327 374 90 573 90 c 0
EndSplineSet
Substitution2: "'zero' Slashed Zero lookup 42 subtable" zero.slash
Substitution2: "'case' Case-Sensitive Forms lookup 39 subtable" zero.lf
Substitution2: "'onum' Oldstyle Figures lookup 36 subtable" zero.tosf
Substitution2: "'pnum' Proportional Numbers lookup 34 subtable" zero.lf
Substitution2: "'frac' Diagonal Fractions lookup 28 subtable" zero.numr
Substitution2: "'dnom' Denominators lookup 26 subtable" zero.dnom
Substitution2: "'numr' Numerators lookup 25 subtable" zero.numr
Substitution2: "'sups' Superscript lookup 24 subtable" uni2070
Substitution2: "'sinf' Scientific Inferiors lookup 23 subtable" uni2080
Substitution2: "'subs' Subscript lookup 22 subtable" uni2080
AlternateSubs2: "'aalt' Access All Alternates lookup 1 subtable" uni2070 zero.lf zero.tosf zero.dnom zero.numr uni2080
EndChar

StartChar: one
Encoding: 49 49 20
Width: 1144
GlyphClass: 1
Flags: HW
LayerCount: 2
Fore
SplineSet
197 0 m 1
 197 86 l 1
 334 86 l 2
 426 86 502 104 502 233 c 2
 502 1309 l 1
 398 1182 320 1096 238 1096 c 0
 179 1096 135 1140 135 1206 c 1
 217 1226 299 1264 434 1364 c 2
 578 1470 l 1
 709 1470 l 1
 709 233 l 2
 709 104 785 86 877 86 c 2
 977 86 l 1
 977 0 l 1
 197 0 l 1
EndSplineSet
Substitution2: "'case' Case-Sensitive Forms lookup 39 subtable" one.lf
Substitution2: "'onum' Oldstyle Figures lookup 36 subtable" one.tosf
Substitution2: "'pnum' Proportional Numbers lookup 34 subtable" one.lf
Substitution2: "'frac' Diagonal Fractions lookup 28 subtable" one.numr
Substitution2: "'dnom' Denominators lookup 26 subtable" one.dnom
Substitution2: "'numr' Numerators lookup 25 subtable" one.numr
Substitution2: "'sups' Superscript lookup 24 subtable" uni00B9
Substitution2: "'sinf' Scientific Inferiors lookup 23 subtable" uni2081
Substitution2: "'subs' Subscript lookup 22 subtable" uni2081
AlternateSubs2: "'aalt' Access All Alternates lookup 1 subtable" uni00B9 one.lf one.tosf one.dnom one.numr uni2081
EndChar

StartChar: two
Encoding: 50 50 21
Width: 1144
GlyphClass: 1
Flags: HW
LayerCount: 2
Fore
SplineSet
125 0 m 1
 125 150 l 1
 467 545 l 2
 684 797 758 932 758 1120 c 0
 758 1276 692 1380 549 1380 c 0
 363 1380 324 1237 324 1075 c 1
 226 1075 147 1104 147 1208 c 0
 147 1366 285 1483 549 1483 c 0
 807 1483 965 1348 965 1141 c 0
 965 951 838 785 623 547 c 2
 276 164 l 1
 750 164 l 2
 873 164 904 237 922 317 c 2
 930 354 l 1
 1016 354 l 1
 1006 0 l 1
 125 0 l 1
EndSplineSet
Substitution2: "'case' Case-Sensitive Forms lookup 39 subtable" two.lf
Substitution2: "'onum' Oldstyle Figures lookup 36 subtable" two.tosf
Substitution2: "'pnum' Proportional Numbers lookup 34 subtable" two.lf
Substitution2: "'frac' Diagonal Fractions lookup 28 subtable" two.numr
Substitution2: "'dnom' Denominators lookup 26 subtable" two.dnom
Substitution2: "'numr' Numerators lookup 25 subtable" two.numr
Substitution2: "'sups' Superscript lookup 24 subtable" uni00B2
Substitution2: "'sinf' Scientific Inferiors lookup 23 subtable" uni2082
Substitution2: "'subs' Subscript lookup 22 subtable" uni2082
AlternateSubs2: "'aalt' Access All Alternates lookup 1 subtable" uni00B2 two.lf two.tosf two.dnom two.numr uni2082
EndChar

StartChar: three
Encoding: 51 51 22
Width: 1144
GlyphClass: 1
Flags: HW
LayerCount: 2
Fore
SplineSet
506 -20 m 0
 236 -20 119 86 119 207 c 0
 119 289 170 338 248 338 c 1
 248 195 342 90 508 90 c 0
 670 90 813 174 813 420 c 0
 813 592 671 705 442 705 c 2
 377 705 l 1
 377 809 l 1
 442 809 l 2
 622 809 764 931 764 1126 c 0
 764 1286 703 1380 545 1380 c 0
 359 1380 319 1237 319 1075 c 1
 221 1075 143 1104 143 1208 c 0
 143 1366 281 1483 545 1483 c 0
 803 1483 975 1364 975 1157 c 0
 975 973 835 825 647 780 c 1
 799 764 1026 688 1026 418 c 0
 1026 88 742 -20 506 -20 c 0
EndSplineSet
Substitution2: "'case' Case-Sensitive Forms lookup 39 subtable" three.lf
Substitution2: "'onum' Oldstyle Figures lookup 36 subtable" three.tosf
Substitution2: "'pnum' Proportional Numbers lookup 34 subtable" three.lf
Substitution2: "'frac' Diagonal Fractions lookup 28 subtable" three.numr
Substitution2: "'dnom' Denominators lookup 26 subtable" three.dnom
Substitution2: "'numr' Numerators lookup 25 subtable" three.numr
Substitution2: "'sups' Superscript lookup 24 subtable" uni00B3
Substitution2: "'sinf' Scientific Inferiors lookup 23 subtable" uni2083
Substitution2: "'subs' Subscript lookup 22 subtable" uni2083
AlternateSubs2: "'aalt' Access All Alternates lookup 1 subtable" uni00B3 three.lf three.tosf three.dnom three.numr uni2083
EndChar

StartChar: four
Encoding: 52 52 23
Width: 1144
GlyphClass: 1
Flags: HW
LayerCount: 2
Fore
SplineSet
440 0 m 1
 440 86 l 1
 498 86 l 2
 590 86 666 104 666 233 c 2
 666 401 l 1
 35 401 l 1
 35 485 l 1
 668 1462 l 1
 862 1462 l 1
 862 516 l 1
 1116 516 l 1
 1116 401 l 1
 862 401 l 1
 862 233 l 2
 862 104 938 86 1030 86 c 2
 1057 86 l 1
 1057 0 l 1
 440 0 l 1
182 516 m 1
 666 516 l 1
 666 895 l 2
 666 1014 670 1192 680 1319 c 1
 653 1264 543 1078 496 1004 c 2
 182 516 l 1
EndSplineSet
Substitution2: "'case' Case-Sensitive Forms lookup 39 subtable" four.lf
Substitution2: "'onum' Oldstyle Figures lookup 36 subtable" four.tosf
Substitution2: "'pnum' Proportional Numbers lookup 34 subtable" four.lf
Substitution2: "'frac' Diagonal Fractions lookup 28 subtable" four.numr
Substitution2: "'dnom' Denominators lookup 26 subtable" four.dnom
Substitution2: "'numr' Numerators lookup 25 subtable" four.numr
Substitution2: "'sups' Superscript lookup 24 subtable" uni2074
Substitution2: "'sinf' Scientific Inferiors lookup 23 subtable" uni2084
Substitution2: "'subs' Subscript lookup 22 subtable" uni2084
AlternateSubs2: "'aalt' Access All Alternates lookup 1 subtable" uni2074 four.lf four.tosf four.dnom four.numr uni2084
EndChar

StartChar: five
Encoding: 53 53 24
Width: 1144
GlyphClass: 1
Flags: HW
LayerCount: 2
Fore
SplineSet
500 -20 m 0
 197 -20 113 94 113 186 c 0
 113 262 154 307 242 307 c 1
 242 190 323 100 489 100 c 0
 657 100 782 186 782 446 c 0
 782 661 659 766 471 766 c 0
 330 766 270 744 219 721 c 1
 170 735 l 1
 236 1462 l 1
 920 1462 l 1
 930 1153 l 1
 844 1153 l 1
 836 1214 l 2
 828 1271 811 1298 725 1298 c 2
 328 1298 l 1
 289 846 l 1
 330 860 407 879 528 879 c 0
 792 879 995 735 995 446 c 0
 995 167 813 -20 500 -20 c 0
EndSplineSet
Substitution2: "'case' Case-Sensitive Forms lookup 39 subtable" five.lf
Substitution2: "'onum' Oldstyle Figures lookup 36 subtable" five.tosf
Substitution2: "'pnum' Proportional Numbers lookup 34 subtable" five.lf
Substitution2: "'frac' Diagonal Fractions lookup 28 subtable" five.numr
Substitution2: "'dnom' Denominators lookup 26 subtable" five.dnom
Substitution2: "'numr' Numerators lookup 25 subtable" five.numr
Substitution2: "'sups' Superscript lookup 24 subtable" uni2075
Substitution2: "'sinf' Scientific Inferiors lookup 23 subtable" uni2085
Substitution2: "'subs' Subscript lookup 22 subtable" uni2085
AlternateSubs2: "'aalt' Access All Alternates lookup 1 subtable" uni2075 five.lf five.tosf five.dnom five.numr uni2085
EndChar

StartChar: six
Encoding: 54 54 25
Width: 1144
GlyphClass: 1
Flags: HW
LayerCount: 2
Fore
SplineSet
600 -20 m 0
 328 -20 125 198 125 737 c 0
 125 1126 297 1483 659 1483 c 0
 886 1483 997 1379 997 1268 c 0
 997 1190 942 1145 840 1145 c 1
 840 1278 790 1384 659 1384 c 0
 454 1384 350 1177 336 782 c 1
 404 837 496 889 629 889 c 0
 879 889 1040 731 1040 469 c 0
 1040 180 879 -20 600 -20 c 0
606 92 m 0
 751 92 831 201 831 449 c 0
 831 682 746 784 588 784 c 0
 482 784 389 723 334 666 c 1
 338 256 442 92 606 92 c 0
EndSplineSet
Substitution2: "'case' Case-Sensitive Forms lookup 39 subtable" six.lf
Substitution2: "'onum' Oldstyle Figures lookup 36 subtable" six.tosf
Substitution2: "'pnum' Proportional Numbers lookup 34 subtable" six.lf
Substitution2: "'frac' Diagonal Fractions lookup 28 subtable" six.numr
Substitution2: "'dnom' Denominators lookup 26 subtable" six.dnom
Substitution2: "'numr' Numerators lookup 25 subtable" six.numr
Substitution2: "'sups' Superscript lookup 24 subtable" uni2076
Substitution2: "'sinf' Scientific Inferiors lookup 23 subtable" uni2086
Substitution2: "'subs' Subscript lookup 22 subtable" uni2086
AlternateSubs2: "'aalt' Access All Alternates lookup 1 subtable" uni2076 six.lf six.tosf six.dnom six.numr uni2086
EndChar

StartChar: seven
Encoding: 55 55 26
Width: 1144
GlyphClass: 1
Flags: HW
LayerCount: 2
Fore
SplineSet
360 0 m 1
 844 1298 l 1
 334 1298 l 2
 260 1298 221 1262 215 1194 c 2
 207 1092 l 1
 121 1092 l 1
 131 1462 l 1
 1047 1462 l 1
 1047 1403 l 1
 543 0 l 1
 360 0 l 1
EndSplineSet
Substitution2: "'case' Case-Sensitive Forms lookup 39 subtable" seven.lf
Substitution2: "'onum' Oldstyle Figures lookup 36 subtable" seven.tosf
Substitution2: "'pnum' Proportional Numbers lookup 34 subtable" seven.lf
Substitution2: "'frac' Diagonal Fractions lookup 28 subtable" seven.numr
Substitution2: "'dnom' Denominators lookup 26 subtable" seven.dnom
Substitution2: "'numr' Numerators lookup 25 subtable" seven.numr
Substitution2: "'sups' Superscript lookup 24 subtable" uni2077
Substitution2: "'sinf' Scientific Inferiors lookup 23 subtable" uni2087
Substitution2: "'subs' Subscript lookup 22 subtable" uni2087
AlternateSubs2: "'aalt' Access All Alternates lookup 1 subtable" uni2077 seven.lf seven.tosf seven.dnom seven.numr uni2087
EndChar

StartChar: eight
Encoding: 56 56 27
Width: 1144
GlyphClass: 1
Flags: HW
LayerCount: 2
Fore
SplineSet
559 -20 m 0
 252 -20 94 152 94 367 c 0
 94 564 228 655 406 741 c 1
 250 829 141 944 141 1116 c 0
 141 1304 269 1483 584 1483 c 0
 840 1483 987 1335 987 1130 c 0
 987 950 877 866 711 784 c 1
 914 688 1051 569 1051 391 c 0
 1051 131 858 -20 559 -20 c 0
610 831 m 1
 764 907 805 992 805 1135 c 0
 805 1260 743 1386 571 1386 c 0
 417 1386 334 1282 334 1141 c 0
 334 994 428 915 610 831 c 1
569 74 m 0
 747 74 864 188 864 346 c 0
 864 485 768 577 504 692 c 1
 375 622 293 512 293 358 c 0
 293 188 387 74 569 74 c 0
EndSplineSet
Substitution2: "'case' Case-Sensitive Forms lookup 39 subtable" eight.lf
Substitution2: "'onum' Oldstyle Figures lookup 36 subtable" eight.tosf
Substitution2: "'pnum' Proportional Numbers lookup 34 subtable" eight.lf
Substitution2: "'frac' Diagonal Fractions lookup 28 subtable" eight.numr
Substitution2: "'dnom' Denominators lookup 26 subtable" eight.dnom
Substitution2: "'numr' Numerators lookup 25 subtable" eight.numr
Substitution2: "'sups' Superscript lookup 24 subtable" uni2078
Substitution2: "'sinf' Scientific Inferiors lookup 23 subtable" uni2088
Substitution2: "'subs' Subscript lookup 22 subtable" uni2088
AlternateSubs2: "'aalt' Access All Alternates lookup 1 subtable" uni2078 eight.lf eight.tosf eight.dnom eight.numr uni2088
EndChar

StartChar: nine
Encoding: 57 57 28
Width: 1144
GlyphClass: 1
Flags: HW
LayerCount: 2
Fore
SplineSet
465 -23 m 0
 234 -23 168 68 168 154 c 0
 168 205 198 242 229 252 c 1
 266 166 338 90 467 90 c 0
 694 90 795 290 809 702 c 1
 750 630 651 563 508 563 c 0
 270 563 104 703 104 979 c 0
 104 1274 269 1483 543 1483 c 0
 819 1483 1020 1276 1020 795 c 0
 1020 365 862 -23 465 -23 c 0
553 684 m 0
 686 684 774 762 811 850 c 1
 805 1215 701 1370 543 1370 c 0
 400 1370 315 1239 315 999 c 0
 315 774 395 684 553 684 c 0
EndSplineSet
Substitution2: "'case' Case-Sensitive Forms lookup 39 subtable" nine.lf
Substitution2: "'onum' Oldstyle Figures lookup 36 subtable" nine.tosf
Substitution2: "'pnum' Proportional Numbers lookup 34 subtable" nine.lf
Substitution2: "'frac' Diagonal Fractions lookup 28 subtable" nine.numr
Substitution2: "'dnom' Denominators lookup 26 subtable" nine.dnom
Substitution2: "'numr' Numerators lookup 25 subtable" nine.numr
Substitution2: "'sups' Superscript lookup 24 subtable" uni2079
Substitution2: "'sinf' Scientific Inferiors lookup 23 subtable" uni2089
Substitution2: "'subs' Subscript lookup 22 subtable" uni2089
AlternateSubs2: "'aalt' Access All Alternates lookup 1 subtable" uni2079 nine.lf nine.tosf nine.dnom nine.numr uni2089
EndChar

StartChar: colon
Encoding: 58 58 29
Width: 585
GlyphClass: 1
Flags: HW
LayerCount: 2
Fore
SplineSet
295 829 m 0
 223 829 166 865 166 969 c 0
 166 1075 223 1108 295 1108 c 0
 365 1108 424 1075 424 969 c 0
 424 865 365 829 295 829 c 0
295 -14 m 0
 223 -14 166 21 166 125 c 0
 166 231 223 264 295 264 c 0
 365 264 424 231 424 125 c 0
 424 21 365 -14 295 -14 c 0
EndSplineSet
EndChar

StartChar: semicolon
Encoding: 59 59 30
Width: 585
GlyphClass: 1
Flags: HW
LayerCount: 2
Fore
SplineSet
295 829 m 0
 223 829 166 865 166 969 c 0
 166 1075 223 1108 295 1108 c 0
 365 1108 424 1075 424 969 c 0
 424 865 365 829 295 829 c 0
98 -229 m 1
 231 -186 293 -125 293 -45 c 0
 293 37 143 18 143 143 c 0
 143 221 200 264 276 264 c 0
 360 264 434 201 434 86 c 0
 434 -88 342 -243 98 -315 c 1
 98 -229 l 1
EndSplineSet
EndChar

StartChar: less
Encoding: 60 60 31
Width: 1144
GlyphClass: 1
Flags: HW
LayerCount: 2
Fore
SplineSet
1012 225 m 1
 133 696 l 1
 133 768 l 1
 1012 1241 l 1
 1012 1104 l 1
 324 731 l 1
 1012 362 l 1
 1012 225 l 1
EndSplineSet
EndChar

StartChar: equal
Encoding: 61 61 32
Width: 1144
GlyphClass: 1
Flags: HW
LayerCount: 2
Fore
SplineSet
133 872 m 1
 133 993 l 1
 1012 993 l 1
 1012 872 l 1
 133 872 l 1
133 469 m 1
 133 590 l 1
 1012 590 l 1
 1012 469 l 1
 133 469 l 1
EndSplineSet
Substitution2: "'sups' Superscript lookup 24 subtable" uni207C
Substitution2: "'sinf' Scientific Inferiors lookup 23 subtable" uni208C
Substitution2: "'subs' Subscript lookup 22 subtable" uni208C
AlternateSubs2: "'aalt' Access All Alternates lookup 1 subtable" uni208C uni207C
EndChar

StartChar: greater
Encoding: 62 62 33
Width: 1144
GlyphClass: 1
Flags: HW
LayerCount: 2
Fore
SplineSet
133 225 m 1
 133 362 l 1
 821 731 l 1
 133 1104 l 1
 133 1241 l 1
 1012 768 l 1
 1012 696 l 1
 133 225 l 1
EndSplineSet
EndChar

StartChar: question
Encoding: 63 63 34
Width: 970
GlyphClass: 1
Flags: HW
LayerCount: 2
Fore
SplineSet
377 723 m 1
 621 821 694 983 694 1147 c 0
 694 1288 627 1382 467 1382 c 0
 297 1382 238 1259 238 1118 c 1
 140 1118 68 1163 68 1247 c 0
 68 1380 191 1483 451 1483 c 0
 709 1483 893 1345 893 1112 c 0
 893 887 746 747 502 643 c 1
 496 412 l 1
 385 412 l 1
 377 723 l 1
436 -14 m 0
 364 -14 307 21 307 125 c 0
 307 231 364 264 436 264 c 0
 506 264 565 231 565 125 c 0
 565 21 506 -14 436 -14 c 0
EndSplineSet
Substitution2: "'smcp' Lowercase to Small Capitals lookup 38 subtable" question.sc
Substitution2: "'c2sc' Capitals to Small Capitals lookup 37 subtable" question.sc
Substitution2: "'aalt' Access All Alternates lookup 0 subtable" question.sc
EndChar

StartChar: at
Encoding: 64 64 35
Width: 1886
GlyphClass: 1
Flags: HW
LayerCount: 2
Fore
SplineSet
885 -291 m 0
 447 -291 133 -50 133 446 c 0
 133 1026 526 1462 1085 1462 c 0
 1544 1462 1778 1174 1778 803 c 0
 1778 408 1564 158 1376 158 c 0
 1255 158 1174 227 1135 344 c 1
 1124 344 l 1
 1067 238 987 158 848 158 c 0
 682 158 537 268 537 508 c 0
 537 727 682 1083 1059 1083 c 0
 1147 1083 1210 1055 1251 1022 c 1
 1333 1065 l 1
 1382 1065 l 1
 1278 543 l 1
 1278 543 1264 461 1264 406 c 0
 1264 310 1323 266 1389 266 c 0
 1510 266 1653 463 1653 809 c 0
 1653 1167 1413 1358 1073 1358 c 0
 674 1358 295 1012 295 451 c 0
 295 -4 575 -184 905 -184 c 0
 1128 -184 1306 -100 1425 -14 c 1
 1473 -88 l 1
 1338 -190 1137 -291 885 -291 c 0
883 266 m 0
 1022 266 1081 397 1104 522 c 2
 1182 938 l 1
 1166 977 1116 999 1067 999 c 0
 821 999 727 653 727 479 c 0
 727 336 791 266 883 266 c 0
EndSplineSet
EndChar

StartChar: A
Encoding: 65 65 36
Width: 1443
GlyphClass: 2
Flags: HW
AnchorPoint: "Anchor-3" 721 731 basechar 0
AnchorPoint: "Anchor-2" 1137 1462 basechar 0
AnchorPoint: "Anchor-1" 1192 0 basechar 0
AnchorPoint: "Anchor-0" 723 1462 basechar 0
LayerCount: 2
Fore
SplineSet
0 0 m 1
 0 86 l 1
 39 86 l 2
 119 86 146 115 195 246 c 2
 649 1462 l 1
 809 1462 l 1
 1272 195 l 2
 1303 109 1337 86 1417 86 c 2
 1444 86 l 1
 1444 0 l 1
 881 0 l 1
 881 86 l 1
 928 86 l 2
 1010 86 1051 116 1051 184 c 0
 1051 207 1044 229 1034 260 c 2
 952 489 l 1
 414 489 l 1
 336 274 l 2
 324 241 317 209 317 186 c 0
 317 116 363 86 453 86 c 2
 500 86 l 1
 500 0 l 1
 0 0 l 1
453 592 m 1
 915 592 l 1
 788 950 l 2
 745 1071 709 1176 686 1274 c 1
 666 1176 639 1096 592 969 c 2
 453 592 l 1
EndSplineSet
Substitution2: "'c2sc' Capitals to Small Capitals lookup 37 subtable" a.sc
Substitution2: "Single Substitution lookup 32 subtable" ordfeminine
AlternateSubs2: "'aalt' Access All Alternates lookup 1 subtable" ordfeminine a.sc
EndChar

StartChar: B
Encoding: 66 66 37
Width: 1339
GlyphClass: 2
Flags: HW
AnchorPoint: "Anchor-3" 645 731 basechar 0
AnchorPoint: "Anchor-2" 1298 1462 basechar 0
AnchorPoint: "Anchor-1" 670 0 basechar 0
AnchorPoint: "Anchor-0" 670 1462 basechar 0
LayerCount: 2
Fore
SplineSet
78 0 m 1
 78 86 l 1
 104 86 l 2
 196 86 272 104 272 233 c 2
 272 1237 l 2
 272 1358 194 1376 104 1376 c 2
 78 1376 l 1
 78 1462 l 1
 627 1462 l 2
 981 1462 1153 1348 1153 1096 c 0
 1153 914 1044 821 899 774 c 1
 899 766 l 1
 1085 733 1214 612 1214 395 c 0
 1214 131 1042 0 688 0 c 2
 78 0 l 1
621 817 m 2
 861 817 934 899 934 1096 c 0
 934 1297 847 1360 616 1360 c 2
 479 1360 l 1
 479 817 l 1
 621 817 l 2
678 102 m 2
 909 102 995 182 995 401 c 0
 995 614 922 715 682 715 c 2
 479 715 l 1
 479 102 l 1
 678 102 l 2
EndSplineSet
Substitution2: "'c2sc' Capitals to Small Capitals lookup 37 subtable" b.sc
Substitution2: "'aalt' Access All Alternates lookup 0 subtable" b.sc
EndChar

StartChar: C
Encoding: 67 67 38
Width: 1257
GlyphClass: 2
Flags: HW
AnchorPoint: "Anchor-3" 651 731 basechar 0
AnchorPoint: "Anchor-2" 1217 1462 basechar 0
AnchorPoint: "Anchor-1" 731 0 basechar 0
AnchorPoint: "Anchor-0" 768 1462 basechar 0
LayerCount: 2
Fore
SplineSet
739 -20 m 0
 331 -20 117 280 117 733 c 0
 117 1175 342 1483 774 1483 c 0
 1053 1483 1188 1384 1188 1253 c 0
 1188 1165 1110 1110 1010 1110 c 1
 1010 1237 948 1374 770 1374 c 0
 461 1374 344 1143 344 733 c 0
 344 366 469 115 770 115 c 0
 969 115 1071 197 1141 289 c 1
 1164 275 1180 250 1180 209 c 0
 1180 107 1042 -20 739 -20 c 0
EndSplineSet
Substitution2: "'c2sc' Capitals to Small Capitals lookup 37 subtable" c.sc
Substitution2: "'aalt' Access All Alternates lookup 0 subtable" c.sc
EndChar

StartChar: D
Encoding: 68 68 39
Width: 1488
GlyphClass: 2
Flags: HW
AnchorPoint: "Anchor-3" 745 731 basechar 0
AnchorPoint: "Anchor-2" 1448 1462 basechar 0
AnchorPoint: "Anchor-1" 723 0 basechar 0
AnchorPoint: "Anchor-0" 745 1462 basechar 0
LayerCount: 2
Fore
SplineSet
78 0 m 1
 78 86 l 1
 104 86 l 2
 196 86 272 104 272 233 c 2
 272 1237 l 2
 272 1358 194 1376 104 1376 c 2
 78 1376 l 1
 78 1462 l 1
 705 1462 l 2
 1127 1462 1372 1198 1372 733 c 0
 1372 284 1149 0 705 0 c 2
 78 0 l 1
657 104 m 2
 983 104 1145 327 1145 733 c 0
 1145 1139 983 1360 659 1360 c 2
 479 1360 l 1
 479 104 l 1
 657 104 l 2
EndSplineSet
Substitution2: "'c2sc' Capitals to Small Capitals lookup 37 subtable" d.sc
Substitution2: "'aalt' Access All Alternates lookup 0 subtable" d.sc
EndChar

StartChar: E
Encoding: 69 69 40
Width: 1275
GlyphClass: 2
Flags: HW
AnchorPoint: "Anchor-3" 633 731 basechar 0
AnchorPoint: "Anchor-2" 1235 1462 basechar 0
AnchorPoint: "Anchor-1" 639 0 basechar 0
AnchorPoint: "Anchor-0" 639 1462 basechar 0
LayerCount: 2
Fore
SplineSet
78 0 m 1
 78 86 l 1
 104 86 l 2
 194 86 272 102 272 223 c 2
 272 1229 l 2
 272 1358 196 1376 104 1376 c 2
 78 1376 l 1
 78 1462 l 1
 1110 1462 l 1
 1120 1104 l 1
 1014 1104 l 1
 1004 1192 l 2
 994 1282 946 1360 823 1360 c 2
 479 1360 l 1
 479 815 l 1
 973 815 l 1
 973 715 l 1
 479 715 l 1
 479 102 l 1
 874 102 l 2
 1003 102 1055 180 1069 270 c 2
 1083 358 l 1
 1190 358 l 1
 1176 0 l 1
 78 0 l 1
EndSplineSet
Substitution2: "'c2sc' Capitals to Small Capitals lookup 37 subtable" e.sc
Substitution2: "'aalt' Access All Alternates lookup 0 subtable" e.sc
EndChar

StartChar: F
Encoding: 70 70 41
Width: 1208
GlyphClass: 2
Flags: HW
AnchorPoint: "Anchor-3" 598 731 basechar 0
AnchorPoint: "Anchor-2" 1167 1462 basechar 0
AnchorPoint: "Anchor-1" 377 0 basechar 0
AnchorPoint: "Anchor-0" 604 1462 basechar 0
LayerCount: 2
Fore
SplineSet
78 0 m 1
 78 86 l 1
 104 86 l 2
 194 86 272 102 272 223 c 2
 272 1237 l 2
 272 1358 194 1376 104 1376 c 2
 78 1376 l 1
 78 1462 l 1
 1110 1462 l 1
 1120 1104 l 1
 1014 1104 l 1
 1004 1192 l 2
 994 1284 944 1360 815 1360 c 2
 479 1360 l 1
 479 768 l 1
 973 768 l 1
 973 668 l 1
 479 668 l 1
 479 233 l 2
 479 104 555 86 647 86 c 2
 715 86 l 1
 715 0 l 1
 78 0 l 1
EndSplineSet
Substitution2: "'c2sc' Capitals to Small Capitals lookup 37 subtable" f.sc
Substitution2: "'aalt' Access All Alternates lookup 0 subtable" f.sc
EndChar

StartChar: G
Encoding: 71 71 42
Width: 1462
GlyphClass: 2
Flags: HW
AnchorPoint: "Anchor-3" 770 731 basechar 0
AnchorPoint: "Anchor-2" 1421 1462 basechar 0
AnchorPoint: "Anchor-1" 821 0 basechar 0
AnchorPoint: "Anchor-0" 834 1462 basechar 0
LayerCount: 2
Fore
SplineSet
821 -20 m 0
 346 -20 117 280 117 733 c 0
 117 1175 363 1483 834 1483 c 0
 1137 1483 1286 1384 1286 1253 c 0
 1286 1165 1202 1110 1096 1110 c 1
 1096 1237 1026 1374 825 1374 c 0
 477 1374 344 1143 344 733 c 0
 344 323 481 96 854 96 c 0
 932 96 1010 105 1067 121 c 1
 1067 451 l 2
 1067 572 989 590 899 590 c 2
 891 590 l 1
 891 676 l 1
 1423 676 l 1
 1423 590 l 1
 1415 590 l 2
 1337 590 1274 571 1274 442 c 2
 1274 74 l 1
 1137 11 997 -20 821 -20 c 0
EndSplineSet
Substitution2: "'c2sc' Capitals to Small Capitals lookup 37 subtable" g.sc
Substitution2: "'aalt' Access All Alternates lookup 0 subtable" g.sc
EndChar

StartChar: H
Encoding: 72 72 43
Width: 1624
GlyphClass: 2
Flags: HW
AnchorPoint: "Anchor-3" 813 760 basechar 0
AnchorPoint: "Anchor-2" 1583 1462 basechar 0
AnchorPoint: "Anchor-1" 813 0 basechar 0
AnchorPoint: "Anchor-0" 813 1462 basechar 0
LayerCount: 2
Fore
SplineSet
78 0 m 1
 78 86 l 1
 104 86 l 2
 196 86 272 104 272 233 c 2
 272 1237 l 2
 272 1358 194 1376 104 1376 c 2
 78 1376 l 1
 78 1462 l 1
 674 1462 l 1
 674 1376 l 1
 647 1376 l 2
 555 1376 479 1358 479 1229 c 2
 479 815 l 1
 1145 815 l 1
 1145 1229 l 2
 1145 1358 1069 1376 977 1376 c 2
 950 1376 l 1
 950 1462 l 1
 1546 1462 l 1
 1546 1376 l 1
 1520 1376 l 2
 1428 1376 1352 1358 1352 1229 c 2
 1352 223 l 2
 1352 102 1430 86 1520 86 c 2
 1546 86 l 1
 1546 0 l 1
 950 0 l 1
 950 86 l 1
 977 86 l 2
 1069 86 1145 104 1145 233 c 2
 1145 713 l 1
 479 713 l 1
 479 233 l 2
 479 104 555 86 647 86 c 2
 674 86 l 1
 674 0 l 1
 78 0 l 1
EndSplineSet
Substitution2: "'c2sc' Capitals to Small Capitals lookup 37 subtable" h.sc
Substitution2: "'aalt' Access All Alternates lookup 0 subtable" h.sc
EndChar

StartChar: I
Encoding: 73 73 44
Width: 751
GlyphClass: 2
Flags: HW
AnchorPoint: "Anchor-3" 375 731 basechar 0
AnchorPoint: "Anchor-2" 711 1462 basechar 0
AnchorPoint: "Anchor-1" 377 0 basechar 0
AnchorPoint: "Anchor-0" 377 1462 basechar 0
LayerCount: 2
Fore
SplineSet
78 0 m 1
 78 86 l 1
 104 86 l 2
 196 86 272 104 272 233 c 2
 272 1229 l 2
 272 1358 196 1376 104 1376 c 2
 78 1376 l 1
 78 1462 l 1
 674 1462 l 1
 674 1376 l 1
 647 1376 l 2
 555 1376 479 1358 479 1229 c 2
 479 233 l 2
 479 104 555 86 647 86 c 2
 674 86 l 1
 674 0 l 1
 78 0 l 1
EndSplineSet
Substitution2: "'c2sc' Capitals to Small Capitals lookup 37 subtable" i.sc
Substitution2: "'aalt' Access All Alternates lookup 0 subtable" i.sc
EndChar

StartChar: J
Encoding: 74 74 45
Width: 731
GlyphClass: 2
Flags: HW
AnchorPoint: "Anchor-3" 326 485 basechar 0
AnchorPoint: "Anchor-2" 690 1462 basechar 0
AnchorPoint: "Anchor-1" 223 -492 basechar 0
AnchorPoint: "Anchor-0" 373 1462 basechar 0
LayerCount: 2
Fore
SplineSet
-23 -492 m 1
 -23 -395 l 1
 -4 -395 l 2
 172 -395 272 -307 272 -18 c 2
 272 1237 l 2
 272 1358 194 1376 104 1376 c 2
 78 1376 l 1
 78 1462 l 1
 674 1462 l 1
 674 1376 l 1
 647 1376 l 2
 555 1376 479 1358 479 1229 c 2
 479 -16 l 2
 479 -383 274 -492 12 -492 c 2
 -23 -492 l 1
EndSplineSet
Substitution2: "'c2sc' Capitals to Small Capitals lookup 37 subtable" j.sc
Substitution2: "'aalt' Access All Alternates lookup 0 subtable" j.sc
EndChar

StartChar: K
Encoding: 75 75 46
Width: 1433
GlyphClass: 2
Flags: HW
AnchorPoint: "Anchor-3" 768 731 basechar 0
AnchorPoint: "Anchor-2" 1393 1462 basechar 0
AnchorPoint: "Anchor-1" 817 0 basechar 0
AnchorPoint: "Anchor-0" 758 1462 basechar 0
LayerCount: 2
Fore
SplineSet
78 0 m 1
 78 86 l 1
 104 86 l 2
 194 86 272 102 272 223 c 2
 272 1237 l 2
 272 1358 194 1376 104 1376 c 2
 78 1376 l 1
 78 1462 l 1
 674 1462 l 1
 674 1376 l 1
 647 1376 l 2
 555 1376 479 1358 479 1229 c 2
 479 651 l 1
 903 1137 l 2
 991 1237 1016 1294 1016 1333 c 0
 1016 1368 983 1378 915 1378 c 1
 915 1462 l 1
 1368 1462 l 1
 1368 1378 l 1
 1274 1378 1200 1305 1094 1186 c 2
 797 852 l 1
 1229 250 l 2
 1307 144 1378 86 1454 86 c 2
 1458 86 l 1
 1458 0 l 1
 1436 0 l 2
 1162 0 1108 37 1006 184 c 2
 653 690 l 1
 479 518 l 1
 479 233 l 2
 479 104 555 86 647 86 c 2
 674 86 l 1
 674 0 l 1
 78 0 l 1
EndSplineSet
Substitution2: "'c2sc' Capitals to Small Capitals lookup 37 subtable" k.sc
Substitution2: "'aalt' Access All Alternates lookup 0 subtable" k.sc
EndChar

StartChar: L
Encoding: 76 76 47
Width: 1275
GlyphClass: 2
Flags: HW
AnchorPoint: "Anchor-3" 377 731 basechar 0
AnchorPoint: "Anchor-2" 1235 1462 basechar 0
AnchorPoint: "Anchor-1" 639 0 basechar 0
AnchorPoint: "Anchor-0" 369 1462 basechar 0
LayerCount: 2
Fore
SplineSet
78 0 m 1
 78 86 l 1
 104 86 l 2
 196 86 272 104 272 233 c 2
 272 1229 l 2
 272 1358 196 1376 104 1376 c 2
 78 1376 l 1
 78 1462 l 1
 674 1462 l 1
 674 1376 l 1
 647 1376 l 2
 557 1376 479 1358 479 1237 c 2
 479 102 l 1
 883 102 l 2
 1006 102 1051 199 1063 287 c 2
 1083 440 l 1
 1190 440 l 1
 1176 0 l 1
 78 0 l 1
EndSplineSet
Substitution2: "'c2sc' Capitals to Small Capitals lookup 37 subtable" l.sc
Substitution2: "'aalt' Access All Alternates lookup 0 subtable" l.sc
EndChar

StartChar: M
Encoding: 77 77 48
Width: 1921
GlyphClass: 2
Flags: HW
AnchorPoint: "Anchor-3" 961 731 basechar 0
AnchorPoint: "Anchor-2" 1880 1462 basechar 0
AnchorPoint: "Anchor-1" 946 0 basechar 0
AnchorPoint: "Anchor-0" 961 1462 basechar 0
LayerCount: 2
Fore
SplineSet
78 0 m 1
 78 86 l 1
 104 86 l 2
 194 86 272 102 272 223 c 2
 272 1237 l 2
 272 1358 194 1376 104 1376 c 2
 78 1376 l 1
 78 1462 l 1
 545 1462 l 1
 969 291 l 1
 1389 1462 l 1
 1843 1462 l 1
 1843 1376 l 1
 1817 1376 l 2
 1725 1376 1649 1358 1649 1229 c 2
 1649 233 l 2
 1649 104 1725 86 1817 86 c 2
 1843 86 l 1
 1843 0 l 1
 1298 0 l 1
 1298 86 l 1
 1305 86 l 2
 1393 86 1446 102 1452 215 c 2
 1452 1309 l 1
 983 0 l 1
 872 0 l 1
 397 1305 l 1
 397 233 l 2
 397 104 453 86 545 86 c 2
 551 86 l 1
 551 0 l 1
 78 0 l 1
EndSplineSet
Substitution2: "'c2sc' Capitals to Small Capitals lookup 37 subtable" m.sc
Substitution2: "'aalt' Access All Alternates lookup 0 subtable" m.sc
EndChar

StartChar: N
Encoding: 78 78 49
Width: 1562
GlyphClass: 2
Flags: HW
AnchorPoint: "Anchor-3" 791 731 basechar 0
AnchorPoint: "Anchor-2" 1522 1462 basechar 0
AnchorPoint: "Anchor-1" 782 0 basechar 0
AnchorPoint: "Anchor-0" 782 1462 basechar 0
LayerCount: 2
Fore
SplineSet
78 0 m 1
 78 86 l 1
 104 86 l 2
 196 86 272 104 272 233 c 2
 272 1237 l 2
 272 1358 194 1376 104 1376 c 2
 78 1376 l 1
 78 1462 l 1
 453 1462 l 1
 1186 330 l 1
 1186 1237 l 2
 1186 1358 1108 1376 1018 1376 c 2
 991 1376 l 1
 991 1462 l 1
 1505 1462 l 1
 1505 1376 l 1
 1479 1376 l 2
 1387 1376 1311 1358 1311 1229 c 2
 1311 0 l 1
 1165 0 l 1
 397 1180 l 1
 397 233 l 2
 397 104 473 86 565 86 c 2
 592 86 l 1
 592 0 l 1
 78 0 l 1
EndSplineSet
Substitution2: "'c2sc' Capitals to Small Capitals lookup 37 subtable" n.sc
Substitution2: "'aalt' Access All Alternates lookup 0 subtable" n.sc
EndChar

StartChar: O
Encoding: 79 79 50
Width: 1519
GlyphClass: 2
Flags: HW
AnchorPoint: "Anchor-3" 760 731 basechar 0
AnchorPoint: "Anchor-2" 1479 1462 basechar 0
AnchorPoint: "Anchor-1" 760 0 basechar 0
AnchorPoint: "Anchor-0" 760 1462 basechar 0
LayerCount: 2
Fore
SplineSet
760 -20 m 0
 326 -20 115 280 115 735 c 0
 115 1188 326 1485 762 1485 c 0
 1174 1485 1403 1188 1403 733 c 0
 1403 280 1174 -20 760 -20 c 0
760 90 m 0
 1065 90 1176 327 1176 733 c 0
 1176 1139 1065 1374 762 1374 c 0
 457 1374 342 1139 342 733 c 0
 342 327 457 90 760 90 c 0
EndSplineSet
Substitution2: "'c2sc' Capitals to Small Capitals lookup 37 subtable" o.sc
Substitution2: "Single Substitution lookup 32 subtable" ordmasculine
AlternateSubs2: "'aalt' Access All Alternates lookup 1 subtable" ordmasculine o.sc
EndChar

StartChar: P
Encoding: 80 80 51
Width: 1236
GlyphClass: 2
Flags: HW
AnchorPoint: "Anchor-3" 616 731 basechar 0
AnchorPoint: "Anchor-2" 1206 1462 basechar 0
AnchorPoint: "Anchor-1" 377 0 basechar 0
AnchorPoint: "Anchor-0" 618 1462 basechar 0
LayerCount: 2
Fore
SplineSet
78 0 m 1
 78 86 l 1
 104 86 l 2
 196 86 272 104 272 233 c 2
 272 1237 l 2
 272 1358 194 1376 104 1376 c 2
 78 1376 l 1
 78 1462 l 1
 653 1462 l 2
 997 1462 1157 1300 1157 1034 c 0
 1157 790 1014 569 608 569 c 2
 479 569 l 1
 479 223 l 2
 479 102 557 86 647 86 c 2
 715 86 l 1
 715 0 l 1
 78 0 l 1
588 666 m 2
 836 666 936 766 936 1026 c 0
 936 1255 849 1364 618 1364 c 2
 479 1364 l 1
 479 666 l 1
 588 666 l 2
EndSplineSet
Substitution2: "'c2sc' Capitals to Small Capitals lookup 37 subtable" p.sc
Substitution2: "'aalt' Access All Alternates lookup 0 subtable" p.sc
EndChar

StartChar: Q
Encoding: 81 81 52
Width: 1519
GlyphClass: 2
Flags: HW
AnchorPoint: "Anchor-3" 758 506 basechar 0
AnchorPoint: "Anchor-2" 1479 1462 basechar 0
AnchorPoint: "Anchor-1" 760 -471 basechar 0
AnchorPoint: "Anchor-0" 760 1462 basechar 0
LayerCount: 2
Fore
SplineSet
1145 -471 m 2
 928 -471 699 -366 672 -16 c 1
 297 23 115 311 115 735 c 0
 115 1188 326 1485 762 1485 c 0
 1174 1485 1403 1188 1403 733 c 0
 1403 334 1223 51 897 -8 c 1
 920 -289 1034 -375 1200 -375 c 2
 1233 -375 l 1
 1233 -471 l 1
 1145 -471 l 2
760 90 m 0
 1065 90 1176 327 1176 733 c 0
 1176 1139 1065 1374 762 1374 c 0
 457 1374 342 1139 342 733 c 0
 342 327 457 90 760 90 c 0
EndSplineSet
Substitution2: "'c2sc' Capitals to Small Capitals lookup 37 subtable" q.sc
Substitution2: "'aalt' Access All Alternates lookup 0 subtable" q.sc
EndChar

StartChar: R
Encoding: 82 82 53
Width: 1343
GlyphClass: 2
Flags: HW
AnchorPoint: "Anchor-3" 717 731 basechar 0
AnchorPoint: "Anchor-2" 1303 1462 basechar 0
AnchorPoint: "Anchor-1" 754 0 basechar 0
AnchorPoint: "Anchor-0" 672 1462 basechar 0
LayerCount: 2
Fore
SplineSet
78 0 m 1
 78 86 l 1
 104 86 l 2
 194 86 272 102 272 223 c 2
 272 1237 l 2
 272 1358 194 1376 104 1376 c 2
 78 1376 l 1
 78 1462 l 1
 629 1462 l 2
 983 1462 1155 1331 1155 1067 c 0
 1155 848 999 743 854 694 c 1
 1135 250 l 2
 1205 141 1264 86 1350 86 c 2
 1356 86 l 1
 1356 0 l 1
 1327 0 l 2
 1071 0 1018 28 926 184 c 2
 649 645 l 1
 479 645 l 1
 479 223 l 2
 479 102 557 86 647 86 c 2
 674 86 l 1
 674 0 l 1
 78 0 l 1
623 741 m 2
 863 741 936 848 936 1061 c 0
 936 1280 849 1364 618 1364 c 2
 479 1364 l 1
 479 741 l 1
 623 741 l 2
EndSplineSet
Substitution2: "'c2sc' Capitals to Small Capitals lookup 37 subtable" r.sc
Substitution2: "'aalt' Access All Alternates lookup 0 subtable" r.sc
EndChar

StartChar: S
Encoding: 83 83 54
Width: 1114
GlyphClass: 2
Flags: HW
AnchorPoint: "Anchor-3" 553 731 basechar 0
AnchorPoint: "Anchor-2" 1073 1462 basechar 0
AnchorPoint: "Anchor-1" 557 0 basechar 0
AnchorPoint: "Anchor-0" 557 1462 basechar 0
LayerCount: 2
Fore
SplineSet
506 -20 m 0
 238 -20 98 96 98 268 c 0
 98 350 152 406 246 406 c 1
 254 236 329 80 522 80 c 0
 704 80 815 172 815 338 c 0
 815 488 738 559 498 657 c 0
 244 761 121 887 121 1112 c 0
 121 1345 311 1483 569 1483 c 0
 813 1483 952 1372 952 1253 c 0
 952 1165 889 1120 791 1120 c 1
 791 1247 733 1380 561 1380 c 0
 403 1380 311 1288 311 1147 c 0
 311 983 391 911 629 815 c 0
 869 717 1010 602 1010 391 c 0
 1010 131 813 -20 506 -20 c 0
EndSplineSet
Substitution2: "'c2sc' Capitals to Small Capitals lookup 37 subtable" s.sc
Substitution2: "'aalt' Access All Alternates lookup 0 subtable" s.sc
EndChar

StartChar: T
Encoding: 84 84 55
Width: 1255
GlyphClass: 2
Flags: HW
AnchorPoint: "Anchor-3" 629 731 basechar 0
AnchorPoint: "Anchor-2" 1214 1462 basechar 0
AnchorPoint: "Anchor-1" 629 0 basechar 0
AnchorPoint: "Anchor-0" 629 1462 basechar 0
LayerCount: 2
Fore
SplineSet
307 0 m 1
 307 86 l 1
 354 86 l 2
 444 86 522 102 522 223 c 2
 522 1360 l 1
 326 1360 l 2
 205 1360 168 1282 158 1192 c 2
 147 1104 l 1
 41 1104 l 1
 51 1462 l 1
 1204 1462 l 1
 1214 1104 l 1
 1108 1104 l 1
 1098 1192 l 2
 1088 1282 1051 1360 928 1360 c 2
 729 1360 l 1
 729 233 l 2
 729 104 805 86 897 86 c 2
 944 86 l 1
 944 0 l 1
 307 0 l 1
EndSplineSet
Substitution2: "'c2sc' Capitals to Small Capitals lookup 37 subtable" t.sc
Substitution2: "'aalt' Access All Alternates lookup 0 subtable" t.sc
EndChar

StartChar: U
Encoding: 85 85 56
Width: 1468
GlyphClass: 2
Flags: HW
AnchorPoint: "Anchor-3" 733 721 basechar 0
AnchorPoint: "Anchor-2" 1440 1462 basechar 0
AnchorPoint: "Anchor-1" 735 0 basechar 0
AnchorPoint: "Anchor-0" 776 1462 basechar 0
LayerCount: 2
Fore
SplineSet
741 -20 m 0
 417 -20 225 108 225 442 c 2
 225 1237 l 2
 225 1358 147 1376 57 1376 c 2
 31 1376 l 1
 31 1462 l 1
 627 1462 l 1
 627 1376 l 1
 600 1376 l 2
 508 1376 432 1358 432 1229 c 2
 432 430 l 2
 432 192 575 102 774 102 c 0
 1010 102 1118 236 1118 422 c 2
 1118 1237 l 2
 1118 1358 1040 1376 950 1376 c 2
 924 1376 l 1
 924 1462 l 1
 1438 1462 l 1
 1438 1376 l 1
 1411 1376 l 2
 1319 1376 1243 1358 1243 1229 c 2
 1243 418 l 2
 1243 146 1067 -20 741 -20 c 0
EndSplineSet
Substitution2: "'c2sc' Capitals to Small Capitals lookup 37 subtable" u.sc
Substitution2: "'aalt' Access All Alternates lookup 0 subtable" u.sc
EndChar

StartChar: V
Encoding: 86 86 57
Width: 1382
GlyphClass: 2
Flags: HW
AnchorPoint: "Anchor-3" 690 731 basechar 0
AnchorPoint: "Anchor-2" 1341 1462 basechar 0
AnchorPoint: "Anchor-1" 692 0 basechar 0
AnchorPoint: "Anchor-0" 713 1462 basechar 0
LayerCount: 2
Fore
SplineSet
172 1268 m 2
 143 1354 107 1376 27 1376 c 2
 0 1376 l 1
 0 1462 l 1
 563 1462 l 1
 563 1376 l 1
 516 1376 l 2
 434 1376 393 1346 393 1278 c 0
 393 1255 400 1233 410 1202 c 2
 635 537 l 2
 676 416 704 299 727 201 c 1
 747 299 776 410 821 537 c 2
 1047 1188 l 2
 1057 1221 1065 1253 1065 1276 c 0
 1065 1346 1020 1376 930 1376 c 2
 883 1376 l 1
 883 1462 l 1
 1382 1462 l 1
 1382 1376 l 1
 1343 1376 l 2
 1263 1376 1233 1350 1188 1217 c 2
 764 0 l 1
 614 0 l 1
 172 1268 l 2
EndSplineSet
Substitution2: "'c2sc' Capitals to Small Capitals lookup 37 subtable" v.sc
Substitution2: "'aalt' Access All Alternates lookup 0 subtable" v.sc
EndChar

StartChar: W
Encoding: 87 87 58
Width: 2144
GlyphClass: 2
Flags: HW
AnchorPoint: "Anchor-3" 1071 731 basechar 0
AnchorPoint: "Anchor-2" 2103 1462 basechar 0
AnchorPoint: "Anchor-1" 1073 0 basechar 0
AnchorPoint: "Anchor-0" 1106 1462 basechar 0
LayerCount: 2
Fore
SplineSet
190 1268 m 2
 163 1354 125 1376 45 1376 c 2
 18 1376 l 1
 18 1462 l 1
 582 1462 l 1
 582 1376 l 1
 535 1376 l 2
 453 1376 412 1346 412 1278 c 0
 412 1255 420 1233 428 1202 c 2
 616 547 l 2
 651 424 682 299 705 201 c 1
 725 307 751 438 788 569 c 2
 1032 1448 l 1
 1180 1448 l 1
 1436 561 l 2
 1475 426 1506 295 1524 201 c 1
 1544 299 1569 406 1606 537 c 2
 1786 1169 l 2
 1794 1202 1808 1253 1808 1276 c 0
 1808 1346 1763 1376 1673 1376 c 2
 1626 1376 l 1
 1626 1462 l 1
 2126 1462 l 1
 2126 1376 l 1
 2087 1376 l 2
 2007 1376 1970 1352 1931 1217 c 2
 1585 0 l 1
 1401 0 l 1
 1067 1147 l 1
 754 0 l 1
 565 0 l 1
 190 1268 l 2
EndSplineSet
Substitution2: "'c2sc' Capitals to Small Capitals lookup 37 subtable" w.sc
Substitution2: "'aalt' Access All Alternates lookup 0 subtable" w.sc
EndChar

StartChar: X
Encoding: 88 88 59
Width: 1351
GlyphClass: 2
Flags: HW
AnchorPoint: "Anchor-3" 676 731 basechar 0
AnchorPoint: "Anchor-2" 1311 1462 basechar 0
AnchorPoint: "Anchor-1" 676 0 basechar 0
AnchorPoint: "Anchor-0" 676 1462 basechar 0
LayerCount: 2
Fore
SplineSet
16 0 m 1
 16 86 l 1
 29 86 l 2
 127 86 168 123 242 229 c 2
 584 719 l 1
 246 1268 l 2
 197 1346 131 1376 70 1376 c 2
 43 1376 l 1
 43 1462 l 1
 598 1462 l 1
 598 1376 l 1
 592 1376 l 2
 498 1376 475 1350 475 1317 c 0
 475 1288 479 1268 524 1196 c 2
 709 897 l 1
 903 1192 l 2
 934 1239 954 1280 954 1317 c 0
 954 1366 907 1376 844 1376 c 2
 838 1376 l 1
 838 1462 l 1
 1286 1462 l 1
 1286 1376 l 1
 1268 1376 l 2
 1188 1376 1143 1342 1065 1229 c 2
 768 801 l 1
 1145 195 l 1
 1204 115 1258 86 1309 86 c 2
 1335 86 l 1
 1335 0 l 1
 782 0 l 1
 782 86 l 1
 793 86 l 2
 875 86 915 109 915 154 c 0
 915 185 905 205 848 295 c 2
 645 621 l 1
 418 285 l 2
 395 250 365 193 365 150 c 0
 365 105 408 86 498 86 c 2
 504 86 l 1
 504 0 l 1
 16 0 l 1
EndSplineSet
Substitution2: "'c2sc' Capitals to Small Capitals lookup 37 subtable" x.sc
Substitution2: "'aalt' Access All Alternates lookup 0 subtable" x.sc
EndChar

StartChar: Y
Encoding: 89 89 60
Width: 1280
GlyphClass: 2
Flags: HW
AnchorPoint: "Anchor-3" 637 731 basechar 0
AnchorPoint: "Anchor-2" 1239 1462 basechar 0
AnchorPoint: "Anchor-1" 641 0 basechar 0
AnchorPoint: "Anchor-0" 641 1462 basechar 0
LayerCount: 2
Fore
SplineSet
326 0 m 1
 326 86 l 1
 373 86 l 2
 463 86 541 102 541 223 c 2
 541 610 l 1
 162 1268 l 2
 117 1346 86 1376 16 1376 c 2
 -10 1376 l 1
 -10 1462 l 1
 553 1462 l 1
 553 1376 l 1
 477 1376 l 2
 403 1376 387 1346 387 1311 c 0
 387 1272 408 1231 424 1202 c 2
 575 928 l 2
 622 844 655 757 678 694 c 1
 703 751 754 842 801 928 c 2
 932 1163 l 2
 959 1210 969 1253 969 1286 c 0
 969 1345 924 1376 846 1376 c 2
 786 1376 l 1
 786 1462 l 1
 1286 1462 l 1
 1286 1376 l 1
 1262 1376 l 2
 1205 1376 1162 1340 1092 1217 c 2
 748 610 l 1
 748 233 l 2
 748 104 823 86 915 86 c 2
 963 86 l 1
 963 0 l 1
 326 0 l 1
EndSplineSet
Substitution2: "'c2sc' Capitals to Small Capitals lookup 37 subtable" y.sc
Substitution2: "'aalt' Access All Alternates lookup 0 subtable" y.sc
EndChar

StartChar: Z
Encoding: 90 90 61
Width: 1212
GlyphClass: 2
Flags: HW
AnchorPoint: "Anchor-3" 600 731 basechar 0
AnchorPoint: "Anchor-2" 1171 1462 basechar 0
AnchorPoint: "Anchor-1" 606 0 basechar 0
AnchorPoint: "Anchor-0" 606 1462 basechar 0
LayerCount: 2
Fore
SplineSet
74 0 m 1
 74 82 l 1
 842 1360 l 1
 397 1360 l 2
 276 1360 239 1282 229 1192 c 2
 219 1104 l 1
 113 1104 l 1
 123 1462 l 1
 1094 1462 l 1
 1094 1378 l 1
 324 102 l 1
 840 102 l 2
 963 102 1000 180 1010 270 c 2
 1020 358 l 1
 1126 358 l 1
 1116 0 l 1
 74 0 l 1
EndSplineSet
Substitution2: "'c2sc' Capitals to Small Capitals lookup 37 subtable" z.sc
Substitution2: "'aalt' Access All Alternates lookup 0 subtable" z.sc
EndChar

StartChar: bracketleft
Encoding: 91 91 62
Width: 737
GlyphClass: 1
Flags: HW
LayerCount: 2
Fore
SplineSet
205 -262 m 1
 205 1556 l 1
 662 1556 l 1
 662 1470 l 1
 573 1470 l 2
 481 1470 406 1452 406 1323 c 2
 406 -29 l 2
 406 -158 481 -176 573 -176 c 2
 662 -176 l 1
 662 -262 l 1
 205 -262 l 1
EndSplineSet
Substitution2: "'smcp' Lowercase to Small Capitals lookup 38 subtable" bracketleft.sc
Substitution2: "'c2sc' Capitals to Small Capitals lookup 37 subtable" bracketleft.sc
Substitution2: "'aalt' Access All Alternates lookup 0 subtable" bracketleft.sc
EndChar

StartChar: backslash
Encoding: 92 92 63
Width: 589
GlyphClass: 1
Flags: HW
LayerCount: 2
Fore
SplineSet
469 -248 m 1
 0 1556 l 1
 119 1556 l 1
 590 -248 l 1
 469 -248 l 1
EndSplineSet
EndChar

StartChar: bracketright
Encoding: 93 93 64
Width: 737
GlyphClass: 1
Flags: HW
LayerCount: 2
Fore
SplineSet
76 -262 m 1
 76 -176 l 1
 164 -176 l 2
 256 -176 332 -158 332 -29 c 2
 332 1323 l 2
 332 1452 256 1470 164 1470 c 2
 76 1470 l 1
 76 1556 l 1
 532 1556 l 1
 532 -262 l 1
 76 -262 l 1
EndSplineSet
Substitution2: "'smcp' Lowercase to Small Capitals lookup 38 subtable" bracketright.sc
Substitution2: "'c2sc' Capitals to Small Capitals lookup 37 subtable" bracketright.sc
Substitution2: "'aalt' Access All Alternates lookup 0 subtable" bracketright.sc
EndChar

StartChar: asciicircum
Encoding: 94 94 65
Width: 1144
GlyphClass: 1
Flags: HW
LayerCount: 2
Fore
SplineSet
104 545 m 1
 535 1462 l 1
 606 1462 l 1
 1038 545 l 1
 901 545 l 1
 569 1274 l 1
 242 545 l 1
 104 545 l 1
EndSplineSet
EndChar

StartChar: underscore
Encoding: 95 95 66
Width: 940
GlyphClass: 1
Flags: HW
LayerCount: 2
Fore
SplineSet
-10 -291 m 1
 -10 -170 l 1
 950 -170 l 1
 950 -291 l 1
 -10 -291 l 1
EndSplineSet
EndChar

StartChar: grave
Encoding: 96 96 67
Width: 561
GlyphClass: 1
Flags: HW
LayerCount: 2
Fore
SplineSet
401 1241 m 1
 292 1315 133 1476 82 1548 c 1
 82 1569 l 1
 301 1569 l 1
 344 1477 420 1346 479 1268 c 1
 479 1241 l 1
 401 1241 l 1
EndSplineSet
EndChar

StartChar: a
Encoding: 97 97 68
Width: 1153
GlyphClass: 2
Flags: HW
AnchorPoint: "Anchor-3" 584 549 basechar 0
AnchorPoint: "Anchor-2" 1112 1098 basechar 0
AnchorPoint: "Anchor-1" 897 0 basechar 0
AnchorPoint: "Anchor-0" 578 1098 basechar 0
LayerCount: 2
Fore
SplineSet
420 -20 m 0
 238 -20 102 84 102 307 c 0
 102 524 256 625 569 635 c 2
 739 641 l 1
 739 764 l 2
 739 911 717 1016 549 1016 c 0
 391 1016 362 922 362 793 c 1
 247 793 188 828 188 922 c 0
 188 1063 354 1118 557 1118 c 0
 807 1118 932 1024 932 764 c 2
 932 233 l 2
 932 118 967 86 1059 86 c 2
 1065 86 l 1
 1065 0 l 1
 788 0 l 1
 756 176 l 1
 739 176 l 1
 653 61 590 -20 420 -20 c 0
467 106 m 0
 633 106 739 217 739 391 c 2
 739 557 l 1
 608 551 l 2
 377 541 301 457 301 297 c 0
 301 170 354 106 467 106 c 0
EndSplineSet
Substitution2: "'smcp' Lowercase to Small Capitals lookup 38 subtable" a.sc
Substitution2: "Single Substitution lookup 32 subtable" ordfeminine
Substitution2: "'sinf' Scientific Inferiors lookup 23 subtable" uni2090
Substitution2: "'subs' Subscript lookup 22 subtable" uni2090
AlternateSubs2: "'aalt' Access All Alternates lookup 1 subtable" ordfeminine uni2090 a.sc
EndChar

StartChar: b
Encoding: 98 98 69
Width: 1257
GlyphClass: 2
Flags: HW
AnchorPoint: "Anchor-3" 590 768 basechar 0
AnchorPoint: "Anchor-2" 1176 1556 basechar 0
AnchorPoint: "Anchor-1" 629 0 basechar 0
AnchorPoint: "Anchor-0" 313 1556 basechar 0
LayerCount: 2
Fore
SplineSet
727 -20 m 0
 569 -20 473 54 414 160 c 1
 401 160 l 1
 365 0 l 1
 37 0 l 1
 37 86 l 1
 53 86 l 2
 145 86 221 104 221 233 c 2
 221 1331 l 2
 221 1452 143 1470 53 1470 c 2
 37 1470 l 1
 37 1556 l 1
 414 1556 l 1
 414 1180 l 2
 414 1108 410 958 406 913 c 1
 414 913 l 1
 475 1038 567 1118 727 1118 c 0
 997 1118 1145 944 1145 551 c 0
 1145 156 997 -20 727 -20 c 0
694 111 m 0
 874 111 946 266 946 553 c 0
 946 844 874 987 692 987 c 0
 479 987 414 846 414 551 c 0
 414 266 479 111 694 111 c 0
EndSplineSet
Substitution2: "'smcp' Lowercase to Small Capitals lookup 38 subtable" b.sc
Substitution2: "'aalt' Access All Alternates lookup 0 subtable" b.sc
EndChar

StartChar: c
Encoding: 99 99 70
Width: 1007
GlyphClass: 2
Flags: HW
AnchorPoint: "Anchor-3" 520 549 basechar 0
AnchorPoint: "Anchor-2" 967 1098 basechar 0
AnchorPoint: "Anchor-1" 545 0 basechar 0
AnchorPoint: "Anchor-0" 571 1098 basechar 0
LayerCount: 2
Fore
SplineSet
580 -20 m 0
 308 -20 113 142 113 543 c 0
 113 981 309 1118 569 1118 c 0
 739 1118 926 1050 926 909 c 0
 926 815 864 780 743 780 c 1
 743 909 706 1016 569 1016 c 0
 411 1016 311 912 311 545 c 0
 311 254 402 113 621 113 c 0
 748 113 846 172 893 256 c 1
 913 240 928 213 928 176 c 0
 928 82 811 -20 580 -20 c 0
EndSplineSet
Substitution2: "'smcp' Lowercase to Small Capitals lookup 38 subtable" c.sc
Substitution2: "'aalt' Access All Alternates lookup 0 subtable" c.sc
EndChar

StartChar: d
Encoding: 100 100 71
Width: 1257
GlyphClass: 2
Flags: HW
AnchorPoint: "Anchor-3" 629 549 basechar 0
AnchorPoint: "Anchor-2" 1176 1556 basechar 0
AnchorPoint: "Anchor-1" 629 0 basechar 0
AnchorPoint: "Anchor-0" 915 1556 basechar 0
LayerCount: 2
Fore
SplineSet
530 -20 m 0
 260 -20 113 154 113 547 c 0
 113 942 260 1118 530 1118 c 0
 688 1118 785 1044 844 938 c 1
 856 938 l 1
 848 1006 844 1097 844 1163 c 2
 844 1331 l 2
 844 1452 766 1470 676 1470 c 2
 659 1470 l 1
 659 1556 l 1
 1036 1556 l 1
 1036 225 l 2
 1036 104 1114 86 1204 86 c 2
 1221 86 l 1
 1221 0 l 1
 874 0 l 1
 852 184 l 1
 844 184 l 1
 783 59 690 -20 530 -20 c 0
565 111 m 0
 778 111 844 252 844 547 c 0
 844 832 778 987 563 987 c 0
 383 987 311 832 311 545 c 0
 311 254 383 111 565 111 c 0
EndSplineSet
Substitution2: "'smcp' Lowercase to Small Capitals lookup 38 subtable" d.sc
Substitution2: "'aalt' Access All Alternates lookup 0 subtable" d.sc
EndChar

StartChar: e
Encoding: 101 101 72
Width: 1095
GlyphClass: 2
Flags: HW
AnchorPoint: "Anchor-3" 553 549 basechar 0
AnchorPoint: "Anchor-2" 1055 1098 basechar 0
AnchorPoint: "Anchor-1" 569 0 basechar 0
AnchorPoint: "Anchor-0" 569 1098 basechar 0
LayerCount: 2
Fore
SplineSet
588 -20 m 0
 291 -20 113 187 113 541 c 0
 113 924 276 1118 567 1118 c 0
 831 1118 993 953 993 629 c 2
 993 535 l 1
 311 535 l 1
 317 236 419 109 616 109 c 0
 757 109 860 178 909 252 c 1
 927 244 948 217 948 182 c 0
 948 100 832 -20 588 -20 c 0
786 645 m 1
 786 862 727 1008 563 1008 c 0
 411 1008 329 881 315 645 c 1
 786 645 l 1
EndSplineSet
Substitution2: "'smcp' Lowercase to Small Capitals lookup 38 subtable" e.sc
Substitution2: "'sinf' Scientific Inferiors lookup 23 subtable" uni2091
Substitution2: "'subs' Subscript lookup 22 subtable" uni2091
AlternateSubs2: "'aalt' Access All Alternates lookup 1 subtable" uni2091 e.sc
EndChar

StartChar: f
Encoding: 102 102 73
Width: 755
GlyphClass: 2
Flags: HW
AnchorPoint: "Anchor-3" 477 788 basechar 0
AnchorPoint: "Anchor-2" 899 1577 basechar 0
AnchorPoint: "Anchor-1" 379 0 basechar 0
AnchorPoint: "Anchor-0" 584 1577 basechar 0
LayerCount: 2
Fore
SplineSet
55 0 m 1
 55 86 l 1
 82 86 l 2
 174 86 250 104 250 233 c 2
 250 1001 l 1
 63 1001 l 1
 63 1098 l 1
 250 1098 l 1
 250 1200 l 2
 250 1444 389 1577 612 1577 c 0
 825 1577 899 1518 899 1434 c 0
 899 1360 829 1319 731 1319 c 1
 731 1401 700 1483 596 1483 c 0
 479 1483 442 1391 442 1219 c 2
 442 1098 l 1
 731 1098 l 1
 731 1001 l 1
 442 1001 l 1
 442 233 l 2
 442 104 518 86 610 86 c 2
 688 86 l 1
 688 0 l 1
 55 0 l 1
EndSplineSet
Substitution2: "'smcp' Lowercase to Small Capitals lookup 38 subtable" f.sc
Substitution2: "'aalt' Access All Alternates lookup 0 subtable" f.sc
EndChar

StartChar: g
Encoding: 103 103 74
Width: 1101
GlyphClass: 2
Flags: HW
AnchorPoint: "Anchor-3" 561 334 basechar 0
AnchorPoint: "Anchor-2" 1061 1098 basechar 0
AnchorPoint: "Anchor-1" 528 -492 basechar 0
AnchorPoint: "Anchor-0" 528 1098 basechar 0
LayerCount: 2
Fore
SplineSet
473 -492 m 0
 188 -492 47 -381 47 -193 c 0
 47 -33 168 45 303 70 c 1
 248 95 190 150 190 238 c 0
 190 320 232 375 324 430 c 1
 207 479 139 602 139 739 c 0
 139 975 266 1118 524 1118 c 0
 622 1118 719 1086 758 1051 c 1
 797 1094 866 1161 956 1161 c 0
 1038 1161 1077 1112 1077 1055 c 0
 1077 998 1045 948 969 948 c 1
 969 979 956 1018 901 1018 c 0
 866 1018 840 1009 813 993 c 1
 860 936 893 862 893 745 c 0
 893 542 772 393 524 393 c 0
 491 393 443 397 416 403 c 1
 363 376 319 335 319 274 c 0
 319 225 340 197 446 197 c 2
 678 197 l 2
 922 197 1016 67 1016 -109 c 0
 1016 -345 844 -492 473 -492 c 0
518 492 m 0
 651 492 700 570 700 748 c 0
 700 932 649 1018 516 1018 c 0
 385 1018 332 927 332 745 c 0
 332 571 387 492 518 492 c 0
477 -391 m 0
 770 -391 848 -286 848 -143 c 0
 848 -18 774 14 639 14 c 2
 438 14 l 2
 323 14 213 -18 213 -180 c 0
 213 -301 268 -391 477 -391 c 0
EndSplineSet
Substitution2: "'smcp' Lowercase to Small Capitals lookup 38 subtable" g.sc
Substitution2: "'aalt' Access All Alternates lookup 0 subtable" g.sc
EndChar

StartChar: h
Encoding: 104 104 75
Width: 1300
GlyphClass: 2
Flags: HW
AnchorPoint: "Anchor-3" 651 549 basechar 0
AnchorPoint: "Anchor-2" 1116 1556 basechar 0
AnchorPoint: "Anchor-1" 651 0 basechar 0
AnchorPoint: "Anchor-0" 311 1556 basechar 0
LayerCount: 2
Fore
SplineSet
37 0 m 1
 37 86 l 1
 53 86 l 2
 145 86 221 104 221 233 c 2
 221 1331 l 2
 221 1452 143 1470 53 1470 c 2
 37 1470 l 1
 37 1556 l 1
 414 1556 l 1
 414 1106 l 2
 414 1032 406 932 406 932 c 1
 416 932 l 1
 477 1055 578 1118 717 1118 c 0
 950 1118 1079 998 1079 717 c 2
 1079 233 l 2
 1079 104 1145 86 1237 86 c 2
 1243 86 l 1
 1243 0 l 1
 887 0 l 1
 887 707 l 2
 887 885 828 987 662 987 c 0
 492 987 414 856 414 655 c 2
 414 223 l 2
 414 102 492 86 582 86 c 2
 588 86 l 1
 588 0 l 1
 37 0 l 1
EndSplineSet
Substitution2: "'smcp' Lowercase to Small Capitals lookup 38 subtable" h.sc
Substitution2: "'sinf' Scientific Inferiors lookup 23 subtable" uni2095
Substitution2: "'subs' Subscript lookup 22 subtable" uni2095
AlternateSubs2: "'aalt' Access All Alternates lookup 1 subtable" h.sc uni2095
EndChar

StartChar: i
Encoding: 105 105 76
Width: 655
GlyphClass: 2
Flags: HW
AnchorPoint: "Anchor-3" 338 778 basechar 0
AnchorPoint: "Anchor-2" 512 1556 basechar 0
AnchorPoint: "Anchor-1" 328 0 basechar 0
AnchorPoint: "Anchor-0" 328 1556 basechar 0
LayerCount: 2
Fore
SplineSet
330 1303 m 0
 264 1303 213 1336 213 1430 c 0
 213 1526 264 1556 330 1556 c 0
 393 1556 446 1526 446 1430 c 0
 446 1336 393 1303 330 1303 c 0
47 0 m 1
 47 86 l 1
 74 86 l 2
 164 86 242 102 242 223 c 2
 242 872 l 2
 242 993 164 1012 74 1012 c 2
 68 1012 l 1
 68 1098 l 1
 434 1098 l 1
 434 233 l 2
 434 104 510 86 602 86 c 2
 629 86 l 1
 629 0 l 1
 47 0 l 1
EndSplineSet
Substitution2: "'smcp' Lowercase to Small Capitals lookup 38 subtable" i.sc
Substitution2: "Single Substitution lookup 4 subtable" dotlessi
AlternateSubs2: "'aalt' Access All Alternates lookup 1 subtable" dotlessi i.sc
EndChar

StartChar: j
Encoding: 106 106 77
Width: 614
GlyphClass: 2
Flags: HW
AnchorPoint: "Anchor-3" 201 532 basechar 0
AnchorPoint: "Anchor-2" 492 1556 basechar 0
AnchorPoint: "Anchor-1" 168 -492 basechar 0
AnchorPoint: "Anchor-0" 311 1556 basechar 0
LayerCount: 2
Fore
SplineSet
309 1303 m 0
 243 1303 193 1336 193 1430 c 0
 193 1526 243 1556 309 1556 c 0
 372 1556 426 1526 426 1430 c 0
 426 1336 372 1303 309 1303 c 0
-25 -492 m 1
 -25 -395 l 1
 -10 -395 l 2
 137 -395 221 -307 221 -18 c 2
 221 872 l 2
 221 993 143 1012 53 1012 c 2
 47 1012 l 1
 47 1098 l 1
 414 1098 l 1
 414 -16 l 2
 414 -383 246 -492 8 -492 c 2
 -25 -492 l 1
EndSplineSet
Substitution2: "'smcp' Lowercase to Small Capitals lookup 38 subtable" j.sc
Substitution2: "Single Substitution lookup 4 subtable" uni0237
AlternateSubs2: "'aalt' Access All Alternates lookup 1 subtable" uni0237 j.sc
EndChar

StartChar: k
Encoding: 107 107 78
Width: 1198
GlyphClass: 2
Flags: HW
AnchorPoint: "Anchor-3" 618 778 basechar 0
AnchorPoint: "Anchor-2" 932 1761 basechar 0
AnchorPoint: "Anchor-1" 600 0 basechar 0
AnchorPoint: "Anchor-0" 309 1556 basechar 0
LayerCount: 2
Fore
SplineSet
37 0 m 1
 37 86 l 1
 53 86 l 2
 145 86 221 104 221 233 c 2
 221 1331 l 2
 221 1452 143 1470 53 1470 c 2
 37 1470 l 1
 37 1556 l 1
 414 1556 l 1
 414 766 l 2
 414 692 406 508 406 508 c 1
 662 788 l 2
 750 886 774 932 774 971 c 0
 774 1006 742 1012 674 1012 c 1
 674 1098 l 1
 1126 1098 l 1
 1126 1012 l 1
 1032 1012 944 942 838 821 c 2
 694 659 l 1
 967 254 l 2
 1039 145 1102 86 1194 86 c 2
 1200 86 l 1
 1200 0 l 1
 1171 0 l 2
 933 0 885 19 770 199 c 2
 565 520 l 1
 414 408 l 1
 414 223 l 2
 414 102 492 86 582 86 c 2
 588 86 l 1
 588 0 l 1
 37 0 l 1
EndSplineSet
Substitution2: "'smcp' Lowercase to Small Capitals lookup 38 subtable" k.sc
Substitution2: "'sinf' Scientific Inferiors lookup 23 subtable" uni2096
Substitution2: "'subs' Subscript lookup 22 subtable" uni2096
AlternateSubs2: "'aalt' Access All Alternates lookup 1 subtable" k.sc uni2096
EndChar

StartChar: l
Encoding: 108 108 79
Width: 634
GlyphClass: 2
Flags: HW
AnchorPoint: "Anchor-3" 317 549 basechar 0
AnchorPoint: "Anchor-2" 492 1556 basechar 0
AnchorPoint: "Anchor-1" 317 0 basechar 0
AnchorPoint: "Anchor-0" 317 1556 basechar 0
LayerCount: 2
Fore
SplineSet
27 0 m 1
 27 86 l 1
 53 86 l 2
 145 86 221 104 221 233 c 2
 221 1331 l 2
 221 1452 143 1470 53 1470 c 2
 27 1470 l 1
 27 1556 l 1
 414 1556 l 1
 414 233 l 2
 414 104 490 86 582 86 c 2
 608 86 l 1
 608 0 l 1
 27 0 l 1
EndSplineSet
Substitution2: "'smcp' Lowercase to Small Capitals lookup 38 subtable" l.sc
Substitution2: "'sinf' Scientific Inferiors lookup 23 subtable" uni2097
Substitution2: "'subs' Subscript lookup 22 subtable" uni2097
AlternateSubs2: "'aalt' Access All Alternates lookup 1 subtable" l.sc uni2097
EndChar

StartChar: m
Encoding: 109 109 80
Width: 1935
GlyphClass: 2
Flags: HW
AnchorPoint: "Anchor-3" 967 559 basechar 0
AnchorPoint: "Anchor-2" 1833 1098 basechar 0
AnchorPoint: "Anchor-1" 1049 0 basechar 0
AnchorPoint: "Anchor-0" 1006 1098 basechar 0
LayerCount: 2
Fore
SplineSet
57 0 m 1
 57 86 l 1
 84 86 l 2
 176 86 242 104 242 233 c 2
 242 872 l 2
 242 993 174 1012 84 1012 c 2
 78 1012 l 1
 78 1098 l 1
 399 1098 l 1
 426 932 l 1
 436 932 l 1
 518 1086 618 1118 745 1118 c 0
 876 1118 991 1069 1042 932 c 1
 1059 932 l 1
 1141 1086 1253 1118 1380 1118 c 0
 1589 1118 1714 998 1714 717 c 2
 1714 233 l 2
 1714 104 1780 86 1872 86 c 2
 1878 86 l 1
 1878 0 l 1
 1522 0 l 1
 1522 707 l 2
 1522 885 1465 987 1307 987 c 0
 1137 987 1079 846 1079 682 c 2
 1079 233 l 2
 1079 104 1145 86 1237 86 c 2
 1243 86 l 1
 1243 0 l 1
 887 0 l 1
 887 707 l 2
 887 885 830 987 672 987 c 0
 494 987 434 831 434 655 c 2
 434 223 l 2
 434 102 512 86 602 86 c 2
 608 86 l 1
 608 0 l 1
 57 0 l 1
EndSplineSet
Substitution2: "'smcp' Lowercase to Small Capitals lookup 38 subtable" m.sc
Substitution2: "'sinf' Scientific Inferiors lookup 23 subtable" uni2098
Substitution2: "'subs' Subscript lookup 22 subtable" uni2098
AlternateSubs2: "'aalt' Access All Alternates lookup 1 subtable" m.sc uni2098
EndChar

StartChar: n
Encoding: 110 110 81
Width: 1320
GlyphClass: 2
Flags: HW
AnchorPoint: "Anchor-3" 659 559 basechar 0
AnchorPoint: "Anchor-2" 1198 1098 basechar 0
AnchorPoint: "Anchor-1" 705 0 basechar 0
AnchorPoint: "Anchor-0" 705 1098 basechar 0
LayerCount: 2
Fore
SplineSet
57 0 m 1
 57 86 l 1
 74 86 l 2
 166 86 242 104 242 233 c 2
 242 872 l 2
 242 993 168 1012 78 1012 c 2
 68 1012 l 1
 68 1098 l 1
 399 1098 l 1
 426 932 l 1
 436 932 l 1
 520 1086 625 1118 756 1118 c 0
 971 1118 1100 998 1100 717 c 2
 1100 233 l 2
 1100 104 1161 86 1253 86 c 2
 1264 86 l 1
 1264 0 l 1
 907 0 l 1
 907 707 l 2
 907 885 848 987 682 987 c 0
 496 987 434 831 434 655 c 2
 434 223 l 2
 434 102 508 86 598 86 c 2
 608 86 l 1
 608 0 l 1
 57 0 l 1
EndSplineSet
Substitution2: "'smcp' Lowercase to Small Capitals lookup 38 subtable" n.sc
Substitution2: "'sups' Superscript lookup 24 subtable" uni207F
Substitution2: "'sinf' Scientific Inferiors lookup 23 subtable" uni2099
Substitution2: "'subs' Subscript lookup 22 subtable" uni2099
AlternateSubs2: "'aalt' Access All Alternates lookup 1 subtable" uni207F n.sc uni2099
EndChar

StartChar: o
Encoding: 111 111 82
Width: 1181
GlyphClass: 2
Flags: HW
AnchorPoint: "Anchor-3" 592 549 basechar 0
AnchorPoint: "Anchor-2" 1141 1098 basechar 0
AnchorPoint: "Anchor-1" 592 0 basechar 0
AnchorPoint: "Anchor-0" 592 1098 basechar 0
LayerCount: 2
Fore
SplineSet
588 -20 m 0
 293 -20 113 166 113 551 c 0
 113 934 277 1118 594 1118 c 0
 889 1118 1069 934 1069 551 c 0
 1069 166 903 -20 588 -20 c 0
592 86 m 0
 797 86 870 246 870 551 c 0
 870 856 795 1010 590 1010 c 0
 385 1010 311 856 311 551 c 0
 311 246 387 86 592 86 c 0
EndSplineSet
Substitution2: "'smcp' Lowercase to Small Capitals lookup 38 subtable" o.sc
Substitution2: "Single Substitution lookup 32 subtable" ordmasculine
Substitution2: "'sinf' Scientific Inferiors lookup 23 subtable" uni2092
Substitution2: "'subs' Subscript lookup 22 subtable" uni2092
AlternateSubs2: "'aalt' Access All Alternates lookup 1 subtable" ordmasculine uni2092 o.sc
EndChar

StartChar: p
Encoding: 112 112 83
Width: 1257
GlyphClass: 2
Flags: HW
AnchorPoint: "Anchor-3" 586 313 basechar 0
AnchorPoint: "Anchor-2" 1217 1098 basechar 0
AnchorPoint: "Anchor-1" 322 -492 basechar 0
AnchorPoint: "Anchor-0" 629 1098 basechar 0
LayerCount: 2
Fore
SplineSet
37 -492 m 1
 37 -406 l 1
 53 -406 l 2
 145 -406 221 -387 221 -258 c 2
 221 872 l 2
 221 993 143 1012 53 1012 c 2
 27 1012 l 1
 27 1098 l 1
 385 1098 l 1
 406 913 l 1
 414 913 l 1
 475 1038 567 1118 727 1118 c 0
 997 1118 1145 944 1145 551 c 0
 1145 156 997 -20 727 -20 c 0
 569 -20 473 54 414 160 c 1
 406 160 l 1
 412 80 414 -21 414 -72 c 2
 414 -268 l 2
 414 -389 492 -406 582 -406 c 2
 588 -406 l 1
 588 -492 l 1
 37 -492 l 1
694 111 m 0
 874 111 946 266 946 553 c 0
 946 844 874 987 692 987 c 0
 479 987 414 846 414 551 c 0
 414 266 479 111 694 111 c 0
EndSplineSet
Substitution2: "'smcp' Lowercase to Small Capitals lookup 38 subtable" p.sc
Substitution2: "'sinf' Scientific Inferiors lookup 23 subtable" uni209A
Substitution2: "'subs' Subscript lookup 22 subtable" uni209A
AlternateSubs2: "'aalt' Access All Alternates lookup 1 subtable" p.sc uni209A
EndChar

StartChar: q
Encoding: 113 113 84
Width: 1257
GlyphClass: 2
Flags: HW
AnchorPoint: "Anchor-3" 666 313 basechar 0
AnchorPoint: "Anchor-2" 1237 1098 basechar 0
AnchorPoint: "Anchor-1" 954 -492 basechar 0
AnchorPoint: "Anchor-0" 629 1098 basechar 0
LayerCount: 2
Fore
SplineSet
608 -492 m 1
 608 -406 l 1
 676 -406 l 2
 768 -406 844 -387 844 -258 c 2
 844 -82 l 2
 844 -19 846 121 852 184 c 1
 844 184 l 1
 783 59 690 -20 530 -20 c 0
 260 -20 113 154 113 547 c 0
 113 942 260 1118 530 1118 c 0
 688 1118 785 1044 844 938 c 1
 856 938 l 1
 893 1098 l 1
 1221 1098 l 1
 1221 1012 l 1
 1204 1012 l 2
 1112 1012 1036 993 1036 864 c 2
 1036 -266 l 2
 1036 -387 1114 -406 1204 -406 c 2
 1221 -406 l 1
 1221 -492 l 1
 608 -492 l 1
565 111 m 0
 778 111 844 252 844 547 c 0
 844 832 778 987 563 987 c 0
 383 987 311 832 311 545 c 0
 311 254 383 111 565 111 c 0
EndSplineSet
Substitution2: "'smcp' Lowercase to Small Capitals lookup 38 subtable" q.sc
Substitution2: "'aalt' Access All Alternates lookup 0 subtable" q.sc
EndChar

StartChar: r
Encoding: 114 114 85
Width: 964
GlyphClass: 2
Flags: HW
AnchorPoint: "Anchor-3" 500 559 basechar 0
AnchorPoint: "Anchor-2" 924 1098 basechar 0
AnchorPoint: "Anchor-1" 340 0 basechar 0
AnchorPoint: "Anchor-0" 504 1098 basechar 0
LayerCount: 2
Fore
SplineSet
68 0 m 1
 68 86 l 1
 74 86 l 2
 166 86 242 104 242 233 c 2
 242 872 l 2
 242 993 164 1012 74 1012 c 2
 68 1012 l 1
 68 1098 l 1
 383 1098 l 1
 422 895 l 1
 432 895 l 1
 485 1018 533 1118 713 1118 c 0
 863 1118 934 1063 934 969 c 0
 934 883 880 823 743 823 c 1
 743 936 715 983 635 983 c 0
 481 983 434 703 434 545 c 2
 434 223 l 2
 434 102 512 86 602 86 c 2
 659 86 l 1
 659 0 l 1
 68 0 l 1
EndSplineSet
Substitution2: "'smcp' Lowercase to Small Capitals lookup 38 subtable" r.sc
Substitution2: "'aalt' Access All Alternates lookup 0 subtable" r.sc
EndChar

StartChar: s
Encoding: 115 115 86
Width: 923
GlyphClass: 2
Flags: HW
AnchorPoint: "Anchor-3" 463 547 basechar 0
AnchorPoint: "Anchor-2" 842 1098 basechar 0
AnchorPoint: "Anchor-1" 463 0 basechar 0
AnchorPoint: "Anchor-0" 463 1098 basechar 0
LayerCount: 2
Fore
SplineSet
430 -20 m 0
 225 -20 92 54 92 197 c 0
 92 308 172 338 221 338 c 1
 221 195 276 78 442 78 c 0
 587 78 668 153 668 264 c 0
 668 364 615 401 416 487 c 0
 205 579 106 649 106 827 c 0
 106 1013 261 1116 492 1116 c 0
 689 1116 791 1030 791 928 c 0
 791 854 737 805 643 805 c 1
 643 942 588 1022 467 1022 c 0
 328 1022 272 954 272 858 c 0
 272 754 344 715 526 641 c 0
 741 551 834 473 834 301 c 0
 834 88 672 -20 430 -20 c 0
EndSplineSet
Substitution2: "'smcp' Lowercase to Small Capitals lookup 38 subtable" s.sc
Substitution2: "'sinf' Scientific Inferiors lookup 23 subtable" uni209B
Substitution2: "'subs' Subscript lookup 22 subtable" uni209B
AlternateSubs2: "'aalt' Access All Alternates lookup 1 subtable" s.sc uni209B
EndChar

StartChar: t
Encoding: 116 116 87
Width: 720
GlyphClass: 2
Flags: HW
AnchorPoint: "Anchor-3" 319 549 basechar 0
AnchorPoint: "Anchor-2" 426 2007 basechar 0
AnchorPoint: "Anchor-1" 442 0 basechar 0
AnchorPoint: "Anchor-0" 340 1350 basechar 0
LayerCount: 2
Fore
SplineSet
492 -20 m 0
 285 -20 195 61 195 297 c 2
 195 981 l 1
 39 981 l 1
 39 1063 l 1
 88 1063 154 1081 199 1128 c 0
 246 1177 273 1246 293 1350 c 1
 387 1350 l 1
 387 1098 l 1
 655 1098 l 1
 655 981 l 1
 387 981 l 1
 387 291 l 2
 387 152 449 88 543 88 c 0
 592 88 631 94 674 102 c 1
 674 12 l 1
 639 -4 558 -20 492 -20 c 0
EndSplineSet
Substitution2: "'smcp' Lowercase to Small Capitals lookup 38 subtable" t.sc
Substitution2: "'sinf' Scientific Inferiors lookup 23 subtable" uni209C
Substitution2: "'subs' Subscript lookup 22 subtable" uni209C
AlternateSubs2: "'aalt' Access All Alternates lookup 1 subtable" t.sc uni209C
EndChar

StartChar: u
Encoding: 117 117 88
Width: 1300
GlyphClass: 2
Flags: HW
AnchorPoint: "Anchor-3" 649 539 basechar 0
AnchorPoint: "Anchor-2" 1219 1098 basechar 0
AnchorPoint: "Anchor-1" 1085 0 basechar 0
AnchorPoint: "Anchor-0" 631 1098 basechar 0
LayerCount: 2
Fore
SplineSet
559 -20 m 0
 342 -20 221 100 221 381 c 2
 221 872 l 2
 221 993 143 1012 53 1012 c 2
 47 1012 l 1
 47 1098 l 1
 414 1098 l 1
 414 391 l 2
 414 213 463 111 629 111 c 0
 809 111 887 243 887 442 c 2
 887 864 l 2
 887 993 811 1012 719 1012 c 2
 713 1012 l 1
 713 1098 l 1
 1079 1098 l 1
 1079 223 l 2
 1079 102 1157 86 1247 86 c 2
 1253 86 l 1
 1253 0 l 1
 928 0 l 1
 901 166 l 1
 891 166 l 1
 807 12 692 -20 559 -20 c 0
EndSplineSet
Substitution2: "'smcp' Lowercase to Small Capitals lookup 38 subtable" u.sc
Substitution2: "'aalt' Access All Alternates lookup 0 subtable" u.sc
EndChar

StartChar: v
Encoding: 118 118 89
Width: 1185
GlyphClass: 2
Flags: HW
AnchorPoint: "Anchor-3" 594 549 basechar 0
AnchorPoint: "Anchor-2" 1165 1098 basechar 0
AnchorPoint: "Anchor-1" 594 0 basechar 0
AnchorPoint: "Anchor-0" 614 1098 basechar 0
LayerCount: 2
Fore
SplineSet
160 903 m 2
 129 989 94 1012 8 1012 c 1
 8 1098 l 1
 520 1098 l 1
 520 1012 l 1
 494 1012 l 2
 412 1012 371 981 371 913 c 0
 371 890 377 869 387 838 c 2
 526 451 l 2
 563 351 603 215 623 143 c 1
 637 200 688 326 725 424 c 2
 872 823 l 2
 884 856 891 888 891 911 c 0
 891 981 846 1012 756 1012 c 2
 741 1012 l 1
 741 1098 l 1
 1180 1098 l 1
 1180 1012 l 1
 1155 1012 l 2
 1075 1012 1048 983 999 852 c 2
 676 0 l 1
 489 0 l 1
 160 903 l 2
EndSplineSet
Substitution2: "'smcp' Lowercase to Small Capitals lookup 38 subtable" v.sc
Substitution2: "'aalt' Access All Alternates lookup 0 subtable" v.sc
EndChar

StartChar: w
Encoding: 119 119 90
Width: 1765
GlyphClass: 2
Flags: HW
AnchorPoint: "Anchor-3" 883 549 basechar 0
AnchorPoint: "Anchor-2" 1745 1098 basechar 0
AnchorPoint: "Anchor-1" 883 0 basechar 0
AnchorPoint: "Anchor-0" 883 1098 basechar 0
LayerCount: 2
Fore
SplineSet
154 903 m 2
 123 989 88 1012 8 1012 c 2
 2 1012 l 1
 2 1098 l 1
 508 1098 l 1
 508 1012 l 1
 481 1012 l 2
 399 1012 358 994 358 926 c 0
 358 903 367 869 375 838 c 2
 471 494 l 2
 498 396 531 248 543 180 c 1
 549 180 l 1
 561 248 598 373 633 473 c 2
 846 1092 l 1
 975 1092 l 1
 1180 485 l 2
 1213 387 1256 248 1268 180 c 1
 1274 180 l 1
 1286 248 1313 348 1354 479 c 2
 1456 809 l 2
 1466 844 1475 888 1475 911 c 0
 1475 981 1429 1012 1339 1012 c 2
 1325 1012 l 1
 1325 1098 l 1
 1763 1098 l 1
 1763 1012 l 1
 1737 1012 l 2
 1657 1012 1624 987 1583 852 c 2
 1319 0 l 1
 1155 0 l 1
 874 856 l 1
 584 0 l 1
 422 0 l 1
 154 903 l 2
EndSplineSet
Substitution2: "'smcp' Lowercase to Small Capitals lookup 38 subtable" w.sc
Substitution2: "'aalt' Access All Alternates lookup 0 subtable" w.sc
EndChar

StartChar: x
Encoding: 120 120 91
Width: 1183
GlyphClass: 2
Flags: HW
AnchorPoint: "Anchor-3" 592 549 basechar 0
AnchorPoint: "Anchor-2" 1143 1098 basechar 0
AnchorPoint: "Anchor-1" 592 0 basechar 0
AnchorPoint: "Anchor-0" 592 1098 basechar 0
LayerCount: 2
Fore
SplineSet
10 0 m 1
 10 86 l 1
 29 86 l 2
 127 86 172 115 252 217 c 2
 510 551 l 1
 252 903 l 2
 193 973 137 1012 76 1012 c 2
 49 1012 l 1
 49 1098 l 1
 569 1098 l 1
 569 1012 l 1
 563 1012 l 2
 469 1012 446 985 446 952 c 0
 446 923 463 901 494 858 c 2
 629 674 l 1
 735 827 l 2
 766 874 786 915 786 952 c 0
 786 1001 739 1012 676 1012 c 2
 670 1012 l 1
 670 1098 l 1
 1118 1098 l 1
 1118 1012 l 1
 1100 1012 l 2
 1020 1012 975 992 893 881 c 2
 682 600 l 1
 983 195 l 2
 1042 115 1096 86 1147 86 c 2
 1174 86 l 1
 1174 0 l 1
 645 0 l 1
 645 86 l 1
 655 86 l 2
 737 86 778 109 778 154 c 0
 778 185 763 209 700 295 c 2
 563 479 l 1
 420 279 l 2
 395 246 365 193 365 150 c 0
 365 105 402 86 492 86 c 2
 498 86 l 1
 498 0 l 1
 10 0 l 1
EndSplineSet
Substitution2: "'smcp' Lowercase to Small Capitals lookup 38 subtable" x.sc
Substitution2: "'sinf' Scientific Inferiors lookup 23 subtable" uni2093
Substitution2: "'subs' Subscript lookup 22 subtable" uni2093
AlternateSubs2: "'aalt' Access All Alternates lookup 1 subtable" uni2093 x.sc
EndChar

StartChar: y
Encoding: 121 121 92
Width: 1157
GlyphClass: 2
Flags: HW
AnchorPoint: "Anchor-3" 582 303 basechar 0
AnchorPoint: "Anchor-2" 1116 1098 basechar 0
AnchorPoint: "Anchor-1" 293 -492 basechar 0
AnchorPoint: "Anchor-0" 621 1098 basechar 0
LayerCount: 2
Fore
SplineSet
78 -395 m 1
 354 -395 471 -221 539 8 c 1
 160 903 l 2
 123 987 94 1012 14 1012 c 2
 8 1012 l 1
 8 1098 l 1
 500 1098 l 1
 500 1012 l 1
 494 1012 l 2
 412 1012 371 981 371 913 c 0
 371 890 375 869 387 838 c 2
 537 473 l 2
 576 379 623 244 635 176 c 1
 653 254 688 342 717 424 c 2
 854 823 l 2
 866 856 872 888 872 911 c 0
 872 981 827 1012 737 1012 c 2
 731 1012 l 1
 731 1098 l 1
 1157 1098 l 1
 1157 1012 l 1
 1151 1012 l 2
 1071 1012 1042 983 995 852 c 2
 684 -8 l 2
 541 -405 458 -492 96 -492 c 2
 78 -492 l 1
 78 -395 l 1
EndSplineSet
Substitution2: "'smcp' Lowercase to Small Capitals lookup 38 subtable" y.sc
Substitution2: "'aalt' Access All Alternates lookup 0 subtable" y.sc
EndChar

StartChar: z
Encoding: 122 122 93
Width: 1046
GlyphClass: 2
Flags: HW
AnchorPoint: "Anchor-3" 508 549 basechar 0
AnchorPoint: "Anchor-2" 965 1098 basechar 0
AnchorPoint: "Anchor-1" 524 0 basechar 0
AnchorPoint: "Anchor-0" 524 1098 basechar 0
LayerCount: 2
Fore
SplineSet
86 0 m 1
 86 82 l 1
 680 981 l 1
 360 981 l 2
 251 981 232 924 203 815 c 2
 201 807 l 1
 115 807 l 1
 135 1098 l 1
 920 1098 l 1
 920 1014 l 1
 324 117 l 1
 696 117 l 2
 790 117 818 197 836 285 c 2
 846 332 l 1
 932 332 l 1
 922 0 l 1
 86 0 l 1
EndSplineSet
Substitution2: "'smcp' Lowercase to Small Capitals lookup 38 subtable" z.sc
Substitution2: "'aalt' Access All Alternates lookup 0 subtable" z.sc
EndChar

StartChar: braceleft
Encoding: 123 123 94
Width: 876
GlyphClass: 1
Flags: HW
LayerCount: 2
Fore
SplineSet
639 -262 m 2
 446 -262 344 -147 344 33 c 2
 344 389 l 2
 344 557 237 600 102 606 c 1
 102 692 l 1
 237 696 344 741 344 907 c 2
 344 1264 l 2
 344 1450 446 1556 639 1556 c 2
 774 1556 l 1
 774 1468 l 1
 713 1468 l 2
 592 1468 545 1394 545 1253 c 2
 545 903 l 2
 545 770 469 676 317 651 c 1
 317 649 l 1
 473 622 545 530 545 395 c 2
 545 41 l 2
 545 -98 592 -174 713 -174 c 2
 774 -174 l 1
 774 -262 l 1
 639 -262 l 2
EndSplineSet
Substitution2: "'smcp' Lowercase to Small Capitals lookup 38 subtable" braceleft.sc
Substitution2: "'c2sc' Capitals to Small Capitals lookup 37 subtable" braceleft.sc
Substitution2: "'aalt' Access All Alternates lookup 0 subtable" braceleft.sc
EndChar

StartChar: bar
Encoding: 124 124 95
Width: 1144
GlyphClass: 1
Flags: HW
LayerCount: 2
Fore
SplineSet
510 -492 m 1
 510 1556 l 1
 633 1556 l 1
 633 -492 l 1
 510 -492 l 1
EndSplineSet
EndChar

StartChar: braceright
Encoding: 125 125 96
Width: 876
GlyphClass: 1
Flags: HW
LayerCount: 2
Fore
SplineSet
102 -262 m 1
 102 -174 l 1
 164 -174 l 2
 285 -174 332 -98 332 41 c 2
 332 395 l 2
 332 530 403 622 559 649 c 1
 559 651 l 1
 407 676 332 770 332 903 c 2
 332 1253 l 2
 332 1394 285 1468 164 1468 c 2
 102 1468 l 1
 102 1556 l 1
 238 1556 l 2
 431 1556 532 1450 532 1264 c 2
 532 907 l 2
 532 741 639 696 774 692 c 1
 774 606 l 1
 639 600 532 557 532 389 c 2
 532 33 l 2
 532 -147 431 -262 238 -262 c 2
 102 -262 l 1
EndSplineSet
Substitution2: "'smcp' Lowercase to Small Capitals lookup 38 subtable" braceright.sc
Substitution2: "'c2sc' Capitals to Small Capitals lookup 37 subtable" braceright.sc
Substitution2: "'aalt' Access All Alternates lookup 0 subtable" braceright.sc
EndChar

StartChar: asciitilde
Encoding: 126 126 97
Width: 1144
GlyphClass: 1
Flags: HW
LayerCount: 2
Fore
SplineSet
111 551 m 1
 125 709 165 909 360 909 c 0
 454 909 520 862 616 774 c 0
 673 721 727 672 784 672 c 0
 860 672 891 757 909 909 c 1
 1032 909 l 1
 1016 768 975 551 782 551 c 0
 686 551 613 606 537 680 c 0
 474 741 423 788 360 788 c 0
 280 788 245 711 231 551 c 1
 111 551 l 1
EndSplineSet
EndChar

StartChar: exclamdown
Encoding: 161 161 99
Width: 679
GlyphClass: 1
Flags: HW
LayerCount: 2
Fore
SplineSet
340 1108 m 0
 412 1108 469 1073 469 969 c 0
 469 863 412 829 340 829 c 0
 270 829 211 863 211 969 c 0
 211 1073 270 1108 340 1108 c 0
395 682 m 1
 459 -369 l 1
 221 -369 l 1
 285 682 l 1
 395 682 l 1
EndSplineSet
Substitution2: "'smcp' Lowercase to Small Capitals lookup 38 subtable" exclamdown.sc
Substitution2: "'c2sc' Capitals to Small Capitals lookup 37 subtable" exclamdown.sc
Substitution2: "'aalt' Access All Alternates lookup 0 subtable" exclamdown.sc
EndChar

StartChar: cent
Encoding: 162 162 100
Width: 1144
GlyphClass: 1
Flags: HW
LayerCount: 2
Fore
SplineSet
584 180 m 1
 336 207 162 360 162 739 c 0
 162 1145 348 1293 584 1313 c 1
 584 1462 l 1
 686 1462 l 1
 686 1313 l 1
 844 1301 1016 1235 1016 1106 c 0
 1016 1012 955 977 834 977 c 1
 834 1090 788 1186 686 1206 c 1
 686 297 l 1
 813 297 922 365 969 449 c 1
 989 433 1004 406 1004 369 c 0
 1004 275 917 184 686 176 c 1
 686 0 l 1
 584 0 l 1
 584 180 l 1
584 1206 m 1
 453 1181 360 1063 360 741 c 0
 360 497 432 350 584 309 c 1
 584 1206 l 1
EndSplineSet
EndChar

StartChar: sterling
Encoding: 163 163 101
Width: 1144
GlyphClass: 1
Flags: HW
LayerCount: 2
Fore
SplineSet
817 -20 m 0
 747 -20 680 4 610 29 c 0
 547 52 482 72 410 72 c 0
 320 72 246 43 158 2 c 2
 131 -10 l 1
 131 98 l 1
 168 121 l 2
 268 182 379 295 379 459 c 0
 379 539 357 616 328 690 c 1
 100 690 l 1
 100 786 l 1
 289 786 l 1
 252 872 211 999 211 1112 c 0
 211 1345 371 1483 629 1483 c 0
 893 1483 991 1384 991 1253 c 0
 991 1165 927 1120 829 1120 c 1
 829 1247 793 1380 621 1380 c 0
 463 1380 391 1286 391 1116 c 0
 391 989 438 866 471 786 c 1
 819 786 l 1
 819 690 l 1
 500 690 l 1
 520 622 541 553 541 471 c 0
 541 354 469 267 360 193 c 1
 365 184 l 1
 420 211 469 221 514 221 c 0
 569 221 641 200 707 180 c 0
 770 162 829 143 870 143 c 0
 964 143 1034 203 1085 264 c 1
 1085 131 l 1
 1036 63 954 -20 817 -20 c 0
EndSplineSet
EndChar

StartChar: currency
Encoding: 164 164 102
Width: 1144
GlyphClass: 1
Flags: HW
LayerCount: 2
Fore
SplineSet
217 293 m 1
 131 379 l 1
 264 514 l 1
 221 575 197 651 197 733 c 0
 197 815 221 891 266 952 c 1
 131 1087 l 1
 217 1174 l 1
 350 1038 l 1
 411 1083 487 1110 571 1110 c 0
 651 1110 727 1083 788 1038 c 1
 926 1176 l 1
 1012 1087 l 1
 877 952 l 1
 922 891 948 815 948 733 c 0
 948 651 922 575 877 514 c 1
 1012 379 l 1
 928 293 l 1
 791 428 l 1
 730 385 653 358 571 358 c 0
 489 358 413 383 352 428 c 1
 217 293 l 1
571 471 m 0
 718 471 834 590 834 733 c 0
 834 880 718 997 571 997 c 0
 428 997 311 880 311 733 c 0
 311 590 428 471 571 471 c 0
EndSplineSet
EndChar

StartChar: yen
Encoding: 165 165 103
Width: 1144
GlyphClass: 1
Flags: HW
LayerCount: 2
Fore
SplineSet
264 0 m 1
 264 86 l 1
 311 86 l 2
 401 86 475 102 479 223 c 2
 479 362 l 1
 193 362 l 1
 193 459 l 1
 479 459 l 1
 479 602 l 1
 193 602 l 1
 193 698 l 1
 440 698 l 1
 162 1268 l 2
 123 1348 96 1376 16 1376 c 2
 10 1376 l 1
 10 1462 l 1
 508 1462 l 1
 508 1376 l 1
 494 1376 l 2
 412 1376 377 1351 377 1296 c 0
 377 1263 387 1223 410 1176 c 2
 508 958 l 2
 547 872 586 751 602 698 c 1
 612 727 655 822 682 877 c 2
 799 1126 l 2
 832 1198 848 1263 848 1294 c 0
 848 1349 813 1376 723 1376 c 2
 717 1376 l 1
 717 1462 l 1
 1135 1462 l 1
 1135 1376 l 1
 1116 1376 l 2
 1046 1376 1022 1344 961 1217 c 2
 711 698 l 1
 965 698 l 1
 965 602 l 1
 678 602 l 1
 678 459 l 1
 965 459 l 1
 965 362 l 1
 678 362 l 1
 678 233 l 2
 678 104 754 86 846 86 c 2
 893 86 l 1
 893 0 l 1
 264 0 l 1
EndSplineSet
EndChar

StartChar: brokenbar
Encoding: 166 166 104
Width: 1144
GlyphClass: 1
Flags: HW
LayerCount: 2
Fore
SplineSet
510 737 m 1
 510 1556 l 1
 633 1556 l 1
 633 737 l 1
 510 737 l 1
510 -492 m 1
 510 328 l 1
 633 328 l 1
 633 -492 l 1
 510 -492 l 1
EndSplineSet
EndChar

StartChar: section
Encoding: 167 167 105
Width: 1114
GlyphClass: 1
Flags: HW
LayerCount: 2
Fore
SplineSet
557 -233 m 0
 346 -233 207 -150 207 4 c 0
 207 115 287 147 336 147 c 1
 336 4 405 -133 571 -133 c 0
 739 -133 821 -53 821 72 c 0
 821 193 783 233 461 391 c 0
 244 497 160 608 160 772 c 0
 160 874 211 952 281 1001 c 1
 232 1060 205 1133 205 1231 c 0
 205 1438 365 1556 582 1556 c 0
 805 1556 915 1458 915 1327 c 0
 915 1239 858 1202 770 1202 c 1
 770 1329 718 1454 573 1454 c 0
 438 1454 358 1384 358 1255 c 0
 358 1110 469 1075 676 975 c 0
 907 862 1010 756 1010 596 c 0
 1010 496 950 399 887 336 c 1
 926 283 950 217 950 133 c 0
 950 -82 833 -233 557 -233 c 0
821 408 m 1
 844 441 860 479 860 524 c 0
 860 616 817 686 598 795 c 0
 500 842 412 885 342 940 c 1
 313 913 291 876 291 823 c 0
 291 712 357 660 590 545 c 0
 672 504 755 465 821 408 c 1
EndSplineSet
EndChar

StartChar: dieresis
Encoding: 168 168 106
Width: 1181
GlyphClass: 1
Flags: HW
LayerCount: 2
Fore
SplineSet
784 1294 m 0
 725 1294 680 1325 680 1409 c 0
 680 1495 725 1524 784 1524 c 0
 841 1524 889 1495 889 1409 c 0
 889 1325 841 1294 784 1294 c 0
395 1294 m 0
 336 1294 291 1325 291 1409 c 0
 291 1495 336 1524 395 1524 c 0
 452 1524 500 1495 500 1409 c 0
 500 1325 452 1294 395 1294 c 0
EndSplineSet
EndChar

StartChar: copyright
Encoding: 169 169 107
Width: 1730
GlyphClass: 1
Flags: HW
LayerCount: 2
Fore
SplineSet
864 -20 m 0
 428 -20 113 274 113 733 c 0
 113 1188 426 1485 864 1485 c 0
 1302 1485 1618 1190 1618 731 c 0
 1618 274 1302 -20 864 -20 c 0
866 92 m 0
 1247 92 1499 344 1499 733 c 0
 1499 1124 1241 1372 866 1372 c 0
 491 1372 231 1126 231 731 c 0
 231 330 497 92 866 92 c 0
877 264 m 0
 596 264 455 450 455 733 c 0
 455 1007 610 1198 905 1198 c 0
 1100 1198 1194 1133 1194 1049 c 0
 1194 988 1131 950 1051 950 c 1
 1051 1028 1012 1110 901 1110 c 0
 702 1110 627 975 627 733 c 0
 627 491 725 354 903 354 c 0
 1032 354 1124 428 1161 498 c 1
 1179 486 1192 461 1192 432 c 0
 1192 354 1086 264 877 264 c 0
EndSplineSet
EndChar

StartChar: ordfeminine
Encoding: 170 170 108
Width: 782
GlyphClass: 2
Flags: HW
AnchorPoint: "Anchor-3" 410 1124 basechar 0
AnchorPoint: "Anchor-1" 373 791 basechar 0
AnchorPoint: "Anchor-0" 385 1473 basechar 0
LayerCount: 2
Fore
SplineSet
285 778 m 0
 154 778 72 850 72 987 c 0
 72 1122 180 1184 401 1194 c 2
 489 1198 l 1
 489 1257 l 2
 489 1339 477 1397 387 1397 c 0
 305 1397 289 1335 289 1257 c 1
 187 1257 127 1283 127 1346 c 0
 127 1438 246 1473 391 1473 c 0
 571 1473 659 1413 659 1251 c 2
 659 940 l 2
 659 879 682 860 748 860 c 1
 748 791 l 1
 549 791 l 1
 512 885 l 1
 502 885 l 1
 455 832 389 778 285 778 c 0
344 872 m 0
 434 872 489 940 489 1036 c 2
 489 1133 l 1
 426 1130 l 2
 293 1126 250 1075 250 985 c 0
 250 899 291 872 344 872 c 0
EndSplineSet
EndChar

StartChar: guillemotleft
Encoding: 171 171 109
Width: 1052
GlyphClass: 1
Flags: HW
LayerCount: 2
Fore
SplineSet
817 164 m 1
 504 520 l 1
 504 586 l 1
 817 942 l 1
 920 942 l 1
 713 553 l 1
 920 164 l 1
 817 164 l 1
446 164 m 1
 133 520 l 1
 133 586 l 1
 446 942 l 1
 549 942 l 1
 342 553 l 1
 549 164 l 1
 446 164 l 1
EndSplineSet
EndChar

StartChar: logicalnot
Encoding: 172 172 110
Width: 1144
GlyphClass: 1
Flags: HW
LayerCount: 2
Fore
SplineSet
889 252 m 1
 889 672 l 1
 133 672 l 1
 133 793 l 1
 1012 793 l 1
 1012 252 l 1
 889 252 l 1
EndSplineSet
EndChar

StartChar: uni00AD
Encoding: 173 173 111
Width: 634
GlyphClass: 1
Flags: HW
LayerCount: 2
Fore
SplineSet
51 481 m 1
 51 635 l 1
 584 635 l 1
 584 481 l 1
 51 481 l 1
EndSplineSet
EndChar

StartChar: registered
Encoding: 174 174 112
Width: 1730
GlyphClass: 1
Flags: HW
LayerCount: 2
Fore
SplineSet
864 -20 m 0
 428 -20 113 274 113 733 c 0
 113 1188 426 1485 864 1485 c 0
 1302 1485 1618 1190 1618 731 c 0
 1618 274 1302 -20 864 -20 c 0
866 92 m 0
 1247 92 1499 344 1499 733 c 0
 1499 1124 1241 1372 866 1372 c 0
 491 1372 231 1126 231 731 c 0
 231 330 497 92 866 92 c 0
471 289 m 1
 471 358 l 1
 498 358 l 2
 551 358 598 367 598 430 c 2
 598 1030 l 2
 598 1093 551 1102 498 1102 c 2
 471 1102 l 1
 471 1174 l 1
 846 1174 l 2
 1082 1174 1198 1090 1198 934 c 0
 1198 799 1110 738 1012 705 c 1
 1194 414 l 2
 1223 369 1241 358 1309 358 c 1
 1309 289 l 1
 1085 289 l 1
 860 670 l 1
 758 670 l 1
 758 430 l 2
 758 367 805 358 858 358 c 2
 887 358 l 1
 887 289 l 1
 471 289 l 1
844 754 m 2
 989 754 1036 805 1036 924 c 0
 1036 1049 983 1087 838 1087 c 2
 758 1087 l 1
 758 754 l 1
 844 754 l 2
EndSplineSet
EndChar

StartChar: overscore
Encoding: 175 175 113
Width: 940
GlyphClass: 1
Flags: HW
LayerCount: 2
Fore
SplineSet
-10 1556 m 1
 -10 1677 l 1
 950 1677 l 1
 950 1556 l 1
 -10 1556 l 1
EndSplineSet
Substitution2: "'smcp' Lowercase to Small Capitals lookup 38 subtable" macron.sc
Substitution2: "'c2sc' Capitals to Small Capitals lookup 37 subtable" macron.sc
Substitution2: "'aalt' Access All Alternates lookup 0 subtable" macron.sc
EndChar

StartChar: degree
Encoding: 176 176 114
Width: 819
GlyphClass: 1
Flags: HW
LayerCount: 2
Fore
SplineSet
408 866 m 0
 224 866 98 992 98 1176 c 0
 98 1358 224 1487 408 1487 c 0
 592 1487 719 1358 719 1176 c 0
 719 992 592 866 408 866 c 0
410 987 m 0
 521 987 586 1061 586 1176 c 0
 586 1293 519 1366 410 1366 c 0
 304 1366 233 1293 233 1176 c 0
 233 1061 299 987 410 987 c 0
EndSplineSet
EndChar

StartChar: plusminus
Encoding: 177 177 115
Width: 1144
GlyphClass: 1
Flags: HW
LayerCount: 2
Fore
SplineSet
510 293 m 1
 510 672 l 1
 133 672 l 1
 133 793 l 1
 510 793 l 1
 510 1171 l 1
 633 1171 l 1
 633 793 l 1
 1012 793 l 1
 1012 672 l 1
 633 672 l 1
 633 293 l 1
 510 293 l 1
133 0 m 1
 133 121 l 1
 1012 121 l 1
 1012 0 l 1
 133 0 l 1
EndSplineSet
EndChar

StartChar: uni00B2
Encoding: 178 178 116
Width: 819
GlyphClass: 1
Flags: HW
LayerCount: 2
Fore
SplineSet
86 793 m 1
 86 885 l 1
 346 1118 l 2
 467 1227 506 1343 506 1452 c 0
 506 1542 473 1608 385 1608 c 0
 285 1608 250 1524 250 1430 c 1
 158 1430 102 1446 102 1518 c 0
 102 1616 199 1690 385 1690 c 0
 575 1690 690 1611 690 1468 c 0
 690 1339 637 1253 467 1108 c 2
 250 922 l 1
 547 922 l 2
 610 922 629 961 637 1006 c 2
 645 1049 l 1
 715 1049 l 1
 709 793 l 1
 86 793 l 1
EndSplineSet
EndChar

StartChar: uni00B3
Encoding: 179 179 117
Width: 819
GlyphClass: 1
Flags: HW
LayerCount: 2
Fore
SplineSet
356 778 m 0
 178 778 82 846 82 946 c 0
 82 1005 119 1047 176 1047 c 1
 176 961 231 870 350 870 c 0
 463 870 532 922 532 1049 c 0
 532 1145 465 1206 315 1206 c 2
 248 1206 l 1
 248 1290 l 1
 315 1290 l 2
 417 1290 498 1357 498 1466 c 0
 498 1556 465 1606 381 1606 c 0
 277 1606 246 1521 246 1427 c 1
 152 1427 94 1444 94 1516 c 0
 94 1614 195 1688 381 1688 c 0
 563 1688 684 1612 684 1485 c 0
 684 1366 588 1297 475 1264 c 1
 475 1253 l 1
 584 1235 719 1197 719 1047 c 0
 719 846 520 778 356 778 c 0
EndSplineSet
EndChar

StartChar: acute
Encoding: 180 180 118
Width: 561
GlyphClass: 1
Flags: HW
LayerCount: 2
Fore
SplineSet
82 1268 m 1
 141 1346 217 1477 260 1569 c 1
 479 1569 l 1
 479 1548 l 1
 428 1476 269 1315 160 1241 c 1
 82 1241 l 1
 82 1268 l 1
EndSplineSet
EndChar

StartChar: uni00B5
Encoding: 181 181 119
Width: 1259
GlyphClass: 1
Flags: HW
LayerCount: 2
Fore
SplineSet
342 -492 m 0
 256 -492 176 -432 176 -248 c 0
 176 -84 197 119 201 461 c 2
 201 1098 l 1
 393 1098 l 1
 393 410 l 2
 393 232 440 111 598 111 c 0
 750 111 846 243 846 442 c 2
 846 1098 l 1
 1038 1098 l 1
 1038 264 l 2
 1038 143 1108 86 1167 86 c 2
 1174 86 l 1
 1174 0 l 1
 1063 0 l 2
 952 0 889 58 864 164 c 1
 856 164 l 1
 793 55 712 -20 569 -20 c 0
 454 -20 372 24 319 100 c 1
 323 -127 333 -288 485 -313 c 1
 485 -415 440 -492 342 -492 c 0
EndSplineSet
EndChar

StartChar: paragraph
Encoding: 182 182 120
Width: 1263
GlyphClass: 1
Flags: HW
LayerCount: 2
Fore
SplineSet
346 -227 m 1
 346 -141 l 1
 373 -141 l 2
 465 -141 541 -123 541 6 c 2
 541 791 l 1
 395 791 l 2
 155 791 82 979 82 1192 c 0
 82 1411 168 1556 399 1556 c 2
 1180 1556 l 1
 1180 1470 l 1
 1153 1470 l 2
 1061 1470 985 1452 985 1323 c 2
 985 6 l 2
 985 -123 1061 -141 1153 -141 c 2
 1180 -141 l 1
 1180 -227 l 1
 860 -227 l 1
 860 1452 l 1
 666 1452 l 1
 666 -227 l 1
 346 -227 l 1
EndSplineSet
EndChar

StartChar: periodcentered
Encoding: 183 183 121
Width: 512
GlyphClass: 1
Flags: HW
LayerCount: 2
Fore
SplineSet
256 590 m 0
 184 590 127 625 127 729 c 0
 127 835 184 868 256 868 c 0
 326 868 385 835 385 729 c 0
 385 625 326 590 256 590 c 0
EndSplineSet
EndChar

StartChar: cedilla
Encoding: 184 184 122
Width: 681
GlyphClass: 1
Flags: HW
LayerCount: 2
Fore
SplineSet
281 -492 m 0
 238 -492 172 -483 123 -469 c 1
 123 -365 l 1
 172 -375 225 -381 262 -381 c 0
 340 -381 387 -336 387 -266 c 0
 387 -186 321 -147 233 -141 c 1
 276 18 l 1
 373 18 l 1
 352 -70 l 1
 485 -80 551 -149 551 -258 c 0
 551 -403 455 -492 281 -492 c 0
EndSplineSet
EndChar

StartChar: uni00B9
Encoding: 185 185 123
Width: 819
GlyphClass: 1
Flags: HW
LayerCount: 2
Fore
SplineSet
127 793 m 1
 127 862 l 1
 240 862 l 2
 287 862 324 870 324 940 c 2
 324 1530 l 1
 242 1456 219 1440 160 1440 c 0
 115 1440 86 1475 86 1524 c 1
 147 1534 186 1526 381 1659 c 1
 406 1677 l 1
 508 1677 l 1
 508 940 l 2
 508 870 547 862 594 862 c 2
 688 862 l 1
 688 793 l 1
 127 793 l 1
EndSplineSet
EndChar

StartChar: ordmasculine
Encoding: 186 186 124
Width: 813
GlyphClass: 2
Flags: HW
AnchorPoint: "Anchor-3" 406 1124 basechar 0
AnchorPoint: "Anchor-1" 399 784 basechar 0
AnchorPoint: "Anchor-0" 403 1473 basechar 0
LayerCount: 2
Fore
SplineSet
406 778 m 0
 195 778 72 893 72 1126 c 0
 72 1359 187 1473 410 1473 c 0
 615 1473 741 1359 741 1126 c 0
 741 893 625 778 406 778 c 0
408 860 m 0
 523 860 565 950 565 1126 c 0
 565 1300 521 1386 406 1386 c 0
 291 1386 250 1300 250 1126 c 0
 250 950 291 860 408 860 c 0
EndSplineSet
EndChar

StartChar: guillemotright
Encoding: 187 187 125
Width: 1052
GlyphClass: 1
Flags: HW
LayerCount: 2
Fore
SplineSet
504 164 m 1
 711 553 l 1
 504 942 l 1
 606 942 l 1
 920 586 l 1
 920 520 l 1
 606 164 l 1
 504 164 l 1
133 164 m 1
 340 553 l 1
 133 942 l 1
 236 942 l 1
 549 586 l 1
 549 520 l 1
 236 164 l 1
 133 164 l 1
EndSplineSet
EndChar

StartChar: onequarter
Encoding: 188 188 126
Width: 1720
GlyphClass: 1
Flags: HW
LayerCount: 2
Fore
SplineSet
61 588 m 1
 61 657 l 1
 174 657 l 2
 221 657 258 665 258 735 c 2
 258 1325 l 1
 176 1251 153 1235 94 1235 c 0
 49 1235 20 1270 20 1319 c 1
 81 1329 120 1321 315 1454 c 1
 340 1473 l 1
 442 1473 l 1
 442 735 l 2
 442 665 481 657 528 657 c 2
 623 657 l 1
 623 588 l 1
 61 588 l 1
430 0 m 1
 1161 1462 l 1
 1294 1462 l 1
 565 0 l 1
 430 0 l 1
1153 0 m 1
 1153 70 l 1
 1210 70 l 2
 1255 70 1294 77 1294 147 c 2
 1294 260 l 1
 930 260 l 1
 930 322 l 1
 1313 885 l 1
 1477 885 l 1
 1477 348 l 1
 1673 348 l 1
 1673 260 l 1
 1477 260 l 1
 1477 147 l 2
 1477 77 1518 70 1563 70 c 2
 1604 70 l 1
 1604 0 l 1
 1153 0 l 1
1051 348 m 1
 1294 348 l 1
 1294 580 l 2
 1294 623 1299 680 1305 731 c 1
 1295 708 1280 682 1274 672 c 2
 1051 348 l 1
EndSplineSet
EndChar

StartChar: onehalf
Encoding: 189 189 127
Width: 1720
GlyphClass: 1
Flags: HW
LayerCount: 2
Fore
SplineSet
61 588 m 1
 61 657 l 1
 174 657 l 2
 221 657 258 665 258 735 c 2
 258 1325 l 1
 176 1251 153 1235 94 1235 c 0
 49 1235 20 1270 20 1319 c 1
 81 1329 120 1321 315 1454 c 1
 340 1473 l 1
 442 1473 l 1
 442 735 l 2
 442 665 481 657 528 657 c 2
 623 657 l 1
 623 588 l 1
 61 588 l 1
389 0 m 1
 1120 1462 l 1
 1253 1462 l 1
 524 0 l 1
 389 0 l 1
1016 0 m 1
 1016 92 l 1
 1276 326 l 2
 1397 435 1436 550 1436 659 c 0
 1436 749 1403 815 1315 815 c 0
 1215 815 1180 731 1180 637 c 1
 1088 637 1032 653 1032 725 c 0
 1032 823 1129 897 1315 897 c 0
 1505 897 1620 819 1620 676 c 0
 1620 547 1567 460 1397 315 c 2
 1180 129 l 1
 1477 129 l 2
 1540 129 1559 168 1567 213 c 2
 1575 256 l 1
 1645 256 l 1
 1638 0 l 1
 1016 0 l 1
EndSplineSet
EndChar

StartChar: threequarters
Encoding: 190 190 128
Width: 1720
GlyphClass: 1
Flags: HW
LayerCount: 2
Fore
SplineSet
356 573 m 0
 178 573 82 641 82 741 c 0
 82 800 119 842 176 842 c 1
 176 756 231 666 350 666 c 0
 463 666 532 717 532 844 c 0
 532 940 465 1001 315 1001 c 2
 248 1001 l 1
 248 1085 l 1
 315 1085 l 2
 417 1085 498 1153 498 1262 c 0
 498 1352 465 1401 381 1401 c 0
 277 1401 246 1317 246 1223 c 1
 152 1223 94 1239 94 1311 c 0
 94 1409 195 1483 381 1483 c 0
 563 1483 684 1407 684 1280 c 0
 684 1161 588 1092 475 1059 c 1
 475 1049 l 1
 584 1031 719 992 719 842 c 0
 719 641 520 573 356 573 c 0
471 0 m 1
 1202 1462 l 1
 1335 1462 l 1
 606 0 l 1
 471 0 l 1
1153 0 m 1
 1153 70 l 1
 1210 70 l 2
 1255 70 1294 77 1294 147 c 2
 1294 260 l 1
 930 260 l 1
 930 322 l 1
 1313 885 l 1
 1477 885 l 1
 1477 348 l 1
 1673 348 l 1
 1673 260 l 1
 1477 260 l 1
 1477 147 l 2
 1477 77 1518 70 1563 70 c 2
 1604 70 l 1
 1604 0 l 1
 1153 0 l 1
1051 348 m 1
 1294 348 l 1
 1294 580 l 2
 1294 623 1299 680 1305 731 c 1
 1295 708 1280 682 1274 672 c 2
 1051 348 l 1
EndSplineSet
EndChar

StartChar: questiondown
Encoding: 191 191 129
Width: 970
GlyphClass: 1
Flags: HW
LayerCount: 2
Fore
SplineSet
535 1104 m 0
 607 1104 664 1069 664 965 c 0
 664 859 607 825 535 825 c 0
 465 825 406 859 406 965 c 0
 406 1069 465 1104 535 1104 c 0
594 367 m 1
 350 269 276 107 276 -57 c 0
 276 -198 344 -293 504 -293 c 0
 674 -293 733 -170 733 -29 c 1
 831 -29 903 -74 903 -158 c 0
 903 -291 780 -393 520 -393 c 0
 262 -393 78 -256 78 -23 c 0
 78 202 225 342 469 446 c 1
 475 678 l 1
 586 678 l 1
 594 367 l 1
EndSplineSet
Substitution2: "'smcp' Lowercase to Small Capitals lookup 38 subtable" questiondown.sc
Substitution2: "'c2sc' Capitals to Small Capitals lookup 37 subtable" questiondown.sc
Substitution2: "'aalt' Access All Alternates lookup 0 subtable" questiondown.sc
EndChar

StartChar: Agrave
Encoding: 192 192 130
Width: 1443
GlyphClass: 2
Flags: HW
AnchorPoint: "Anchor-3" 721 731 basechar 0
AnchorPoint: "Anchor-2" 1137 1462 basechar 0
AnchorPoint: "Anchor-1" 723 0 basechar 0
AnchorPoint: "Anchor-0" 723 1907 basechar 0
LayerCount: 2
Fore
SplineSet
727 1579 m 1
 618 1653 459 1814 408 1886 c 1
 408 1907 l 1
 627 1907 l 1
 670 1815 746 1684 805 1606 c 1
 805 1579 l 1
 727 1579 l 1
0 0 m 1
 0 86 l 1
 39 86 l 2
 119 86 146 115 195 246 c 2
 649 1462 l 1
 809 1462 l 1
 1272 195 l 2
 1303 109 1337 86 1417 86 c 2
 1444 86 l 1
 1444 0 l 1
 881 0 l 1
 881 86 l 1
 928 86 l 2
 1010 86 1051 116 1051 184 c 0
 1051 207 1044 229 1034 260 c 2
 952 489 l 1
 414 489 l 1
 336 274 l 2
 324 241 317 209 317 186 c 0
 317 116 363 86 453 86 c 2
 500 86 l 1
 500 0 l 1
 0 0 l 1
453 592 m 1
 915 592 l 1
 788 950 l 2
 745 1071 709 1176 686 1274 c 1
 666 1176 639 1096 592 969 c 2
 453 592 l 1
EndSplineSet
Substitution2: "'c2sc' Capitals to Small Capitals lookup 37 subtable" agrave.sc
Substitution2: "'aalt' Access All Alternates lookup 0 subtable" agrave.sc
EndChar

StartChar: Aacute
Encoding: 193 193 131
Width: 1443
GlyphClass: 2
Flags: HW
AnchorPoint: "Anchor-3" 721 731 basechar 0
AnchorPoint: "Anchor-2" 1137 1462 basechar 0
AnchorPoint: "Anchor-1" 723 0 basechar 0
AnchorPoint: "Anchor-0" 723 1907 basechar 0
LayerCount: 2
Fore
SplineSet
637 1606 m 1
 696 1684 772 1815 815 1907 c 1
 1034 1907 l 1
 1034 1886 l 1
 983 1814 824 1653 715 1579 c 1
 637 1579 l 1
 637 1606 l 1
0 0 m 1
 0 86 l 1
 39 86 l 2
 119 86 146 115 195 246 c 2
 649 1462 l 1
 809 1462 l 1
 1272 195 l 2
 1303 109 1337 86 1417 86 c 2
 1444 86 l 1
 1444 0 l 1
 881 0 l 1
 881 86 l 1
 928 86 l 2
 1010 86 1051 116 1051 184 c 0
 1051 207 1044 229 1034 260 c 2
 952 489 l 1
 414 489 l 1
 336 274 l 2
 324 241 317 209 317 186 c 0
 317 116 363 86 453 86 c 2
 500 86 l 1
 500 0 l 1
 0 0 l 1
453 592 m 1
 915 592 l 1
 788 950 l 2
 745 1071 709 1176 686 1274 c 1
 666 1176 639 1096 592 969 c 2
 453 592 l 1
EndSplineSet
Substitution2: "'c2sc' Capitals to Small Capitals lookup 37 subtable" aacute.sc
Substitution2: "'aalt' Access All Alternates lookup 0 subtable" aacute.sc
EndChar

StartChar: Acircumflex
Encoding: 194 194 132
Width: 1443
GlyphClass: 2
Flags: HW
AnchorPoint: "Anchor-3" 721 731 basechar 0
AnchorPoint: "Anchor-2" 1137 1462 basechar 0
AnchorPoint: "Anchor-1" 723 0 basechar 0
AnchorPoint: "Anchor-0" 723 1907 basechar 0
LayerCount: 2
Fore
SplineSet
422 1606 m 1
 485 1684 584 1815 627 1907 c 1
 821 1907 l 1
 864 1815 963 1684 1026 1606 c 1
 1026 1579 l 1
 946 1579 l 1
 868 1624 784 1697 723 1763 c 1
 662 1697 580 1624 502 1579 c 1
 422 1579 l 1
 422 1606 l 1
0 0 m 1
 0 86 l 1
 39 86 l 2
 119 86 146 115 195 246 c 2
 649 1462 l 1
 809 1462 l 1
 1272 195 l 2
 1303 109 1337 86 1417 86 c 2
 1444 86 l 1
 1444 0 l 1
 881 0 l 1
 881 86 l 1
 928 86 l 2
 1010 86 1051 116 1051 184 c 0
 1051 207 1044 229 1034 260 c 2
 952 489 l 1
 414 489 l 1
 336 274 l 2
 324 241 317 209 317 186 c 0
 317 116 363 86 453 86 c 2
 500 86 l 1
 500 0 l 1
 0 0 l 1
453 592 m 1
 915 592 l 1
 788 950 l 2
 745 1071 709 1176 686 1274 c 1
 666 1176 639 1096 592 969 c 2
 453 592 l 1
EndSplineSet
Substitution2: "'c2sc' Capitals to Small Capitals lookup 37 subtable" acircumflex.sc
Substitution2: "'aalt' Access All Alternates lookup 0 subtable" acircumflex.sc
EndChar

StartChar: Atilde
Encoding: 195 195 133
Width: 1443
GlyphClass: 2
Flags: HW
AnchorPoint: "Anchor-3" 721 731 basechar 0
AnchorPoint: "Anchor-2" 1137 1462 basechar 0
AnchorPoint: "Anchor-1" 723 0 basechar 0
AnchorPoint: "Anchor-0" 723 1841 basechar 0
LayerCount: 2
Fore
SplineSet
872 1579 m 0
 725 1579 639 1708 551 1708 c 0
 469 1708 459 1654 451 1599 c 1
 358 1599 l 1
 366 1724 428 1841 575 1841 c 0
 720 1841 809 1712 895 1712 c 0
 975 1712 987 1766 995 1821 c 1
 1087 1821 l 1
 1079 1696 1017 1579 872 1579 c 0
0 0 m 1
 0 86 l 1
 39 86 l 2
 119 86 146 115 195 246 c 2
 649 1462 l 1
 809 1462 l 1
 1272 195 l 2
 1303 109 1337 86 1417 86 c 2
 1444 86 l 1
 1444 0 l 1
 881 0 l 1
 881 86 l 1
 928 86 l 2
 1010 86 1051 116 1051 184 c 0
 1051 207 1044 229 1034 260 c 2
 952 489 l 1
 414 489 l 1
 336 274 l 2
 324 241 317 209 317 186 c 0
 317 116 363 86 453 86 c 2
 500 86 l 1
 500 0 l 1
 0 0 l 1
453 592 m 1
 915 592 l 1
 788 950 l 2
 745 1071 709 1176 686 1274 c 1
 666 1176 639 1096 592 969 c 2
 453 592 l 1
EndSplineSet
Substitution2: "'c2sc' Capitals to Small Capitals lookup 37 subtable" atilde.sc
Substitution2: "'aalt' Access All Alternates lookup 0 subtable" atilde.sc
EndChar

StartChar: Adieresis
Encoding: 196 196 134
Width: 1443
GlyphClass: 2
Flags: HW
AnchorPoint: "Anchor-3" 721 731 basechar 0
AnchorPoint: "Anchor-2" 1137 1462 basechar 0
AnchorPoint: "Anchor-1" 723 0 basechar 0
AnchorPoint: "Anchor-0" 723 1862 basechar 0
LayerCount: 2
Fore
SplineSet
918 1632 m 0
 859 1632 813 1663 813 1747 c 0
 813 1833 859 1862 918 1862 c 0
 975 1862 1022 1833 1022 1747 c 0
 1022 1663 975 1632 918 1632 c 0
528 1632 m 0
 469 1632 424 1663 424 1747 c 0
 424 1833 469 1862 528 1862 c 0
 585 1862 633 1833 633 1747 c 0
 633 1663 585 1632 528 1632 c 0
0 0 m 1
 0 86 l 1
 39 86 l 2
 119 86 146 115 195 246 c 2
 649 1462 l 1
 809 1462 l 1
 1272 195 l 2
 1303 109 1337 86 1417 86 c 2
 1444 86 l 1
 1444 0 l 1
 881 0 l 1
 881 86 l 1
 928 86 l 2
 1010 86 1051 116 1051 184 c 0
 1051 207 1044 229 1034 260 c 2
 952 489 l 1
 414 489 l 1
 336 274 l 2
 324 241 317 209 317 186 c 0
 317 116 363 86 453 86 c 2
 500 86 l 1
 500 0 l 1
 0 0 l 1
453 592 m 1
 915 592 l 1
 788 950 l 2
 745 1071 709 1176 686 1274 c 1
 666 1176 639 1096 592 969 c 2
 453 592 l 1
EndSplineSet
Substitution2: "'c2sc' Capitals to Small Capitals lookup 37 subtable" adieresis.sc
Substitution2: "'aalt' Access All Alternates lookup 0 subtable" adieresis.sc
EndChar

StartChar: Aring
Encoding: 197 197 135
Width: 1443
GlyphClass: 2
Flags: HW
AnchorPoint: "Anchor-3" 721 903 basechar 0
AnchorPoint: "Anchor-1" 723 0 basechar 0
AnchorPoint: "Anchor-0" 723 1808 basechar 0
LayerCount: 2
Fore
SplineSet
0 0 m 1
 0 86 l 1
 39 86 l 2
 119 86 146 115 195 246 c 2
 618 1378 l 1
 534 1409 479 1479 479 1585 c 0
 479 1730 588 1808 725 1808 c 0
 862 1808 971 1730 971 1585 c 0
 971 1483 918 1413 838 1382 c 1
 1272 195 l 2
 1303 109 1337 86 1417 86 c 2
 1444 86 l 1
 1444 0 l 1
 881 0 l 1
 881 86 l 1
 928 86 l 2
 1010 86 1051 116 1051 184 c 0
 1051 207 1044 229 1034 260 c 2
 952 489 l 1
 414 489 l 1
 336 274 l 2
 324 241 317 209 317 186 c 0
 317 116 363 86 453 86 c 2
 500 86 l 1
 500 0 l 1
 0 0 l 1
725 1462 m 0
 799 1462 860 1497 860 1585 c 0
 860 1673 799 1708 725 1708 c 0
 651 1708 590 1673 590 1585 c 0
 590 1497 651 1462 725 1462 c 0
453 592 m 1
 915 592 l 1
 788 950 l 2
 745 1071 709 1176 686 1274 c 1
 666 1176 639 1096 592 969 c 2
 453 592 l 1
EndSplineSet
Substitution2: "'c2sc' Capitals to Small Capitals lookup 37 subtable" aring.sc
Substitution2: "'aalt' Access All Alternates lookup 0 subtable" aring.sc
EndChar

StartChar: AE
Encoding: 198 198 136
Width: 1947
GlyphClass: 2
Flags: HW
AnchorPoint: "Anchor-3" 930 731 basechar 0
AnchorPoint: "Anchor-1" 975 0 basechar 0
AnchorPoint: "Anchor-0" 975 1462 basechar 0
LayerCount: 2
Fore
SplineSet
0 0 m 1
 0 86 l 1
 33 86 l 2
 105 86 158 135 215 246 c 2
 807 1366 l 1
 647 1376 l 1
 647 1462 l 1
 1782 1462 l 1
 1792 1104 l 1
 1686 1104 l 1
 1675 1192 l 2
 1665 1282 1618 1356 1495 1360 c 2
 1151 1360 l 1
 1151 815 l 1
 1645 815 l 1
 1645 715 l 1
 1151 715 l 1
 1151 102 l 1
 1546 102 l 2
 1675 102 1727 180 1741 270 c 2
 1755 358 l 1
 1862 358 l 1
 1847 0 l 1
 750 0 l 1
 750 86 l 1
 776 86 l 2
 866 86 940 102 944 223 c 2
 944 489 l 1
 473 489 l 1
 360 274 l 2
 337 231 328 191 328 166 c 0
 328 111 371 86 451 86 c 2
 498 86 l 1
 498 0 l 1
 0 0 l 1
526 592 m 1
 944 592 l 1
 944 1360 l 1
 915 1360 l 1
 526 592 l 1
EndSplineSet
Substitution2: "'c2sc' Capitals to Small Capitals lookup 37 subtable" ae.sc
Substitution2: "'aalt' Access All Alternates lookup 0 subtable" ae.sc
EndChar

StartChar: Ccedilla
Encoding: 199 199 137
Width: 1257
GlyphClass: 2
Flags: HW
AnchorPoint: "Anchor-3" 651 731 basechar 0
AnchorPoint: "Anchor-2" 1217 1462 basechar 0
AnchorPoint: "Anchor-1" 731 -492 basechar 0
AnchorPoint: "Anchor-0" 752 1462 basechar 0
LayerCount: 2
Fore
SplineSet
674 -492 m 0
 631 -492 565 -483 516 -469 c 1
 516 -365 l 1
 565 -375 618 -381 655 -381 c 0
 733 -381 780 -336 780 -266 c 0
 780 -186 715 -147 627 -141 c 1
 659 -16 l 1
 303 21 117 311 117 733 c 0
 117 1175 342 1483 774 1483 c 0
 1053 1483 1188 1384 1188 1253 c 0
 1188 1165 1110 1110 1010 1110 c 1
 1010 1237 948 1374 770 1374 c 0
 461 1374 344 1143 344 733 c 0
 344 366 469 115 770 115 c 0
 969 115 1071 197 1141 289 c 1
 1164 275 1180 250 1180 209 c 0
 1180 107 1043 -20 758 -20 c 1
 745 -70 l 1
 878 -80 944 -149 944 -258 c 0
 944 -403 848 -492 674 -492 c 0
EndSplineSet
Substitution2: "'c2sc' Capitals to Small Capitals lookup 37 subtable" ccedilla.sc
Substitution2: "'aalt' Access All Alternates lookup 0 subtable" ccedilla.sc
EndChar

StartChar: Egrave
Encoding: 200 200 138
Width: 1275
GlyphClass: 2
Flags: HW
AnchorPoint: "Anchor-3" 633 731 basechar 0
AnchorPoint: "Anchor-2" 1235 1462 basechar 0
AnchorPoint: "Anchor-1" 639 0 basechar 0
AnchorPoint: "Anchor-0" 639 1907 basechar 0
LayerCount: 2
Fore
SplineSet
664 1579 m 1
 555 1653 395 1814 344 1886 c 1
 344 1907 l 1
 563 1907 l 1
 606 1815 682 1684 741 1606 c 1
 741 1579 l 1
 664 1579 l 1
78 0 m 1
 78 86 l 1
 104 86 l 2
 194 86 272 102 272 223 c 2
 272 1229 l 2
 272 1358 196 1376 104 1376 c 2
 78 1376 l 1
 78 1462 l 1
 1110 1462 l 1
 1120 1104 l 1
 1014 1104 l 1
 1004 1192 l 2
 994 1282 946 1360 823 1360 c 2
 479 1360 l 1
 479 815 l 1
 973 815 l 1
 973 715 l 1
 479 715 l 1
 479 102 l 1
 874 102 l 2
 1003 102 1055 180 1069 270 c 2
 1083 358 l 1
 1190 358 l 1
 1176 0 l 1
 78 0 l 1
EndSplineSet
Substitution2: "'c2sc' Capitals to Small Capitals lookup 37 subtable" egrave.sc
Substitution2: "'aalt' Access All Alternates lookup 0 subtable" egrave.sc
EndChar

StartChar: Eacute
Encoding: 201 201 139
Width: 1275
GlyphClass: 2
Flags: HW
AnchorPoint: "Anchor-3" 633 731 basechar 0
AnchorPoint: "Anchor-2" 1235 1462 basechar 0
AnchorPoint: "Anchor-1" 639 0 basechar 0
AnchorPoint: "Anchor-0" 639 1907 basechar 0
LayerCount: 2
Fore
SplineSet
545 1606 m 1
 604 1684 680 1815 723 1907 c 1
 942 1907 l 1
 942 1886 l 1
 891 1814 732 1653 623 1579 c 1
 545 1579 l 1
 545 1606 l 1
78 0 m 1
 78 86 l 1
 104 86 l 2
 194 86 272 102 272 223 c 2
 272 1229 l 2
 272 1358 196 1376 104 1376 c 2
 78 1376 l 1
 78 1462 l 1
 1110 1462 l 1
 1120 1104 l 1
 1014 1104 l 1
 1004 1192 l 2
 994 1282 946 1360 823 1360 c 2
 479 1360 l 1
 479 815 l 1
 973 815 l 1
 973 715 l 1
 479 715 l 1
 479 102 l 1
 874 102 l 2
 1003 102 1055 180 1069 270 c 2
 1083 358 l 1
 1190 358 l 1
 1176 0 l 1
 78 0 l 1
EndSplineSet
Substitution2: "'c2sc' Capitals to Small Capitals lookup 37 subtable" eacute.sc
Substitution2: "'aalt' Access All Alternates lookup 0 subtable" eacute.sc
EndChar

StartChar: Ecircumflex
Encoding: 202 202 140
Width: 1275
GlyphClass: 2
Flags: HW
AnchorPoint: "Anchor-3" 633 731 basechar 0
AnchorPoint: "Anchor-2" 1235 1462 basechar 0
AnchorPoint: "Anchor-1" 639 0 basechar 0
AnchorPoint: "Anchor-0" 639 1907 basechar 0
LayerCount: 2
Fore
SplineSet
350 1606 m 1
 413 1684 512 1815 555 1907 c 1
 750 1907 l 1
 793 1815 891 1684 954 1606 c 1
 954 1579 l 1
 874 1579 l 1
 796 1624 712 1697 651 1763 c 1
 590 1697 508 1624 430 1579 c 1
 350 1579 l 1
 350 1606 l 1
78 0 m 1
 78 86 l 1
 104 86 l 2
 194 86 272 102 272 223 c 2
 272 1229 l 2
 272 1358 196 1376 104 1376 c 2
 78 1376 l 1
 78 1462 l 1
 1110 1462 l 1
 1120 1104 l 1
 1014 1104 l 1
 1004 1192 l 2
 994 1282 946 1360 823 1360 c 2
 479 1360 l 1
 479 815 l 1
 973 815 l 1
 973 715 l 1
 479 715 l 1
 479 102 l 1
 874 102 l 2
 1003 102 1055 180 1069 270 c 2
 1083 358 l 1
 1190 358 l 1
 1176 0 l 1
 78 0 l 1
EndSplineSet
Substitution2: "'c2sc' Capitals to Small Capitals lookup 37 subtable" ecircumflex.sc
Substitution2: "'aalt' Access All Alternates lookup 0 subtable" ecircumflex.sc
EndChar

StartChar: Edieresis
Encoding: 203 203 141
Width: 1275
GlyphClass: 2
Flags: HW
AnchorPoint: "Anchor-3" 633 731 basechar 0
AnchorPoint: "Anchor-2" 1235 1462 basechar 0
AnchorPoint: "Anchor-1" 639 0 basechar 0
AnchorPoint: "Anchor-0" 639 1862 basechar 0
LayerCount: 2
Fore
SplineSet
836 1632 m 0
 777 1632 731 1663 731 1747 c 0
 731 1833 777 1862 836 1862 c 0
 893 1862 940 1833 940 1747 c 0
 940 1663 893 1632 836 1632 c 0
446 1632 m 0
 387 1632 342 1663 342 1747 c 0
 342 1833 387 1862 446 1862 c 0
 503 1862 551 1833 551 1747 c 0
 551 1663 503 1632 446 1632 c 0
78 0 m 1
 78 86 l 1
 104 86 l 2
 194 86 272 102 272 223 c 2
 272 1229 l 2
 272 1358 196 1376 104 1376 c 2
 78 1376 l 1
 78 1462 l 1
 1110 1462 l 1
 1120 1104 l 1
 1014 1104 l 1
 1004 1192 l 2
 994 1282 946 1360 823 1360 c 2
 479 1360 l 1
 479 815 l 1
 973 815 l 1
 973 715 l 1
 479 715 l 1
 479 102 l 1
 874 102 l 2
 1003 102 1055 180 1069 270 c 2
 1083 358 l 1
 1190 358 l 1
 1176 0 l 1
 78 0 l 1
EndSplineSet
Substitution2: "'c2sc' Capitals to Small Capitals lookup 37 subtable" edieresis.sc
Substitution2: "'aalt' Access All Alternates lookup 0 subtable" edieresis.sc
EndChar

StartChar: Igrave
Encoding: 204 204 142
Width: 751
GlyphClass: 2
Flags: HW
AnchorPoint: "Anchor-3" 375 731 basechar 0
AnchorPoint: "Anchor-2" 711 1462 basechar 0
AnchorPoint: "Anchor-1" 377 0 basechar 0
AnchorPoint: "Anchor-0" 377 1907 basechar 0
LayerCount: 2
Fore
SplineSet
393 1579 m 1
 284 1653 125 1814 74 1886 c 1
 74 1907 l 1
 293 1907 l 1
 336 1815 412 1684 471 1606 c 1
 471 1579 l 1
 393 1579 l 1
78 0 m 1
 78 86 l 1
 104 86 l 2
 196 86 272 104 272 233 c 2
 272 1229 l 2
 272 1358 196 1376 104 1376 c 2
 78 1376 l 1
 78 1462 l 1
 674 1462 l 1
 674 1376 l 1
 647 1376 l 2
 555 1376 479 1358 479 1229 c 2
 479 233 l 2
 479 104 555 86 647 86 c 2
 674 86 l 1
 674 0 l 1
 78 0 l 1
EndSplineSet
Substitution2: "'c2sc' Capitals to Small Capitals lookup 37 subtable" igrave.sc
Substitution2: "'aalt' Access All Alternates lookup 0 subtable" igrave.sc
EndChar

StartChar: Iacute
Encoding: 205 205 143
Width: 751
GlyphClass: 2
Flags: HW
AnchorPoint: "Anchor-3" 375 731 basechar 0
AnchorPoint: "Anchor-2" 711 1462 basechar 0
AnchorPoint: "Anchor-1" 377 0 basechar 0
AnchorPoint: "Anchor-0" 377 1907 basechar 0
LayerCount: 2
Fore
SplineSet
270 1606 m 1
 329 1684 406 1815 449 1907 c 1
 668 1907 l 1
 668 1886 l 1
 617 1814 457 1653 348 1579 c 1
 270 1579 l 1
 270 1606 l 1
78 0 m 1
 78 86 l 1
 104 86 l 2
 196 86 272 104 272 233 c 2
 272 1229 l 2
 272 1358 196 1376 104 1376 c 2
 78 1376 l 1
 78 1462 l 1
 674 1462 l 1
 674 1376 l 1
 647 1376 l 2
 555 1376 479 1358 479 1229 c 2
 479 233 l 2
 479 104 555 86 647 86 c 2
 674 86 l 1
 674 0 l 1
 78 0 l 1
EndSplineSet
Substitution2: "'c2sc' Capitals to Small Capitals lookup 37 subtable" iacute.sc
Substitution2: "'aalt' Access All Alternates lookup 0 subtable" iacute.sc
EndChar

StartChar: Icircumflex
Encoding: 206 206 144
Width: 751
GlyphClass: 2
Flags: HW
AnchorPoint: "Anchor-3" 375 731 basechar 0
AnchorPoint: "Anchor-2" 711 1462 basechar 0
AnchorPoint: "Anchor-1" 377 0 basechar 0
AnchorPoint: "Anchor-0" 377 1907 basechar 0
LayerCount: 2
Fore
SplineSet
72 1606 m 1
 135 1684 233 1815 276 1907 c 1
 471 1907 l 1
 514 1815 613 1684 676 1606 c 1
 676 1579 l 1
 596 1579 l 1
 518 1624 434 1697 373 1763 c 1
 312 1697 230 1624 152 1579 c 1
 72 1579 l 1
 72 1606 l 1
78 0 m 1
 78 86 l 1
 104 86 l 2
 196 86 272 104 272 233 c 2
 272 1229 l 2
 272 1358 196 1376 104 1376 c 2
 78 1376 l 1
 78 1462 l 1
 674 1462 l 1
 674 1376 l 1
 647 1376 l 2
 555 1376 479 1358 479 1229 c 2
 479 233 l 2
 479 104 555 86 647 86 c 2
 674 86 l 1
 674 0 l 1
 78 0 l 1
EndSplineSet
Substitution2: "'c2sc' Capitals to Small Capitals lookup 37 subtable" icircumflex.sc
Substitution2: "'aalt' Access All Alternates lookup 0 subtable" icircumflex.sc
EndChar

StartChar: Idieresis
Encoding: 207 207 145
Width: 751
GlyphClass: 2
Flags: HW
AnchorPoint: "Anchor-3" 375 731 basechar 0
AnchorPoint: "Anchor-2" 711 1462 basechar 0
AnchorPoint: "Anchor-1" 377 0 basechar 0
AnchorPoint: "Anchor-0" 377 1862 basechar 0
LayerCount: 2
Fore
SplineSet
565 1632 m 0
 506 1632 461 1663 461 1747 c 0
 461 1833 506 1862 565 1862 c 0
 622 1862 670 1833 670 1747 c 0
 670 1663 622 1632 565 1632 c 0
176 1632 m 0
 117 1632 72 1663 72 1747 c 0
 72 1833 117 1862 176 1862 c 0
 233 1862 281 1833 281 1747 c 0
 281 1663 233 1632 176 1632 c 0
78 0 m 1
 78 86 l 1
 104 86 l 2
 196 86 272 104 272 233 c 2
 272 1229 l 2
 272 1358 196 1376 104 1376 c 2
 78 1376 l 1
 78 1462 l 1
 674 1462 l 1
 674 1376 l 1
 647 1376 l 2
 555 1376 479 1358 479 1229 c 2
 479 233 l 2
 479 104 555 86 647 86 c 2
 674 86 l 1
 674 0 l 1
 78 0 l 1
EndSplineSet
Substitution2: "'c2sc' Capitals to Small Capitals lookup 37 subtable" idieresis.sc
Substitution2: "'aalt' Access All Alternates lookup 0 subtable" idieresis.sc
EndChar

StartChar: Eth
Encoding: 208 208 146
Width: 1488
GlyphClass: 2
Flags: HW
AnchorPoint: "Anchor-3" 725 731 basechar 0
AnchorPoint: "Anchor-1" 745 0 basechar 0
AnchorPoint: "Anchor-0" 745 1462 basechar 0
LayerCount: 2
Fore
SplineSet
78 0 m 1
 78 86 l 1
 104 86 l 2
 196 86 272 104 272 233 c 2
 272 715 l 1
 78 715 l 1
 78 815 l 1
 272 815 l 1
 272 1237 l 2
 272 1358 194 1376 104 1376 c 2
 78 1376 l 1
 78 1462 l 1
 705 1462 l 2
 1127 1462 1372 1198 1372 733 c 0
 1372 284 1149 0 705 0 c 2
 78 0 l 1
657 104 m 2
 983 104 1145 327 1145 733 c 0
 1145 1139 983 1360 659 1360 c 2
 479 1360 l 1
 479 815 l 1
 827 815 l 1
 827 715 l 1
 479 715 l 1
 479 104 l 1
 657 104 l 2
EndSplineSet
Substitution2: "'c2sc' Capitals to Small Capitals lookup 37 subtable" eth.sc
Substitution2: "'aalt' Access All Alternates lookup 0 subtable" eth.sc
EndChar

StartChar: Ntilde
Encoding: 209 209 147
Width: 1562
GlyphClass: 2
Flags: HW
AnchorPoint: "Anchor-3" 791 731 basechar 0
AnchorPoint: "Anchor-2" 1522 1462 basechar 0
AnchorPoint: "Anchor-1" 782 0 basechar 0
AnchorPoint: "Anchor-0" 782 1841 basechar 0
LayerCount: 2
Fore
SplineSet
956 1579 m 0
 809 1579 723 1708 635 1708 c 0
 553 1708 543 1654 535 1599 c 1
 442 1599 l 1
 450 1724 512 1841 659 1841 c 0
 804 1841 893 1712 979 1712 c 0
 1059 1712 1071 1766 1079 1821 c 1
 1171 1821 l 1
 1163 1696 1101 1579 956 1579 c 0
78 0 m 1
 78 86 l 1
 104 86 l 2
 196 86 272 104 272 233 c 2
 272 1237 l 2
 272 1358 194 1376 104 1376 c 2
 78 1376 l 1
 78 1462 l 1
 453 1462 l 1
 1186 330 l 1
 1186 1237 l 2
 1186 1358 1108 1376 1018 1376 c 2
 991 1376 l 1
 991 1462 l 1
 1505 1462 l 1
 1505 1376 l 1
 1479 1376 l 2
 1387 1376 1311 1358 1311 1229 c 2
 1311 0 l 1
 1165 0 l 1
 397 1180 l 1
 397 233 l 2
 397 104 473 86 565 86 c 2
 592 86 l 1
 592 0 l 1
 78 0 l 1
EndSplineSet
Substitution2: "'c2sc' Capitals to Small Capitals lookup 37 subtable" ntilde.sc
Substitution2: "'aalt' Access All Alternates lookup 0 subtable" ntilde.sc
EndChar

StartChar: Ograve
Encoding: 210 210 148
Width: 1519
GlyphClass: 2
Flags: HW
AnchorPoint: "Anchor-3" 760 731 basechar 0
AnchorPoint: "Anchor-2" 1479 1462 basechar 0
AnchorPoint: "Anchor-1" 760 0 basechar 0
AnchorPoint: "Anchor-0" 760 1907 basechar 0
LayerCount: 2
Fore
SplineSet
782 1579 m 1
 673 1653 514 1814 463 1886 c 1
 463 1907 l 1
 682 1907 l 1
 725 1815 801 1684 860 1606 c 1
 860 1579 l 1
 782 1579 l 1
760 -20 m 0
 326 -20 115 280 115 735 c 0
 115 1188 326 1485 762 1485 c 0
 1174 1485 1403 1188 1403 733 c 0
 1403 280 1174 -20 760 -20 c 0
760 90 m 0
 1065 90 1176 327 1176 733 c 0
 1176 1139 1065 1374 762 1374 c 0
 457 1374 342 1139 342 733 c 0
 342 327 457 90 760 90 c 0
EndSplineSet
Substitution2: "'c2sc' Capitals to Small Capitals lookup 37 subtable" ograve.sc
Substitution2: "'aalt' Access All Alternates lookup 0 subtable" ograve.sc
EndChar

StartChar: Oacute
Encoding: 211 211 149
Width: 1519
GlyphClass: 2
Flags: HW
AnchorPoint: "Anchor-3" 760 731 basechar 0
AnchorPoint: "Anchor-2" 1479 1462 basechar 0
AnchorPoint: "Anchor-1" 760 0 basechar 0
AnchorPoint: "Anchor-0" 760 1907 basechar 0
LayerCount: 2
Fore
SplineSet
649 1606 m 1
 708 1684 784 1815 827 1907 c 1
 1047 1907 l 1
 1047 1886 l 1
 996 1814 836 1653 727 1579 c 1
 649 1579 l 1
 649 1606 l 1
760 -20 m 0
 326 -20 115 280 115 735 c 0
 115 1188 326 1485 762 1485 c 0
 1174 1485 1403 1188 1403 733 c 0
 1403 280 1174 -20 760 -20 c 0
760 90 m 0
 1065 90 1176 327 1176 733 c 0
 1176 1139 1065 1374 762 1374 c 0
 457 1374 342 1139 342 733 c 0
 342 327 457 90 760 90 c 0
EndSplineSet
Substitution2: "'c2sc' Capitals to Small Capitals lookup 37 subtable" oacute.sc
Substitution2: "'aalt' Access All Alternates lookup 0 subtable" oacute.sc
EndChar

StartChar: Ocircumflex
Encoding: 212 212 150
Width: 1519
GlyphClass: 2
Flags: HW
AnchorPoint: "Anchor-3" 760 731 basechar 0
AnchorPoint: "Anchor-2" 1479 1462 basechar 0
AnchorPoint: "Anchor-1" 760 0 basechar 0
AnchorPoint: "Anchor-0" 760 1907 basechar 0
LayerCount: 2
Fore
SplineSet
459 1606 m 1
 522 1684 621 1815 664 1907 c 1
 858 1907 l 1
 901 1815 1000 1684 1063 1606 c 1
 1063 1579 l 1
 983 1579 l 1
 905 1624 821 1697 760 1763 c 1
 699 1697 617 1624 539 1579 c 1
 459 1579 l 1
 459 1606 l 1
760 -20 m 0
 326 -20 115 280 115 735 c 0
 115 1188 326 1485 762 1485 c 0
 1174 1485 1403 1188 1403 733 c 0
 1403 280 1174 -20 760 -20 c 0
760 90 m 0
 1065 90 1176 327 1176 733 c 0
 1176 1139 1065 1374 762 1374 c 0
 457 1374 342 1139 342 733 c 0
 342 327 457 90 760 90 c 0
EndSplineSet
Substitution2: "'c2sc' Capitals to Small Capitals lookup 37 subtable" ocircumflex.sc
Substitution2: "'aalt' Access All Alternates lookup 0 subtable" ocircumflex.sc
EndChar

StartChar: Otilde
Encoding: 213 213 151
Width: 1519
GlyphClass: 2
Flags: HW
AnchorPoint: "Anchor-3" 760 731 basechar 0
AnchorPoint: "Anchor-2" 1479 1462 basechar 0
AnchorPoint: "Anchor-1" 760 0 basechar 0
AnchorPoint: "Anchor-0" 760 1841 basechar 0
LayerCount: 2
Fore
SplineSet
895 1579 m 0
 748 1579 661 1708 573 1708 c 0
 491 1708 481 1654 473 1599 c 1
 381 1599 l 1
 389 1724 451 1841 598 1841 c 0
 743 1841 832 1712 918 1712 c 0
 998 1712 1010 1766 1018 1821 c 1
 1110 1821 l 1
 1102 1696 1040 1579 895 1579 c 0
760 -20 m 0
 326 -20 115 280 115 735 c 0
 115 1188 326 1485 762 1485 c 0
 1174 1485 1403 1188 1403 733 c 0
 1403 280 1174 -20 760 -20 c 0
760 90 m 0
 1065 90 1176 327 1176 733 c 0
 1176 1139 1065 1374 762 1374 c 0
 457 1374 342 1139 342 733 c 0
 342 327 457 90 760 90 c 0
EndSplineSet
Substitution2: "'c2sc' Capitals to Small Capitals lookup 37 subtable" otilde.sc
Substitution2: "'aalt' Access All Alternates lookup 0 subtable" otilde.sc
EndChar

StartChar: Odieresis
Encoding: 214 214 152
Width: 1519
GlyphClass: 2
Flags: HW
AnchorPoint: "Anchor-3" 760 731 basechar 0
AnchorPoint: "Anchor-2" 1479 1462 basechar 0
AnchorPoint: "Anchor-1" 760 0 basechar 0
AnchorPoint: "Anchor-0" 760 1862 basechar 0
LayerCount: 2
Fore
SplineSet
948 1632 m 0
 889 1632 844 1663 844 1747 c 0
 844 1833 889 1862 948 1862 c 0
 1005 1862 1053 1833 1053 1747 c 0
 1053 1663 1005 1632 948 1632 c 0
559 1632 m 0
 500 1632 455 1663 455 1747 c 0
 455 1833 500 1862 559 1862 c 0
 616 1862 664 1833 664 1747 c 0
 664 1663 616 1632 559 1632 c 0
760 -20 m 0
 326 -20 115 280 115 735 c 0
 115 1188 326 1485 762 1485 c 0
 1174 1485 1403 1188 1403 733 c 0
 1403 280 1174 -20 760 -20 c 0
760 90 m 0
 1065 90 1176 327 1176 733 c 0
 1176 1139 1065 1374 762 1374 c 0
 457 1374 342 1139 342 733 c 0
 342 327 457 90 760 90 c 0
EndSplineSet
Substitution2: "'c2sc' Capitals to Small Capitals lookup 37 subtable" odieresis.sc
Substitution2: "'aalt' Access All Alternates lookup 0 subtable" odieresis.sc
EndChar

StartChar: multiply
Encoding: 215 215 153
Width: 1144
GlyphClass: 1
Flags: HW
LayerCount: 2
Fore
SplineSet
231 307 m 1
 145 395 l 1
 485 735 l 1
 145 1073 l 1
 231 1159 l 1
 571 819 l 1
 911 1161 l 1
 997 1073 l 1
 657 733 l 1
 997 393 l 1
 911 307 l 1
 571 647 l 1
 231 307 l 1
EndSplineSet
EndChar

StartChar: Oslash
Encoding: 216 216 154
Width: 1519
GlyphClass: 2
Flags: HW
AnchorPoint: "Anchor-3" 758 731 basechar 0
AnchorPoint: "Anchor-1" 760 0 basechar 0
AnchorPoint: "Anchor-0" 760 1462 basechar 0
LayerCount: 2
Fore
SplineSet
354 106 m 1
 192 235 115 456 115 735 c 0
 115 1188 326 1485 762 1485 c 0
 883 1485 987 1458 1075 1411 c 1
 1151 1546 l 1
 1270 1546 l 1
 1163 1354 l 1
 1319 1225 1403 1007 1403 733 c 0
 1403 280 1174 -20 760 -20 c 0
 637 -20 530 4 442 49 c 1
 371 -82 l 1
 250 -82 l 1
 354 106 l 1
1010 1292 m 1
 949 1345 866 1374 762 1374 c 0
 457 1374 342 1139 342 733 c 0
 342 528 370 369 438 258 c 1
 1010 1292 l 1
760 90 m 0
 1065 90 1176 327 1176 733 c 0
 1176 936 1147 1095 1081 1206 c 1
 510 170 l 1
 573 117 656 90 760 90 c 0
EndSplineSet
Substitution2: "'c2sc' Capitals to Small Capitals lookup 37 subtable" oslash.sc
Substitution2: "'aalt' Access All Alternates lookup 0 subtable" oslash.sc
EndChar

StartChar: Ugrave
Encoding: 217 217 155
Width: 1468
GlyphClass: 2
Flags: HW
AnchorPoint: "Anchor-3" 733 721 basechar 0
AnchorPoint: "Anchor-2" 1440 1462 basechar 0
AnchorPoint: "Anchor-1" 735 0 basechar 0
AnchorPoint: "Anchor-0" 735 1907 basechar 0
LayerCount: 2
Fore
SplineSet
774 1579 m 1
 665 1653 506 1814 455 1886 c 1
 455 1907 l 1
 674 1907 l 1
 717 1815 793 1684 852 1606 c 1
 852 1579 l 1
 774 1579 l 1
741 -20 m 0
 417 -20 225 108 225 442 c 2
 225 1237 l 2
 225 1358 147 1376 57 1376 c 2
 31 1376 l 1
 31 1462 l 1
 627 1462 l 1
 627 1376 l 1
 600 1376 l 2
 508 1376 432 1358 432 1229 c 2
 432 430 l 2
 432 192 575 102 774 102 c 0
 1010 102 1118 236 1118 422 c 2
 1118 1237 l 2
 1118 1358 1040 1376 950 1376 c 2
 924 1376 l 1
 924 1462 l 1
 1438 1462 l 1
 1438 1376 l 1
 1411 1376 l 2
 1319 1376 1243 1358 1243 1229 c 2
 1243 418 l 2
 1243 146 1067 -20 741 -20 c 0
EndSplineSet
Substitution2: "'c2sc' Capitals to Small Capitals lookup 37 subtable" ugrave.sc
Substitution2: "'aalt' Access All Alternates lookup 0 subtable" ugrave.sc
EndChar

StartChar: Uacute
Encoding: 218 218 156
Width: 1468
GlyphClass: 2
Flags: HW
AnchorPoint: "Anchor-3" 733 721 basechar 0
AnchorPoint: "Anchor-2" 1440 1462 basechar 0
AnchorPoint: "Anchor-1" 735 0 basechar 0
AnchorPoint: "Anchor-0" 735 1907 basechar 0
LayerCount: 2
Fore
SplineSet
649 1606 m 1
 708 1684 784 1815 827 1907 c 1
 1047 1907 l 1
 1047 1886 l 1
 996 1814 836 1653 727 1579 c 1
 649 1579 l 1
 649 1606 l 1
741 -20 m 0
 417 -20 225 108 225 442 c 2
 225 1237 l 2
 225 1358 147 1376 57 1376 c 2
 31 1376 l 1
 31 1462 l 1
 627 1462 l 1
 627 1376 l 1
 600 1376 l 2
 508 1376 432 1358 432 1229 c 2
 432 430 l 2
 432 192 575 102 774 102 c 0
 1010 102 1118 236 1118 422 c 2
 1118 1237 l 2
 1118 1358 1040 1376 950 1376 c 2
 924 1376 l 1
 924 1462 l 1
 1438 1462 l 1
 1438 1376 l 1
 1411 1376 l 2
 1319 1376 1243 1358 1243 1229 c 2
 1243 418 l 2
 1243 146 1067 -20 741 -20 c 0
EndSplineSet
Substitution2: "'c2sc' Capitals to Small Capitals lookup 37 subtable" uacute.sc
Substitution2: "'aalt' Access All Alternates lookup 0 subtable" uacute.sc
EndChar

StartChar: Ucircumflex
Encoding: 219 219 157
Width: 1468
GlyphClass: 2
Flags: HW
AnchorPoint: "Anchor-3" 733 721 basechar 0
AnchorPoint: "Anchor-2" 1440 1462 basechar 0
AnchorPoint: "Anchor-1" 735 0 basechar 0
AnchorPoint: "Anchor-0" 735 1907 basechar 0
LayerCount: 2
Fore
SplineSet
471 1606 m 1
 534 1684 633 1815 676 1907 c 1
 870 1907 l 1
 913 1815 1012 1684 1075 1606 c 1
 1075 1579 l 1
 995 1579 l 1
 917 1624 833 1697 772 1763 c 1
 711 1697 629 1624 551 1579 c 1
 471 1579 l 1
 471 1606 l 1
741 -20 m 0
 417 -20 225 108 225 442 c 2
 225 1237 l 2
 225 1358 147 1376 57 1376 c 2
 31 1376 l 1
 31 1462 l 1
 627 1462 l 1
 627 1376 l 1
 600 1376 l 2
 508 1376 432 1358 432 1229 c 2
 432 430 l 2
 432 192 575 102 774 102 c 0
 1010 102 1118 236 1118 422 c 2
 1118 1237 l 2
 1118 1358 1040 1376 950 1376 c 2
 924 1376 l 1
 924 1462 l 1
 1438 1462 l 1
 1438 1376 l 1
 1411 1376 l 2
 1319 1376 1243 1358 1243 1229 c 2
 1243 418 l 2
 1243 146 1067 -20 741 -20 c 0
EndSplineSet
Substitution2: "'c2sc' Capitals to Small Capitals lookup 37 subtable" ucircumflex.sc
Substitution2: "'aalt' Access All Alternates lookup 0 subtable" ucircumflex.sc
EndChar

StartChar: Udieresis
Encoding: 220 220 158
Width: 1468
GlyphClass: 2
Flags: HW
AnchorPoint: "Anchor-3" 733 721 basechar 0
AnchorPoint: "Anchor-2" 1440 1462 basechar 0
AnchorPoint: "Anchor-1" 735 0 basechar 0
AnchorPoint: "Anchor-0" 735 1862 basechar 0
LayerCount: 2
Fore
SplineSet
971 1632 m 0
 912 1632 866 1663 866 1747 c 0
 866 1833 912 1862 971 1862 c 0
 1028 1862 1075 1833 1075 1747 c 0
 1075 1663 1028 1632 971 1632 c 0
582 1632 m 0
 523 1632 477 1663 477 1747 c 0
 477 1833 523 1862 582 1862 c 0
 639 1862 686 1833 686 1747 c 0
 686 1663 639 1632 582 1632 c 0
741 -20 m 0
 417 -20 225 108 225 442 c 2
 225 1237 l 2
 225 1358 147 1376 57 1376 c 2
 31 1376 l 1
 31 1462 l 1
 627 1462 l 1
 627 1376 l 1
 600 1376 l 2
 508 1376 432 1358 432 1229 c 2
 432 430 l 2
 432 192 575 102 774 102 c 0
 1010 102 1118 236 1118 422 c 2
 1118 1237 l 2
 1118 1358 1040 1376 950 1376 c 2
 924 1376 l 1
 924 1462 l 1
 1438 1462 l 1
 1438 1376 l 1
 1411 1376 l 2
 1319 1376 1243 1358 1243 1229 c 2
 1243 418 l 2
 1243 146 1067 -20 741 -20 c 0
EndSplineSet
Substitution2: "'c2sc' Capitals to Small Capitals lookup 37 subtable" udieresis.sc
Substitution2: "'aalt' Access All Alternates lookup 0 subtable" udieresis.sc
EndChar

StartChar: Yacute
Encoding: 221 221 159
Width: 1280
GlyphClass: 2
Flags: HW
AnchorPoint: "Anchor-3" 637 731 basechar 0
AnchorPoint: "Anchor-2" 1239 1462 basechar 0
AnchorPoint: "Anchor-1" 641 0 basechar 0
AnchorPoint: "Anchor-0" 641 1907 basechar 0
LayerCount: 2
Fore
SplineSet
567 1606 m 1
 626 1684 702 1815 745 1907 c 1
 965 1907 l 1
 965 1886 l 1
 914 1814 754 1653 645 1579 c 1
 567 1579 l 1
 567 1606 l 1
326 0 m 1
 326 86 l 1
 373 86 l 2
 463 86 541 102 541 223 c 2
 541 610 l 1
 162 1268 l 2
 117 1346 86 1376 16 1376 c 2
 -10 1376 l 1
 -10 1462 l 1
 553 1462 l 1
 553 1376 l 1
 477 1376 l 2
 403 1376 387 1346 387 1311 c 0
 387 1272 408 1231 424 1202 c 2
 575 928 l 2
 622 844 655 757 678 694 c 1
 703 751 754 842 801 928 c 2
 932 1163 l 2
 959 1210 969 1253 969 1286 c 0
 969 1345 924 1376 846 1376 c 2
 786 1376 l 1
 786 1462 l 1
 1286 1462 l 1
 1286 1376 l 1
 1262 1376 l 2
 1205 1376 1162 1340 1092 1217 c 2
 748 610 l 1
 748 233 l 2
 748 104 823 86 915 86 c 2
 963 86 l 1
 963 0 l 1
 326 0 l 1
EndSplineSet
Substitution2: "'c2sc' Capitals to Small Capitals lookup 37 subtable" yacute.sc
Substitution2: "'aalt' Access All Alternates lookup 0 subtable" yacute.sc
EndChar

StartChar: Thorn
Encoding: 222 222 160
Width: 1236
GlyphClass: 2
Flags: HW
AnchorPoint: "Anchor-3" 616 731 basechar 0
AnchorPoint: "Anchor-1" 618 0 basechar 0
AnchorPoint: "Anchor-0" 618 1462 basechar 0
LayerCount: 2
Fore
SplineSet
78 0 m 1
 78 86 l 1
 104 86 l 2
 196 86 272 104 272 233 c 2
 272 1229 l 2
 272 1358 196 1376 104 1376 c 2
 78 1376 l 1
 78 1462 l 1
 694 1462 l 1
 694 1376 l 1
 647 1376 l 2
 555 1376 479 1358 479 1229 c 2
 479 1167 l 1
 653 1167 l 2
 997 1167 1157 1026 1157 760 c 0
 1157 516 1014 315 608 315 c 2
 479 315 l 1
 479 233 l 2
 479 104 555 86 647 86 c 2
 694 86 l 1
 694 0 l 1
 78 0 l 1
588 412 m 2
 836 412 936 492 936 752 c 0
 936 981 849 1069 618 1069 c 2
 479 1069 l 1
 479 412 l 1
 588 412 l 2
EndSplineSet
Substitution2: "'c2sc' Capitals to Small Capitals lookup 37 subtable" thorn.sc
Substitution2: "'aalt' Access All Alternates lookup 0 subtable" thorn.sc
EndChar

StartChar: germandbls
Encoding: 223 223 161
Width: 1325
GlyphClass: 2
Flags: HW
AnchorPoint: "Anchor-3" 641 770 basechar 0
AnchorPoint: "Anchor-1" 664 0 basechar 0
AnchorPoint: "Anchor-0" 664 1563 basechar 0
LayerCount: 2
Fore
SplineSet
889 -20 m 0
 699 -20 569 54 569 197 c 0
 569 308 643 338 686 338 c 1
 686 195 737 78 887 78 c 0
 987 78 1059 139 1059 264 c 0
 1059 354 1026 414 860 494 c 0
 688 578 600 651 600 825 c 0
 600 991 707 1102 938 1102 c 1
 938 1360 866 1470 682 1470 c 0
 516 1470 434 1360 434 1188 c 2
 434 0 l 1
 47 0 l 1
 47 86 l 1
 74 86 l 2
 166 86 242 104 242 233 c 2
 242 1001 l 1
 76 1001 l 1
 76 1098 l 1
 242 1098 l 1
 242 1159 l 2
 242 1460 434 1563 684 1563 c 0
 1024 1563 1128 1366 1130 1006 c 1
 981 1006 l 2
 836 1006 770 951 770 840 c 0
 770 756 819 711 983 635 c 0
 1188 541 1235 422 1235 299 c 0
 1235 90 1104 -20 889 -20 c 0
EndSplineSet
Substitution2: "'smcp' Lowercase to Small Capitals lookup 38 subtable" germandbls.sc
Substitution2: "'aalt' Access All Alternates lookup 0 subtable" germandbls.sc
EndChar

StartChar: agrave
Encoding: 224 224 162
Width: 1153
GlyphClass: 2
Flags: HW
AnchorPoint: "Anchor-3" 584 549 basechar 0
AnchorPoint: "Anchor-2" 1112 1098 basechar 0
AnchorPoint: "Anchor-1" 578 0 basechar 0
AnchorPoint: "Anchor-0" 578 1569 basechar 0
LayerCount: 2
Fore
SplineSet
588 1241 m 1
 479 1315 319 1476 268 1548 c 1
 268 1569 l 1
 487 1569 l 1
 530 1477 607 1346 666 1268 c 1
 666 1241 l 1
 588 1241 l 1
420 -20 m 0
 238 -20 102 84 102 307 c 0
 102 524 256 625 569 635 c 2
 739 641 l 1
 739 764 l 2
 739 911 717 1016 549 1016 c 0
 391 1016 362 922 362 793 c 1
 247 793 188 828 188 922 c 0
 188 1063 354 1118 557 1118 c 0
 807 1118 932 1024 932 764 c 2
 932 233 l 2
 932 118 967 86 1059 86 c 2
 1065 86 l 1
 1065 0 l 1
 788 0 l 1
 756 176 l 1
 739 176 l 1
 653 61 590 -20 420 -20 c 0
467 106 m 0
 633 106 739 217 739 391 c 2
 739 557 l 1
 608 551 l 2
 377 541 301 457 301 297 c 0
 301 170 354 106 467 106 c 0
EndSplineSet
Substitution2: "'smcp' Lowercase to Small Capitals lookup 38 subtable" agrave.sc
Substitution2: "'aalt' Access All Alternates lookup 0 subtable" agrave.sc
EndChar

StartChar: aacute
Encoding: 225 225 163
Width: 1153
GlyphClass: 2
Flags: HW
AnchorPoint: "Anchor-3" 584 549 basechar 0
AnchorPoint: "Anchor-2" 1112 1098 basechar 0
AnchorPoint: "Anchor-1" 578 0 basechar 0
AnchorPoint: "Anchor-0" 578 1569 basechar 0
LayerCount: 2
Fore
SplineSet
471 1268 m 1
 530 1346 606 1477 649 1569 c 1
 868 1569 l 1
 868 1548 l 1
 817 1476 658 1315 549 1241 c 1
 471 1241 l 1
 471 1268 l 1
420 -20 m 0
 238 -20 102 84 102 307 c 0
 102 524 256 625 569 635 c 2
 739 641 l 1
 739 764 l 2
 739 911 717 1016 549 1016 c 0
 391 1016 362 922 362 793 c 1
 247 793 188 828 188 922 c 0
 188 1063 354 1118 557 1118 c 0
 807 1118 932 1024 932 764 c 2
 932 233 l 2
 932 118 967 86 1059 86 c 2
 1065 86 l 1
 1065 0 l 1
 788 0 l 1
 756 176 l 1
 739 176 l 1
 653 61 590 -20 420 -20 c 0
467 106 m 0
 633 106 739 217 739 391 c 2
 739 557 l 1
 608 551 l 2
 377 541 301 457 301 297 c 0
 301 170 354 106 467 106 c 0
EndSplineSet
Substitution2: "'smcp' Lowercase to Small Capitals lookup 38 subtable" aacute.sc
Substitution2: "'aalt' Access All Alternates lookup 0 subtable" aacute.sc
EndChar

StartChar: acircumflex
Encoding: 226 226 164
Width: 1153
GlyphClass: 2
Flags: HW
AnchorPoint: "Anchor-3" 584 549 basechar 0
AnchorPoint: "Anchor-2" 1112 1098 basechar 0
AnchorPoint: "Anchor-1" 578 0 basechar 0
AnchorPoint: "Anchor-0" 578 1569 basechar 0
LayerCount: 2
Fore
SplineSet
260 1268 m 1
 323 1346 422 1477 465 1569 c 1
 659 1569 l 1
 702 1477 801 1346 864 1268 c 1
 864 1241 l 1
 784 1241 l 1
 706 1286 622 1359 561 1425 c 1
 500 1359 418 1286 340 1241 c 1
 260 1241 l 1
 260 1268 l 1
420 -20 m 0
 238 -20 102 84 102 307 c 0
 102 524 256 625 569 635 c 2
 739 641 l 1
 739 764 l 2
 739 911 717 1016 549 1016 c 0
 391 1016 362 922 362 793 c 1
 247 793 188 828 188 922 c 0
 188 1063 354 1118 557 1118 c 0
 807 1118 932 1024 932 764 c 2
 932 233 l 2
 932 118 967 86 1059 86 c 2
 1065 86 l 1
 1065 0 l 1
 788 0 l 1
 756 176 l 1
 739 176 l 1
 653 61 590 -20 420 -20 c 0
467 106 m 0
 633 106 739 217 739 391 c 2
 739 557 l 1
 608 551 l 2
 377 541 301 457 301 297 c 0
 301 170 354 106 467 106 c 0
EndSplineSet
Substitution2: "'smcp' Lowercase to Small Capitals lookup 38 subtable" acircumflex.sc
Substitution2: "'aalt' Access All Alternates lookup 0 subtable" acircumflex.sc
EndChar

StartChar: atilde
Encoding: 227 227 165
Width: 1153
GlyphClass: 2
Flags: HW
AnchorPoint: "Anchor-3" 584 549 basechar 0
AnchorPoint: "Anchor-2" 1112 1098 basechar 0
AnchorPoint: "Anchor-1" 578 0 basechar 0
AnchorPoint: "Anchor-0" 578 1503 basechar 0
LayerCount: 2
Fore
SplineSet
719 1241 m 0
 572 1241 485 1370 397 1370 c 0
 315 1370 305 1317 297 1262 c 1
 205 1262 l 1
 213 1387 275 1503 422 1503 c 0
 567 1503 655 1374 741 1374 c 0
 821 1374 834 1428 842 1483 c 1
 934 1483 l 1
 926 1358 864 1241 719 1241 c 0
420 -20 m 0
 238 -20 102 84 102 307 c 0
 102 524 256 625 569 635 c 2
 739 641 l 1
 739 764 l 2
 739 911 717 1016 549 1016 c 0
 391 1016 362 922 362 793 c 1
 247 793 188 828 188 922 c 0
 188 1063 354 1118 557 1118 c 0
 807 1118 932 1024 932 764 c 2
 932 233 l 2
 932 118 967 86 1059 86 c 2
 1065 86 l 1
 1065 0 l 1
 788 0 l 1
 756 176 l 1
 739 176 l 1
 653 61 590 -20 420 -20 c 0
467 106 m 0
 633 106 739 217 739 391 c 2
 739 557 l 1
 608 551 l 2
 377 541 301 457 301 297 c 0
 301 170 354 106 467 106 c 0
EndSplineSet
Substitution2: "'smcp' Lowercase to Small Capitals lookup 38 subtable" atilde.sc
Substitution2: "'aalt' Access All Alternates lookup 0 subtable" atilde.sc
EndChar

StartChar: adieresis
Encoding: 228 228 166
Width: 1153
GlyphClass: 2
Flags: HW
AnchorPoint: "Anchor-3" 584 549 basechar 0
AnchorPoint: "Anchor-2" 1112 1098 basechar 0
AnchorPoint: "Anchor-1" 578 0 basechar 0
AnchorPoint: "Anchor-0" 578 1524 basechar 0
LayerCount: 2
Fore
SplineSet
750 1294 m 0
 691 1294 645 1325 645 1409 c 0
 645 1495 691 1524 750 1524 c 0
 807 1524 854 1495 854 1409 c 0
 854 1325 807 1294 750 1294 c 0
360 1294 m 0
 301 1294 256 1325 256 1409 c 0
 256 1495 301 1524 360 1524 c 0
 417 1524 465 1495 465 1409 c 0
 465 1325 417 1294 360 1294 c 0
420 -20 m 0
 238 -20 102 84 102 307 c 0
 102 524 256 625 569 635 c 2
 739 641 l 1
 739 764 l 2
 739 911 717 1016 549 1016 c 0
 391 1016 362 922 362 793 c 1
 247 793 188 828 188 922 c 0
 188 1063 354 1118 557 1118 c 0
 807 1118 932 1024 932 764 c 2
 932 233 l 2
 932 118 967 86 1059 86 c 2
 1065 86 l 1
 1065 0 l 1
 788 0 l 1
 756 176 l 1
 739 176 l 1
 653 61 590 -20 420 -20 c 0
467 106 m 0
 633 106 739 217 739 391 c 2
 739 557 l 1
 608 551 l 2
 377 541 301 457 301 297 c 0
 301 170 354 106 467 106 c 0
EndSplineSet
Substitution2: "'smcp' Lowercase to Small Capitals lookup 38 subtable" adieresis.sc
Substitution2: "'aalt' Access All Alternates lookup 0 subtable" adieresis.sc
EndChar

StartChar: aring
Encoding: 229 229 167
Width: 1153
GlyphClass: 2
Flags: HW
AnchorPoint: "Anchor-3" 584 549 basechar 0
AnchorPoint: "Anchor-2" 1112 1098 basechar 0
AnchorPoint: "Anchor-1" 578 0 basechar 0
AnchorPoint: "Anchor-0" 578 1667 basechar 0
LayerCount: 2
Fore
SplineSet
573 1221 m 0
 436 1221 328 1299 328 1444 c 0
 328 1589 436 1667 573 1667 c 0
 710 1667 819 1589 819 1444 c 0
 819 1299 710 1221 573 1221 c 0
573 1321 m 0
 647 1321 709 1356 709 1444 c 0
 709 1532 647 1567 573 1567 c 0
 499 1567 438 1532 438 1444 c 0
 438 1356 499 1321 573 1321 c 0
420 -20 m 0
 238 -20 102 84 102 307 c 0
 102 524 256 625 569 635 c 2
 739 641 l 1
 739 764 l 2
 739 911 717 1016 549 1016 c 0
 391 1016 362 922 362 793 c 1
 247 793 188 828 188 922 c 0
 188 1063 354 1118 557 1118 c 0
 807 1118 932 1024 932 764 c 2
 932 233 l 2
 932 118 967 86 1059 86 c 2
 1065 86 l 1
 1065 0 l 1
 788 0 l 1
 756 176 l 1
 739 176 l 1
 653 61 590 -20 420 -20 c 0
467 106 m 0
 633 106 739 217 739 391 c 2
 739 557 l 1
 608 551 l 2
 377 541 301 457 301 297 c 0
 301 170 354 106 467 106 c 0
EndSplineSet
Substitution2: "'smcp' Lowercase to Small Capitals lookup 38 subtable" aring.sc
Substitution2: "'aalt' Access All Alternates lookup 0 subtable" aring.sc
EndChar

StartChar: ae
Encoding: 230 230 168
Width: 1722
GlyphClass: 2
Flags: HW
AnchorPoint: "Anchor-3" 860 549 basechar 0
AnchorPoint: "Anchor-1" 862 0 basechar 0
AnchorPoint: "Anchor-0" 862 1098 basechar 0
LayerCount: 2
Fore
SplineSet
420 -20 m 0
 238 -20 102 84 102 307 c 0
 102 524 256 625 569 635 c 2
 739 641 l 1
 739 764 l 2
 739 911 717 1016 549 1016 c 0
 391 1016 362 922 362 793 c 1
 247 793 188 828 188 922 c 0
 188 1063 354 1118 557 1118 c 0
 711 1118 818 1081 877 993 c 1
 953 1075 1059 1118 1194 1118 c 0
 1458 1118 1620 953 1620 629 c 2
 1620 535 l 1
 938 535 l 1
 944 236 1038 109 1255 109 c 0
 1374 109 1483 172 1536 252 c 1
 1554 244 1575 217 1575 182 c 0
 1575 100 1459 -20 1221 -20 c 0
 1022 -20 881 61 805 213 c 1
 754 90 623 -20 420 -20 c 0
1413 645 m 1
 1413 862 1354 1008 1190 1008 c 0
 1038 1008 956 881 942 645 c 1
 1413 645 l 1
467 106 m 0
 633 106 739 217 739 391 c 2
 739 557 l 1
 608 551 l 2
 377 541 301 457 301 297 c 0
 301 170 354 106 467 106 c 0
EndSplineSet
Substitution2: "'smcp' Lowercase to Small Capitals lookup 38 subtable" ae.sc
Substitution2: "'aalt' Access All Alternates lookup 0 subtable" ae.sc
EndChar

StartChar: ccedilla
Encoding: 231 231 169
Width: 1007
GlyphClass: 2
Flags: HW
AnchorPoint: "Anchor-3" 520 549 basechar 0
AnchorPoint: "Anchor-2" 967 1098 basechar 0
AnchorPoint: "Anchor-1" 504 -492 basechar 0
AnchorPoint: "Anchor-0" 504 1098 basechar 0
LayerCount: 2
Fore
SplineSet
522 -492 m 0
 479 -492 414 -483 365 -469 c 1
 365 -365 l 1
 414 -375 467 -381 504 -381 c 0
 582 -381 629 -336 629 -266 c 0
 629 -186 563 -147 475 -141 c 1
 508 -16 l 1
 275 11 113 176 113 543 c 0
 113 981 309 1118 569 1118 c 0
 739 1118 926 1050 926 909 c 0
 926 815 864 780 743 780 c 1
 743 909 706 1016 569 1016 c 0
 411 1016 311 912 311 545 c 0
 311 254 402 113 621 113 c 0
 748 113 846 172 893 256 c 1
 913 240 928 213 928 176 c 0
 928 86 819 -12 606 -20 c 1
 594 -70 l 1
 727 -80 793 -149 793 -258 c 0
 793 -403 696 -492 522 -492 c 0
EndSplineSet
Substitution2: "'smcp' Lowercase to Small Capitals lookup 38 subtable" ccedilla.sc
Substitution2: "'aalt' Access All Alternates lookup 0 subtable" ccedilla.sc
EndChar

StartChar: egrave
Encoding: 232 232 170
Width: 1095
GlyphClass: 2
Flags: HW
AnchorPoint: "Anchor-3" 553 549 basechar 0
AnchorPoint: "Anchor-2" 1055 1098 basechar 0
AnchorPoint: "Anchor-1" 549 0 basechar 0
AnchorPoint: "Anchor-0" 549 1569 basechar 0
LayerCount: 2
Fore
SplineSet
604 1241 m 1
 495 1315 336 1476 285 1548 c 1
 285 1569 l 1
 504 1569 l 1
 547 1477 623 1346 682 1268 c 1
 682 1241 l 1
 604 1241 l 1
588 -20 m 0
 291 -20 113 187 113 541 c 0
 113 924 276 1118 567 1118 c 0
 831 1118 993 953 993 629 c 2
 993 535 l 1
 311 535 l 1
 317 236 419 109 616 109 c 0
 757 109 860 178 909 252 c 1
 927 244 948 217 948 182 c 0
 948 100 832 -20 588 -20 c 0
786 645 m 1
 786 862 727 1008 563 1008 c 0
 411 1008 329 881 315 645 c 1
 786 645 l 1
EndSplineSet
Substitution2: "'smcp' Lowercase to Small Capitals lookup 38 subtable" egrave.sc
Substitution2: "'aalt' Access All Alternates lookup 0 subtable" egrave.sc
EndChar

StartChar: eacute
Encoding: 233 233 171
Width: 1095
GlyphClass: 2
Flags: HW
AnchorPoint: "Anchor-3" 553 549 basechar 0
AnchorPoint: "Anchor-2" 1055 1098 basechar 0
AnchorPoint: "Anchor-1" 549 0 basechar 0
AnchorPoint: "Anchor-0" 549 1569 basechar 0
LayerCount: 2
Fore
SplineSet
473 1268 m 1
 532 1346 608 1477 651 1569 c 1
 870 1569 l 1
 870 1548 l 1
 819 1476 660 1315 551 1241 c 1
 473 1241 l 1
 473 1268 l 1
588 -20 m 0
 291 -20 113 187 113 541 c 0
 113 924 276 1118 567 1118 c 0
 831 1118 993 953 993 629 c 2
 993 535 l 1
 311 535 l 1
 317 236 419 109 616 109 c 0
 757 109 860 178 909 252 c 1
 927 244 948 217 948 182 c 0
 948 100 832 -20 588 -20 c 0
786 645 m 1
 786 862 727 1008 563 1008 c 0
 411 1008 329 881 315 645 c 1
 786 645 l 1
EndSplineSet
Substitution2: "'smcp' Lowercase to Small Capitals lookup 38 subtable" eacute.sc
Substitution2: "'aalt' Access All Alternates lookup 0 subtable" eacute.sc
EndChar

StartChar: ecircumflex
Encoding: 234 234 172
Width: 1095
GlyphClass: 2
Flags: HW
AnchorPoint: "Anchor-3" 553 549 basechar 0
AnchorPoint: "Anchor-2" 1055 1098 basechar 0
AnchorPoint: "Anchor-1" 549 0 basechar 0
AnchorPoint: "Anchor-0" 549 1569 basechar 0
LayerCount: 2
Fore
SplineSet
254 1268 m 1
 317 1346 416 1477 459 1569 c 1
 653 1569 l 1
 696 1477 795 1346 858 1268 c 1
 858 1241 l 1
 778 1241 l 1
 700 1286 616 1359 555 1425 c 1
 494 1359 412 1286 334 1241 c 1
 254 1241 l 1
 254 1268 l 1
588 -20 m 0
 291 -20 113 187 113 541 c 0
 113 924 276 1118 567 1118 c 0
 831 1118 993 953 993 629 c 2
 993 535 l 1
 311 535 l 1
 317 236 419 109 616 109 c 0
 757 109 860 178 909 252 c 1
 927 244 948 217 948 182 c 0
 948 100 832 -20 588 -20 c 0
786 645 m 1
 786 862 727 1008 563 1008 c 0
 411 1008 329 881 315 645 c 1
 786 645 l 1
EndSplineSet
Substitution2: "'smcp' Lowercase to Small Capitals lookup 38 subtable" ecircumflex.sc
Substitution2: "'aalt' Access All Alternates lookup 0 subtable" ecircumflex.sc
EndChar

StartChar: edieresis
Encoding: 235 235 173
Width: 1095
GlyphClass: 2
Flags: HW
AnchorPoint: "Anchor-3" 553 549 basechar 0
AnchorPoint: "Anchor-2" 1055 1098 basechar 0
AnchorPoint: "Anchor-1" 549 0 basechar 0
AnchorPoint: "Anchor-0" 549 1524 basechar 0
LayerCount: 2
Fore
SplineSet
745 1294 m 0
 686 1294 641 1325 641 1409 c 0
 641 1495 686 1524 745 1524 c 0
 802 1524 850 1495 850 1409 c 0
 850 1325 802 1294 745 1294 c 0
356 1294 m 0
 297 1294 252 1325 252 1409 c 0
 252 1495 297 1524 356 1524 c 0
 413 1524 461 1495 461 1409 c 0
 461 1325 413 1294 356 1294 c 0
588 -20 m 0
 291 -20 113 187 113 541 c 0
 113 924 276 1118 567 1118 c 0
 831 1118 993 953 993 629 c 2
 993 535 l 1
 311 535 l 1
 317 236 419 109 616 109 c 0
 757 109 860 178 909 252 c 1
 927 244 948 217 948 182 c 0
 948 100 832 -20 588 -20 c 0
786 645 m 1
 786 862 727 1008 563 1008 c 0
 411 1008 329 881 315 645 c 1
 786 645 l 1
EndSplineSet
Substitution2: "'smcp' Lowercase to Small Capitals lookup 38 subtable" edieresis.sc
Substitution2: "'aalt' Access All Alternates lookup 0 subtable" edieresis.sc
EndChar

StartChar: igrave
Encoding: 236 236 174
Width: 655
GlyphClass: 2
Flags: HW
AnchorPoint: "Anchor-3" 338 549 basechar 0
AnchorPoint: "Anchor-1" 328 0 basechar 0
AnchorPoint: "Anchor-0" 328 1569 basechar 0
LayerCount: 2
Fore
SplineSet
356 1241 m 1
 247 1315 88 1476 37 1548 c 1
 37 1569 l 1
 256 1569 l 1
 299 1477 375 1346 434 1268 c 1
 434 1241 l 1
 356 1241 l 1
47 0 m 1
 47 86 l 1
 74 86 l 2
 164 86 242 102 242 223 c 2
 242 872 l 2
 242 993 164 1012 74 1012 c 2
 68 1012 l 1
 68 1098 l 1
 434 1098 l 1
 434 233 l 2
 434 104 510 86 602 86 c 2
 629 86 l 1
 629 0 l 1
 47 0 l 1
EndSplineSet
Substitution2: "'smcp' Lowercase to Small Capitals lookup 38 subtable" igrave.sc
Substitution2: "'aalt' Access All Alternates lookup 0 subtable" igrave.sc
EndChar

StartChar: iacute
Encoding: 237 237 175
Width: 655
GlyphClass: 2
Flags: HW
AnchorPoint: "Anchor-3" 338 549 basechar 0
AnchorPoint: "Anchor-1" 328 0 basechar 0
AnchorPoint: "Anchor-0" 328 1569 basechar 0
LayerCount: 2
Fore
SplineSet
240 1268 m 1
 299 1346 375 1477 418 1569 c 1
 637 1569 l 1
 637 1548 l 1
 586 1476 426 1315 317 1241 c 1
 240 1241 l 1
 240 1268 l 1
47 0 m 1
 47 86 l 1
 74 86 l 2
 164 86 242 102 242 223 c 2
 242 872 l 2
 242 993 164 1012 74 1012 c 2
 68 1012 l 1
 68 1098 l 1
 434 1098 l 1
 434 233 l 2
 434 104 510 86 602 86 c 2
 629 86 l 1
 629 0 l 1
 47 0 l 1
EndSplineSet
Substitution2: "'smcp' Lowercase to Small Capitals lookup 38 subtable" iacute.sc
Substitution2: "'aalt' Access All Alternates lookup 0 subtable" iacute.sc
EndChar

StartChar: icircumflex
Encoding: 238 238 176
Width: 655
GlyphClass: 2
Flags: HW
AnchorPoint: "Anchor-3" 338 549 basechar 0
AnchorPoint: "Anchor-1" 328 0 basechar 0
AnchorPoint: "Anchor-0" 328 1569 basechar 0
LayerCount: 2
Fore
SplineSet
20 1268 m 1
 83 1346 182 1477 225 1569 c 1
 420 1569 l 1
 463 1477 562 1346 625 1268 c 1
 625 1241 l 1
 545 1241 l 1
 467 1286 383 1359 322 1425 c 1
 261 1359 178 1286 100 1241 c 1
 20 1241 l 1
 20 1268 l 1
47 0 m 1
 47 86 l 1
 74 86 l 2
 164 86 242 102 242 223 c 2
 242 872 l 2
 242 993 164 1012 74 1012 c 2
 68 1012 l 1
 68 1098 l 1
 434 1098 l 1
 434 233 l 2
 434 104 510 86 602 86 c 2
 629 86 l 1
 629 0 l 1
 47 0 l 1
EndSplineSet
Substitution2: "'smcp' Lowercase to Small Capitals lookup 38 subtable" icircumflex.sc
Substitution2: "'aalt' Access All Alternates lookup 0 subtable" icircumflex.sc
EndChar

StartChar: idieresis
Encoding: 239 239 177
Width: 655
GlyphClass: 2
Flags: HW
AnchorPoint: "Anchor-3" 338 549 basechar 0
AnchorPoint: "Anchor-1" 328 0 basechar 0
AnchorPoint: "Anchor-0" 328 1524 basechar 0
LayerCount: 2
Fore
SplineSet
510 1294 m 0
 451 1294 406 1325 406 1409 c 0
 406 1495 451 1524 510 1524 c 0
 567 1524 614 1495 614 1409 c 0
 614 1325 567 1294 510 1294 c 0
121 1294 m 0
 62 1294 16 1325 16 1409 c 0
 16 1495 62 1524 121 1524 c 0
 178 1524 225 1495 225 1409 c 0
 225 1325 178 1294 121 1294 c 0
47 0 m 1
 47 86 l 1
 74 86 l 2
 164 86 242 102 242 223 c 2
 242 872 l 2
 242 993 164 1012 74 1012 c 2
 68 1012 l 1
 68 1098 l 1
 434 1098 l 1
 434 233 l 2
 434 104 510 86 602 86 c 2
 629 86 l 1
 629 0 l 1
 47 0 l 1
EndSplineSet
Substitution2: "'smcp' Lowercase to Small Capitals lookup 38 subtable" idieresis.sc
Substitution2: "'aalt' Access All Alternates lookup 0 subtable" idieresis.sc
EndChar

StartChar: eth
Encoding: 240 240 178
Width: 1181
GlyphClass: 2
Flags: HW
AnchorPoint: "Anchor-3" 590 770 basechar 0
AnchorPoint: "Anchor-1" 592 0 basechar 0
AnchorPoint: "Anchor-0" 592 1561 basechar 0
LayerCount: 2
Fore
SplineSet
588 -20 m 0
 293 -20 113 152 113 510 c 0
 113 864 277 1036 594 1036 c 0
 684 1036 761 1016 829 983 c 1
 800 1073 727 1180 623 1270 c 1
 367 1124 l 1
 367 1239 l 1
 539 1337 l 1
 471 1382 393 1421 307 1448 c 1
 307 1559 l 1
 432 1528 556 1479 662 1407 c 1
 926 1561 l 1
 926 1444 l 1
 745 1341 l 1
 938 1181 1069 924 1069 596 c 0
 1069 180 903 -20 588 -20 c 0
592 86 m 0
 797 86 870 231 870 510 c 0
 870 789 795 928 590 928 c 0
 385 928 311 789 311 510 c 0
 311 231 387 86 592 86 c 0
EndSplineSet
Substitution2: "'smcp' Lowercase to Small Capitals lookup 38 subtable" eth.sc
Substitution2: "'aalt' Access All Alternates lookup 0 subtable" eth.sc
EndChar

StartChar: ntilde
Encoding: 241 241 179
Width: 1320
GlyphClass: 2
Flags: HW
AnchorPoint: "Anchor-3" 659 559 basechar 0
AnchorPoint: "Anchor-2" 1198 1098 basechar 0
AnchorPoint: "Anchor-1" 662 0 basechar 0
AnchorPoint: "Anchor-0" 662 1503 basechar 0
LayerCount: 2
Fore
SplineSet
819 1241 m 0
 672 1241 586 1370 498 1370 c 0
 416 1370 405 1317 397 1262 c 1
 305 1262 l 1
 313 1387 375 1503 522 1503 c 0
 667 1503 756 1374 842 1374 c 0
 922 1374 934 1428 942 1483 c 1
 1034 1483 l 1
 1026 1358 964 1241 819 1241 c 0
57 0 m 1
 57 86 l 1
 74 86 l 2
 166 86 242 104 242 233 c 2
 242 872 l 2
 242 993 168 1012 78 1012 c 2
 68 1012 l 1
 68 1098 l 1
 399 1098 l 1
 426 932 l 1
 436 932 l 1
 520 1086 625 1118 756 1118 c 0
 971 1118 1100 998 1100 717 c 2
 1100 233 l 2
 1100 104 1161 86 1253 86 c 2
 1264 86 l 1
 1264 0 l 1
 907 0 l 1
 907 707 l 2
 907 885 848 987 682 987 c 0
 496 987 434 831 434 655 c 2
 434 223 l 2
 434 102 508 86 598 86 c 2
 608 86 l 1
 608 0 l 1
 57 0 l 1
EndSplineSet
Substitution2: "'smcp' Lowercase to Small Capitals lookup 38 subtable" ntilde.sc
Substitution2: "'aalt' Access All Alternates lookup 0 subtable" ntilde.sc
EndChar

StartChar: ograve
Encoding: 242 242 180
Width: 1181
GlyphClass: 2
Flags: HW
AnchorPoint: "Anchor-3" 592 549 basechar 0
AnchorPoint: "Anchor-2" 1141 1098 basechar 0
AnchorPoint: "Anchor-1" 592 0 basechar 0
AnchorPoint: "Anchor-0" 592 1569 basechar 0
LayerCount: 2
Fore
SplineSet
616 1241 m 1
 507 1315 348 1476 297 1548 c 1
 297 1569 l 1
 516 1569 l 1
 559 1477 635 1346 694 1268 c 1
 694 1241 l 1
 616 1241 l 1
588 -20 m 0
 293 -20 113 166 113 551 c 0
 113 934 277 1118 594 1118 c 0
 889 1118 1069 934 1069 551 c 0
 1069 166 903 -20 588 -20 c 0
592 86 m 0
 797 86 870 246 870 551 c 0
 870 856 795 1010 590 1010 c 0
 385 1010 311 856 311 551 c 0
 311 246 387 86 592 86 c 0
EndSplineSet
Substitution2: "'smcp' Lowercase to Small Capitals lookup 38 subtable" ograve.sc
Substitution2: "'aalt' Access All Alternates lookup 0 subtable" ograve.sc
EndChar

StartChar: oacute
Encoding: 243 243 181
Width: 1181
GlyphClass: 2
Flags: HW
AnchorPoint: "Anchor-3" 592 549 basechar 0
AnchorPoint: "Anchor-2" 1141 1098 basechar 0
AnchorPoint: "Anchor-1" 592 0 basechar 0
AnchorPoint: "Anchor-0" 592 1569 basechar 0
LayerCount: 2
Fore
SplineSet
512 1268 m 1
 571 1346 647 1477 690 1569 c 1
 909 1569 l 1
 909 1548 l 1
 858 1476 699 1315 590 1241 c 1
 512 1241 l 1
 512 1268 l 1
588 -20 m 0
 293 -20 113 166 113 551 c 0
 113 934 277 1118 594 1118 c 0
 889 1118 1069 934 1069 551 c 0
 1069 166 903 -20 588 -20 c 0
592 86 m 0
 797 86 870 246 870 551 c 0
 870 856 795 1010 590 1010 c 0
 385 1010 311 856 311 551 c 0
 311 246 387 86 592 86 c 0
EndSplineSet
Substitution2: "'smcp' Lowercase to Small Capitals lookup 38 subtable" oacute.sc
Substitution2: "'aalt' Access All Alternates lookup 0 subtable" oacute.sc
EndChar

StartChar: ocircumflex
Encoding: 244 244 182
Width: 1181
GlyphClass: 2
Flags: HW
AnchorPoint: "Anchor-3" 592 549 basechar 0
AnchorPoint: "Anchor-2" 1141 1098 basechar 0
AnchorPoint: "Anchor-1" 592 0 basechar 0
AnchorPoint: "Anchor-0" 592 1569 basechar 0
LayerCount: 2
Fore
SplineSet
283 1268 m 1
 346 1346 444 1477 487 1569 c 1
 682 1569 l 1
 725 1477 824 1346 887 1268 c 1
 887 1241 l 1
 807 1241 l 1
 729 1286 645 1359 584 1425 c 1
 523 1359 440 1286 362 1241 c 1
 283 1241 l 1
 283 1268 l 1
588 -20 m 0
 293 -20 113 166 113 551 c 0
 113 934 277 1118 594 1118 c 0
 889 1118 1069 934 1069 551 c 0
 1069 166 903 -20 588 -20 c 0
592 86 m 0
 797 86 870 246 870 551 c 0
 870 856 795 1010 590 1010 c 0
 385 1010 311 856 311 551 c 0
 311 246 387 86 592 86 c 0
EndSplineSet
Substitution2: "'smcp' Lowercase to Small Capitals lookup 38 subtable" ocircumflex.sc
Substitution2: "'aalt' Access All Alternates lookup 0 subtable" ocircumflex.sc
EndChar

StartChar: otilde
Encoding: 245 245 183
Width: 1181
GlyphClass: 2
Flags: HW
AnchorPoint: "Anchor-3" 592 549 basechar 0
AnchorPoint: "Anchor-2" 1141 1098 basechar 0
AnchorPoint: "Anchor-1" 592 0 basechar 0
AnchorPoint: "Anchor-0" 592 1503 basechar 0
LayerCount: 2
Fore
SplineSet
733 1241 m 0
 586 1241 500 1370 412 1370 c 0
 330 1370 319 1317 311 1262 c 1
 219 1262 l 1
 227 1387 289 1503 436 1503 c 0
 581 1503 670 1374 756 1374 c 0
 836 1374 848 1428 856 1483 c 1
 948 1483 l 1
 940 1358 878 1241 733 1241 c 0
588 -20 m 0
 293 -20 113 166 113 551 c 0
 113 934 277 1118 594 1118 c 0
 889 1118 1069 934 1069 551 c 0
 1069 166 903 -20 588 -20 c 0
592 86 m 0
 797 86 870 246 870 551 c 0
 870 856 795 1010 590 1010 c 0
 385 1010 311 856 311 551 c 0
 311 246 387 86 592 86 c 0
EndSplineSet
Substitution2: "'smcp' Lowercase to Small Capitals lookup 38 subtable" otilde.sc
Substitution2: "'aalt' Access All Alternates lookup 0 subtable" otilde.sc
EndChar

StartChar: odieresis
Encoding: 246 246 184
Width: 1181
GlyphClass: 2
Flags: HW
AnchorPoint: "Anchor-3" 592 549 basechar 0
AnchorPoint: "Anchor-2" 1141 1098 basechar 0
AnchorPoint: "Anchor-1" 592 0 basechar 0
AnchorPoint: "Anchor-0" 592 1524 basechar 0
LayerCount: 2
Fore
SplineSet
776 1294 m 0
 717 1294 672 1325 672 1409 c 0
 672 1495 717 1524 776 1524 c 0
 833 1524 881 1495 881 1409 c 0
 881 1325 833 1294 776 1294 c 0
387 1294 m 0
 328 1294 283 1325 283 1409 c 0
 283 1495 328 1524 387 1524 c 0
 444 1524 492 1495 492 1409 c 0
 492 1325 444 1294 387 1294 c 0
588 -20 m 0
 293 -20 113 166 113 551 c 0
 113 934 277 1118 594 1118 c 0
 889 1118 1069 934 1069 551 c 0
 1069 166 903 -20 588 -20 c 0
592 86 m 0
 797 86 870 246 870 551 c 0
 870 856 795 1010 590 1010 c 0
 385 1010 311 856 311 551 c 0
 311 246 387 86 592 86 c 0
EndSplineSet
Substitution2: "'smcp' Lowercase to Small Capitals lookup 38 subtable" odieresis.sc
Substitution2: "'aalt' Access All Alternates lookup 0 subtable" odieresis.sc
EndChar

StartChar: divide
Encoding: 247 247 185
Width: 1144
GlyphClass: 1
Flags: HW
LayerCount: 2
Fore
SplineSet
573 1008 m 0
 514 1008 469 1036 469 1120 c 0
 469 1206 514 1233 573 1233 c 0
 630 1233 678 1206 678 1120 c 0
 678 1036 630 1008 573 1008 c 0
133 672 m 1
 133 793 l 1
 1012 793 l 1
 1012 672 l 1
 133 672 l 1
573 231 m 0
 514 231 469 260 469 344 c 0
 469 430 514 457 573 457 c 0
 630 457 678 430 678 344 c 0
 678 260 630 231 573 231 c 0
EndSplineSet
EndChar

StartChar: oslash
Encoding: 248 248 186
Width: 1181
GlyphClass: 2
Flags: HW
AnchorPoint: "Anchor-3" 590 549 basechar 0
AnchorPoint: "Anchor-1" 592 0 basechar 0
AnchorPoint: "Anchor-0" 592 1098 basechar 0
LayerCount: 2
Fore
SplineSet
258 98 m 1
 164 192 113 342 113 551 c 0
 113 934 277 1118 594 1118 c 0
 692 1118 778 1096 848 1055 c 1
 926 1180 l 1
 1044 1180 l 1
 930 991 l 1
 1020 899 1069 752 1069 551 c 0
 1069 166 903 -20 588 -20 c 0
 494 -20 410 -2 342 37 c 1
 268 -82 l 1
 147 -82 l 1
 258 98 l 1
776 936 m 1
 731 985 670 1010 590 1010 c 0
 385 1010 311 856 311 551 c 0
 311 426 323 326 352 250 c 1
 776 936 l 1
592 86 m 0
 797 86 870 246 870 551 c 0
 870 668 859 764 834 836 c 1
 412 152 l 1
 455 109 514 86 592 86 c 0
EndSplineSet
Substitution2: "'smcp' Lowercase to Small Capitals lookup 38 subtable" oslash.sc
Substitution2: "'aalt' Access All Alternates lookup 0 subtable" oslash.sc
EndChar

StartChar: ugrave
Encoding: 249 249 187
Width: 1300
GlyphClass: 2
Flags: HW
AnchorPoint: "Anchor-3" 649 539 basechar 0
AnchorPoint: "Anchor-2" 1219 1098 basechar 0
AnchorPoint: "Anchor-1" 651 0 basechar 0
AnchorPoint: "Anchor-0" 651 1569 basechar 0
LayerCount: 2
Fore
SplineSet
633 1241 m 1
 524 1315 364 1476 313 1548 c 1
 313 1569 l 1
 532 1569 l 1
 575 1477 652 1346 711 1268 c 1
 711 1241 l 1
 633 1241 l 1
559 -20 m 0
 342 -20 221 100 221 381 c 2
 221 872 l 2
 221 993 143 1012 53 1012 c 2
 47 1012 l 1
 47 1098 l 1
 414 1098 l 1
 414 391 l 2
 414 213 463 111 629 111 c 0
 809 111 887 243 887 442 c 2
 887 864 l 2
 887 993 811 1012 719 1012 c 2
 713 1012 l 1
 713 1098 l 1
 1079 1098 l 1
 1079 223 l 2
 1079 102 1157 86 1247 86 c 2
 1253 86 l 1
 1253 0 l 1
 928 0 l 1
 901 166 l 1
 891 166 l 1
 807 12 692 -20 559 -20 c 0
EndSplineSet
Substitution2: "'smcp' Lowercase to Small Capitals lookup 38 subtable" ugrave.sc
Substitution2: "'aalt' Access All Alternates lookup 0 subtable" ugrave.sc
EndChar

StartChar: uacute
Encoding: 250 250 188
Width: 1300
GlyphClass: 2
Flags: HW
AnchorPoint: "Anchor-3" 649 539 basechar 0
AnchorPoint: "Anchor-2" 1219 1098 basechar 0
AnchorPoint: "Anchor-1" 651 0 basechar 0
AnchorPoint: "Anchor-0" 651 1569 basechar 0
LayerCount: 2
Fore
SplineSet
541 1268 m 1
 600 1346 676 1477 719 1569 c 1
 938 1569 l 1
 938 1548 l 1
 887 1476 727 1315 618 1241 c 1
 541 1241 l 1
 541 1268 l 1
559 -20 m 0
 342 -20 221 100 221 381 c 2
 221 872 l 2
 221 993 143 1012 53 1012 c 2
 47 1012 l 1
 47 1098 l 1
 414 1098 l 1
 414 391 l 2
 414 213 463 111 629 111 c 0
 809 111 887 243 887 442 c 2
 887 864 l 2
 887 993 811 1012 719 1012 c 2
 713 1012 l 1
 713 1098 l 1
 1079 1098 l 1
 1079 223 l 2
 1079 102 1157 86 1247 86 c 2
 1253 86 l 1
 1253 0 l 1
 928 0 l 1
 901 166 l 1
 891 166 l 1
 807 12 692 -20 559 -20 c 0
EndSplineSet
Substitution2: "'smcp' Lowercase to Small Capitals lookup 38 subtable" uacute.sc
Substitution2: "'aalt' Access All Alternates lookup 0 subtable" uacute.sc
EndChar

StartChar: ucircumflex
Encoding: 251 251 189
Width: 1300
GlyphClass: 2
Flags: HW
AnchorPoint: "Anchor-3" 649 539 basechar 0
AnchorPoint: "Anchor-2" 1219 1098 basechar 0
AnchorPoint: "Anchor-1" 651 0 basechar 0
AnchorPoint: "Anchor-0" 651 1569 basechar 0
LayerCount: 2
Fore
SplineSet
342 1268 m 1
 405 1346 504 1477 547 1569 c 1
 741 1569 l 1
 784 1477 883 1346 946 1268 c 1
 946 1241 l 1
 866 1241 l 1
 788 1286 704 1359 643 1425 c 1
 582 1359 500 1286 422 1241 c 1
 342 1241 l 1
 342 1268 l 1
559 -20 m 0
 342 -20 221 100 221 381 c 2
 221 872 l 2
 221 993 143 1012 53 1012 c 2
 47 1012 l 1
 47 1098 l 1
 414 1098 l 1
 414 391 l 2
 414 213 463 111 629 111 c 0
 809 111 887 243 887 442 c 2
 887 864 l 2
 887 993 811 1012 719 1012 c 2
 713 1012 l 1
 713 1098 l 1
 1079 1098 l 1
 1079 223 l 2
 1079 102 1157 86 1247 86 c 2
 1253 86 l 1
 1253 0 l 1
 928 0 l 1
 901 166 l 1
 891 166 l 1
 807 12 692 -20 559 -20 c 0
EndSplineSet
Substitution2: "'smcp' Lowercase to Small Capitals lookup 38 subtable" ucircumflex.sc
Substitution2: "'aalt' Access All Alternates lookup 0 subtable" ucircumflex.sc
EndChar

StartChar: udieresis
Encoding: 252 252 190
Width: 1300
GlyphClass: 2
Flags: HW
AnchorPoint: "Anchor-3" 649 539 basechar 0
AnchorPoint: "Anchor-2" 1219 1098 basechar 0
AnchorPoint: "Anchor-1" 651 0 basechar 0
AnchorPoint: "Anchor-0" 651 1524 basechar 0
LayerCount: 2
Fore
SplineSet
842 1294 m 0
 783 1294 737 1325 737 1409 c 0
 737 1495 783 1524 842 1524 c 0
 899 1524 946 1495 946 1409 c 0
 946 1325 899 1294 842 1294 c 0
453 1294 m 0
 394 1294 348 1325 348 1409 c 0
 348 1495 394 1524 453 1524 c 0
 510 1524 557 1495 557 1409 c 0
 557 1325 510 1294 453 1294 c 0
559 -20 m 0
 342 -20 221 100 221 381 c 2
 221 872 l 2
 221 993 143 1012 53 1012 c 2
 47 1012 l 1
 47 1098 l 1
 414 1098 l 1
 414 391 l 2
 414 213 463 111 629 111 c 0
 809 111 887 243 887 442 c 2
 887 864 l 2
 887 993 811 1012 719 1012 c 2
 713 1012 l 1
 713 1098 l 1
 1079 1098 l 1
 1079 223 l 2
 1079 102 1157 86 1247 86 c 2
 1253 86 l 1
 1253 0 l 1
 928 0 l 1
 901 166 l 1
 891 166 l 1
 807 12 692 -20 559 -20 c 0
EndSplineSet
Substitution2: "'smcp' Lowercase to Small Capitals lookup 38 subtable" udieresis.sc
Substitution2: "'aalt' Access All Alternates lookup 0 subtable" udieresis.sc
EndChar

StartChar: yacute
Encoding: 253 253 191
Width: 1157
GlyphClass: 2
Flags: HW
AnchorPoint: "Anchor-3" 582 303 basechar 0
AnchorPoint: "Anchor-2" 1116 1098 basechar 0
AnchorPoint: "Anchor-1" 580 -492 basechar 0
AnchorPoint: "Anchor-0" 580 1569 basechar 0
LayerCount: 2
Fore
SplineSet
504 1268 m 1
 563 1346 639 1477 682 1569 c 1
 901 1569 l 1
 901 1548 l 1
 850 1476 691 1315 582 1241 c 1
 504 1241 l 1
 504 1268 l 1
78 -395 m 1
 354 -395 471 -221 539 8 c 1
 160 903 l 2
 123 987 94 1012 14 1012 c 2
 8 1012 l 1
 8 1098 l 1
 500 1098 l 1
 500 1012 l 1
 494 1012 l 2
 412 1012 371 981 371 913 c 0
 371 890 375 869 387 838 c 2
 537 473 l 2
 576 379 623 244 635 176 c 1
 653 254 688 342 717 424 c 2
 854 823 l 2
 866 856 872 888 872 911 c 0
 872 981 827 1012 737 1012 c 2
 731 1012 l 1
 731 1098 l 1
 1157 1098 l 1
 1157 1012 l 1
 1151 1012 l 2
 1071 1012 1042 983 995 852 c 2
 684 -8 l 2
 541 -405 458 -492 96 -492 c 2
 78 -492 l 1
 78 -395 l 1
EndSplineSet
Substitution2: "'smcp' Lowercase to Small Capitals lookup 38 subtable" yacute.sc
Substitution2: "'aalt' Access All Alternates lookup 0 subtable" yacute.sc
EndChar

StartChar: thorn
Encoding: 254 254 192
Width: 1257
GlyphClass: 2
Flags: HW
AnchorPoint: "Anchor-3" 590 532 basechar 0
AnchorPoint: "Anchor-1" 629 -492 basechar 0
AnchorPoint: "Anchor-0" 629 1556 basechar 0
LayerCount: 2
Fore
SplineSet
37 -492 m 1
 37 -406 l 1
 53 -406 l 2
 145 -406 221 -387 221 -258 c 2
 221 1331 l 2
 221 1452 143 1470 53 1470 c 2
 37 1470 l 1
 37 1556 l 1
 414 1556 l 1
 414 1180 l 2
 414 1088 406 913 406 913 c 1
 414 913 l 1
 475 1038 567 1118 727 1118 c 0
 997 1118 1145 944 1145 551 c 0
 1145 156 997 -20 727 -20 c 0
 569 -20 473 54 414 160 c 1
 406 160 l 1
 406 160 414 -27 414 -72 c 2
 414 -268 l 2
 414 -389 492 -406 582 -406 c 2
 588 -406 l 1
 588 -492 l 1
 37 -492 l 1
694 111 m 0
 874 111 946 266 946 553 c 0
 946 844 874 987 692 987 c 0
 479 987 414 846 414 551 c 0
 414 266 479 111 694 111 c 0
EndSplineSet
Substitution2: "'smcp' Lowercase to Small Capitals lookup 38 subtable" thorn.sc
Substitution2: "'aalt' Access All Alternates lookup 0 subtable" thorn.sc
EndChar

StartChar: ydieresis
Encoding: 255 255 193
Width: 1157
GlyphClass: 2
Flags: HW
AnchorPoint: "Anchor-3" 582 303 basechar 0
AnchorPoint: "Anchor-2" 1116 1098 basechar 0
AnchorPoint: "Anchor-1" 580 -492 basechar 0
AnchorPoint: "Anchor-0" 580 1524 basechar 0
LayerCount: 2
Fore
SplineSet
807 1294 m 0
 748 1294 702 1325 702 1409 c 0
 702 1495 748 1524 807 1524 c 0
 864 1524 911 1495 911 1409 c 0
 911 1325 864 1294 807 1294 c 0
418 1294 m 0
 359 1294 313 1325 313 1409 c 0
 313 1495 359 1524 418 1524 c 0
 475 1524 522 1495 522 1409 c 0
 522 1325 475 1294 418 1294 c 0
78 -395 m 1
 354 -395 471 -221 539 8 c 1
 160 903 l 2
 123 987 94 1012 14 1012 c 2
 8 1012 l 1
 8 1098 l 1
 500 1098 l 1
 500 1012 l 1
 494 1012 l 2
 412 1012 371 981 371 913 c 0
 371 890 375 869 387 838 c 2
 537 473 l 2
 576 379 623 244 635 176 c 1
 653 254 688 342 717 424 c 2
 854 823 l 2
 866 856 872 888 872 911 c 0
 872 981 827 1012 737 1012 c 2
 731 1012 l 1
 731 1098 l 1
 1157 1098 l 1
 1157 1012 l 1
 1151 1012 l 2
 1071 1012 1042 983 995 852 c 2
 684 -8 l 2
 541 -405 458 -492 96 -492 c 2
 78 -492 l 1
 78 -395 l 1
EndSplineSet
Substitution2: "'smcp' Lowercase to Small Capitals lookup 38 subtable" ydieresis.sc
Substitution2: "'aalt' Access All Alternates lookup 0 subtable" ydieresis.sc
EndChar

StartChar: Amacron
Encoding: 256 256 194
Width: 1443
GlyphClass: 2
Flags: HW
AnchorPoint: "Anchor-3" 721 731 basechar 0
AnchorPoint: "Anchor-2" 1137 1462 basechar 0
AnchorPoint: "Anchor-1" 723 0 basechar 0
AnchorPoint: "Anchor-0" 723 1720 basechar 0
LayerCount: 2
Fore
SplineSet
420 1599 m 1
 420 1720 l 1
 1014 1720 l 1
 1014 1599 l 1
 420 1599 l 1
0 0 m 1
 0 86 l 1
 39 86 l 2
 119 86 146 115 195 246 c 2
 649 1462 l 1
 809 1462 l 1
 1272 195 l 2
 1303 109 1337 86 1417 86 c 2
 1444 86 l 1
 1444 0 l 1
 881 0 l 1
 881 86 l 1
 928 86 l 2
 1010 86 1051 116 1051 184 c 0
 1051 207 1044 229 1034 260 c 2
 952 489 l 1
 414 489 l 1
 336 274 l 2
 324 241 317 209 317 186 c 0
 317 116 363 86 453 86 c 2
 500 86 l 1
 500 0 l 1
 0 0 l 1
453 592 m 1
 915 592 l 1
 788 950 l 2
 745 1071 709 1176 686 1274 c 1
 666 1176 639 1096 592 969 c 2
 453 592 l 1
EndSplineSet
Substitution2: "'c2sc' Capitals to Small Capitals lookup 37 subtable" amacron.sc
Substitution2: "'aalt' Access All Alternates lookup 0 subtable" amacron.sc
EndChar

StartChar: amacron
Encoding: 257 257 195
Width: 1153
GlyphClass: 2
Flags: HW
AnchorPoint: "Anchor-3" 584 549 basechar 0
AnchorPoint: "Anchor-2" 1112 1098 basechar 0
AnchorPoint: "Anchor-1" 578 0 basechar 0
AnchorPoint: "Anchor-0" 578 1382 basechar 0
LayerCount: 2
Fore
SplineSet
258 1262 m 1
 258 1382 l 1
 852 1382 l 1
 852 1262 l 1
 258 1262 l 1
420 -20 m 0
 238 -20 102 84 102 307 c 0
 102 524 256 625 569 635 c 2
 739 641 l 1
 739 764 l 2
 739 911 717 1016 549 1016 c 0
 391 1016 362 922 362 793 c 1
 247 793 188 828 188 922 c 0
 188 1063 354 1118 557 1118 c 0
 807 1118 932 1024 932 764 c 2
 932 233 l 2
 932 118 967 86 1059 86 c 2
 1065 86 l 1
 1065 0 l 1
 788 0 l 1
 756 176 l 1
 739 176 l 1
 653 61 590 -20 420 -20 c 0
467 106 m 0
 633 106 739 217 739 391 c 2
 739 557 l 1
 608 551 l 2
 377 541 301 457 301 297 c 0
 301 170 354 106 467 106 c 0
EndSplineSet
Substitution2: "'smcp' Lowercase to Small Capitals lookup 38 subtable" amacron.sc
Substitution2: "'aalt' Access All Alternates lookup 0 subtable" amacron.sc
EndChar

StartChar: Abreve
Encoding: 258 258 196
Width: 1443
GlyphClass: 2
Flags: HW
AnchorPoint: "Anchor-3" 721 731 basechar 0
AnchorPoint: "Anchor-2" 1137 1462 basechar 0
AnchorPoint: "Anchor-1" 723 0 basechar 0
AnchorPoint: "Anchor-0" 723 1860 basechar 0
LayerCount: 2
Fore
SplineSet
717 1579 m 0
 522 1579 434 1706 430 1860 c 1
 524 1860 l 1
 547 1762 617 1720 717 1720 c 0
 817 1720 886 1762 909 1860 c 1
 1004 1860 l 1
 1000 1706 912 1579 717 1579 c 0
0 0 m 1
 0 86 l 1
 39 86 l 2
 119 86 146 115 195 246 c 2
 649 1462 l 1
 809 1462 l 1
 1272 195 l 2
 1303 109 1337 86 1417 86 c 2
 1444 86 l 1
 1444 0 l 1
 881 0 l 1
 881 86 l 1
 928 86 l 2
 1010 86 1051 116 1051 184 c 0
 1051 207 1044 229 1034 260 c 2
 952 489 l 1
 414 489 l 1
 336 274 l 2
 324 241 317 209 317 186 c 0
 317 116 363 86 453 86 c 2
 500 86 l 1
 500 0 l 1
 0 0 l 1
453 592 m 1
 915 592 l 1
 788 950 l 2
 745 1071 709 1176 686 1274 c 1
 666 1176 639 1096 592 969 c 2
 453 592 l 1
EndSplineSet
Substitution2: "'c2sc' Capitals to Small Capitals lookup 37 subtable" abreve.sc
Substitution2: "'aalt' Access All Alternates lookup 0 subtable" abreve.sc
EndChar

StartChar: abreve
Encoding: 259 259 197
Width: 1153
GlyphClass: 2
Flags: HW
AnchorPoint: "Anchor-3" 584 549 basechar 0
AnchorPoint: "Anchor-2" 1112 1098 basechar 0
AnchorPoint: "Anchor-1" 578 0 basechar 0
AnchorPoint: "Anchor-0" 578 1522 basechar 0
LayerCount: 2
Fore
SplineSet
563 1241 m 0
 368 1241 280 1368 276 1522 c 1
 371 1522 l 1
 394 1424 463 1382 563 1382 c 0
 663 1382 733 1424 756 1522 c 1
 850 1522 l 1
 846 1368 758 1241 563 1241 c 0
420 -20 m 0
 238 -20 102 84 102 307 c 0
 102 524 256 625 569 635 c 2
 739 641 l 1
 739 764 l 2
 739 911 717 1016 549 1016 c 0
 391 1016 362 922 362 793 c 1
 247 793 188 828 188 922 c 0
 188 1063 354 1118 557 1118 c 0
 807 1118 932 1024 932 764 c 2
 932 233 l 2
 932 118 967 86 1059 86 c 2
 1065 86 l 1
 1065 0 l 1
 788 0 l 1
 756 176 l 1
 739 176 l 1
 653 61 590 -20 420 -20 c 0
467 106 m 0
 633 106 739 217 739 391 c 2
 739 557 l 1
 608 551 l 2
 377 541 301 457 301 297 c 0
 301 170 354 106 467 106 c 0
EndSplineSet
Substitution2: "'smcp' Lowercase to Small Capitals lookup 38 subtable" abreve.sc
Substitution2: "'aalt' Access All Alternates lookup 0 subtable" abreve.sc
EndChar

StartChar: Aogonek
Encoding: 260 260 198
Width: 1443
GlyphClass: 2
Flags: HW
AnchorPoint: "Anchor-3" 721 731 basechar 0
AnchorPoint: "Anchor-2" 1137 1462 basechar 0
AnchorPoint: "Anchor-1" 723 -492 basechar 0
AnchorPoint: "Anchor-0" 723 1462 basechar 0
LayerCount: 2
Fore
SplineSet
0 0 m 1
 0 86 l 1
 39 86 l 2
 119 86 146 115 195 246 c 2
 649 1462 l 1
 809 1462 l 1
 1272 195 l 2
 1303 109 1337 86 1417 86 c 2
 1444 86 l 1
 1444 0 l 1
 1309 0 l 1
 1223 -27 1118 -107 1118 -236 c 0
 1118 -326 1178 -365 1260 -365 c 0
 1297 -365 1340 -358 1389 -348 c 1
 1389 -459 l 1
 1346 -479 1274 -492 1231 -492 c 0
 1057 -492 950 -422 950 -266 c 0
 950 -139 1067 -29 1192 0 c 1
 881 0 l 1
 881 86 l 1
 928 86 l 2
 1010 86 1051 116 1051 184 c 0
 1051 207 1044 229 1034 260 c 2
 952 489 l 1
 414 489 l 1
 336 274 l 2
 324 241 317 209 317 186 c 0
 317 116 363 86 453 86 c 2
 500 86 l 1
 500 0 l 1
 0 0 l 1
453 592 m 1
 915 592 l 1
 788 950 l 2
 745 1071 709 1176 686 1274 c 1
 666 1176 639 1096 592 969 c 2
 453 592 l 1
EndSplineSet
Substitution2: "'c2sc' Capitals to Small Capitals lookup 37 subtable" aogonek.sc
Substitution2: "'locl' Localized Forms in Latin lookup 6 subtable" Aogonek.loclNAV
AlternateSubs2: "'aalt' Access All Alternates lookup 1 subtable" Aogonek.loclNAV aogonek.sc
EndChar

StartChar: aogonek
Encoding: 261 261 199
Width: 1153
GlyphClass: 2
Flags: HW
AnchorPoint: "Anchor-3" 584 549 basechar 0
AnchorPoint: "Anchor-2" 1112 1098 basechar 0
AnchorPoint: "Anchor-1" 578 -492 basechar 0
AnchorPoint: "Anchor-0" 578 1098 basechar 0
LayerCount: 2
Fore
SplineSet
420 -20 m 0
 238 -20 102 84 102 307 c 0
 102 524 256 625 569 635 c 2
 739 641 l 1
 739 764 l 2
 739 911 717 1016 549 1016 c 0
 391 1016 362 922 362 793 c 1
 247 793 188 828 188 922 c 0
 188 1063 354 1118 557 1118 c 0
 807 1118 932 1024 932 764 c 2
 932 233 l 2
 932 118 967 86 1059 86 c 2
 1065 86 l 1
 1065 0 l 1
 905 0 l 1
 819 -27 715 -107 715 -236 c 0
 715 -326 774 -365 856 -365 c 0
 893 -365 936 -358 985 -348 c 1
 985 -459 l 1
 942 -479 870 -492 827 -492 c 0
 653 -492 547 -422 547 -266 c 0
 547 -139 663 -29 788 0 c 1
 756 176 l 1
 739 176 l 1
 653 61 590 -20 420 -20 c 0
467 106 m 0
 633 106 739 217 739 391 c 2
 739 557 l 1
 608 551 l 2
 377 541 301 457 301 297 c 0
 301 170 354 106 467 106 c 0
EndSplineSet
Substitution2: "'smcp' Lowercase to Small Capitals lookup 38 subtable" aogonek.sc
Substitution2: "'locl' Localized Forms in Latin lookup 6 subtable" aogonek.loclNAV
AlternateSubs2: "'aalt' Access All Alternates lookup 1 subtable" aogonek.loclNAV aogonek.sc
EndChar

StartChar: Cacute
Encoding: 262 262 200
Width: 1257
GlyphClass: 2
Flags: HW
AnchorPoint: "Anchor-3" 651 731 basechar 0
AnchorPoint: "Anchor-2" 1217 1462 basechar 0
AnchorPoint: "Anchor-1" 731 0 basechar 0
AnchorPoint: "Anchor-0" 752 1907 basechar 0
LayerCount: 2
Fore
SplineSet
657 1606 m 1
 716 1684 793 1815 836 1907 c 1
 1055 1907 l 1
 1055 1886 l 1
 1004 1814 844 1653 735 1579 c 1
 657 1579 l 1
 657 1606 l 1
739 -20 m 0
 331 -20 117 280 117 733 c 0
 117 1175 342 1483 774 1483 c 0
 1053 1483 1188 1384 1188 1253 c 0
 1188 1165 1110 1110 1010 1110 c 1
 1010 1237 948 1374 770 1374 c 0
 461 1374 344 1143 344 733 c 0
 344 366 469 115 770 115 c 0
 969 115 1071 197 1141 289 c 1
 1164 275 1180 250 1180 209 c 0
 1180 107 1042 -20 739 -20 c 0
EndSplineSet
Substitution2: "'c2sc' Capitals to Small Capitals lookup 37 subtable" cacute.sc
Substitution2: "'aalt' Access All Alternates lookup 0 subtable" cacute.sc
EndChar

StartChar: cacute
Encoding: 263 263 201
Width: 1007
GlyphClass: 2
Flags: HW
AnchorPoint: "Anchor-3" 520 549 basechar 0
AnchorPoint: "Anchor-2" 967 1098 basechar 0
AnchorPoint: "Anchor-1" 504 0 basechar 0
AnchorPoint: "Anchor-0" 504 1569 basechar 0
LayerCount: 2
Fore
SplineSet
465 1268 m 1
 524 1346 600 1477 643 1569 c 1
 862 1569 l 1
 862 1548 l 1
 811 1476 652 1315 543 1241 c 1
 465 1241 l 1
 465 1268 l 1
580 -20 m 0
 308 -20 113 142 113 543 c 0
 113 981 309 1118 569 1118 c 0
 739 1118 926 1050 926 909 c 0
 926 815 864 780 743 780 c 1
 743 909 706 1016 569 1016 c 0
 411 1016 311 912 311 545 c 0
 311 254 402 113 621 113 c 0
 748 113 846 172 893 256 c 1
 913 240 928 213 928 176 c 0
 928 82 811 -20 580 -20 c 0
EndSplineSet
Substitution2: "'smcp' Lowercase to Small Capitals lookup 38 subtable" cacute.sc
Substitution2: "'aalt' Access All Alternates lookup 0 subtable" cacute.sc
EndChar

StartChar: Ccircumflex
Encoding: 264 264 202
Width: 1257
GlyphClass: 2
Flags: HW
AnchorPoint: "Anchor-3" 651 731 basechar 0
AnchorPoint: "Anchor-2" 1217 1462 basechar 0
AnchorPoint: "Anchor-1" 731 0 basechar 0
AnchorPoint: "Anchor-0" 752 1907 basechar 0
LayerCount: 2
Fore
SplineSet
459 1606 m 1
 522 1684 621 1815 664 1907 c 1
 858 1907 l 1
 901 1815 1000 1684 1063 1606 c 1
 1063 1579 l 1
 983 1579 l 1
 905 1624 821 1697 760 1763 c 1
 699 1697 617 1624 539 1579 c 1
 459 1579 l 1
 459 1606 l 1
739 -20 m 0
 331 -20 117 280 117 733 c 0
 117 1175 342 1483 774 1483 c 0
 1053 1483 1188 1384 1188 1253 c 0
 1188 1165 1110 1110 1010 1110 c 1
 1010 1237 948 1374 770 1374 c 0
 461 1374 344 1143 344 733 c 0
 344 366 469 115 770 115 c 0
 969 115 1071 197 1141 289 c 1
 1164 275 1180 250 1180 209 c 0
 1180 107 1042 -20 739 -20 c 0
EndSplineSet
Substitution2: "'c2sc' Capitals to Small Capitals lookup 37 subtable" ccircumflex.sc
Substitution2: "'aalt' Access All Alternates lookup 0 subtable" ccircumflex.sc
EndChar

StartChar: ccircumflex
Encoding: 265 265 203
Width: 1007
GlyphClass: 2
Flags: HW
AnchorPoint: "Anchor-3" 520 549 basechar 0
AnchorPoint: "Anchor-2" 967 1098 basechar 0
AnchorPoint: "Anchor-1" 504 0 basechar 0
AnchorPoint: "Anchor-0" 504 1569 basechar 0
LayerCount: 2
Fore
SplineSet
276 1268 m 1
 339 1346 438 1477 481 1569 c 1
 676 1569 l 1
 719 1477 818 1346 881 1268 c 1
 881 1241 l 1
 801 1241 l 1
 723 1286 639 1359 578 1425 c 1
 517 1359 434 1286 356 1241 c 1
 276 1241 l 1
 276 1268 l 1
580 -20 m 0
 308 -20 113 142 113 543 c 0
 113 981 309 1118 569 1118 c 0
 739 1118 926 1050 926 909 c 0
 926 815 864 780 743 780 c 1
 743 909 706 1016 569 1016 c 0
 411 1016 311 912 311 545 c 0
 311 254 402 113 621 113 c 0
 748 113 846 172 893 256 c 1
 913 240 928 213 928 176 c 0
 928 82 811 -20 580 -20 c 0
EndSplineSet
Substitution2: "'smcp' Lowercase to Small Capitals lookup 38 subtable" ccircumflex.sc
Substitution2: "'aalt' Access All Alternates lookup 0 subtable" ccircumflex.sc
EndChar

StartChar: Cdotaccent
Encoding: 266 266 204
Width: 1257
GlyphClass: 2
Flags: HW
AnchorPoint: "Anchor-3" 651 731 basechar 0
AnchorPoint: "Anchor-2" 1217 1462 basechar 0
AnchorPoint: "Anchor-1" 731 0 basechar 0
AnchorPoint: "Anchor-0" 752 1894 basechar 0
LayerCount: 2
Fore
SplineSet
768 1640 m 0
 702 1640 651 1673 651 1767 c 0
 651 1863 702 1894 768 1894 c 0
 831 1894 885 1863 885 1767 c 0
 885 1673 831 1640 768 1640 c 0
739 -20 m 0
 331 -20 117 280 117 733 c 0
 117 1175 342 1483 774 1483 c 0
 1053 1483 1188 1384 1188 1253 c 0
 1188 1165 1110 1110 1010 1110 c 1
 1010 1237 948 1374 770 1374 c 0
 461 1374 344 1143 344 733 c 0
 344 366 469 115 770 115 c 0
 969 115 1071 197 1141 289 c 1
 1164 275 1180 250 1180 209 c 0
 1180 107 1042 -20 739 -20 c 0
EndSplineSet
EndChar

StartChar: cdotaccent
Encoding: 267 267 205
Width: 1007
GlyphClass: 2
Flags: HW
AnchorPoint: "Anchor-3" 520 549 basechar 0
AnchorPoint: "Anchor-2" 967 1098 basechar 0
AnchorPoint: "Anchor-1" 504 0 basechar 0
AnchorPoint: "Anchor-0" 504 1556 basechar 0
LayerCount: 2
Fore
SplineSet
580 1303 m 0
 514 1303 463 1336 463 1430 c 0
 463 1526 514 1556 580 1556 c 0
 643 1556 696 1526 696 1430 c 0
 696 1336 643 1303 580 1303 c 0
580 -20 m 0
 308 -20 113 142 113 543 c 0
 113 981 309 1118 569 1118 c 0
 739 1118 926 1050 926 909 c 0
 926 815 864 780 743 780 c 1
 743 909 706 1016 569 1016 c 0
 411 1016 311 912 311 545 c 0
 311 254 402 113 621 113 c 0
 748 113 846 172 893 256 c 1
 913 240 928 213 928 176 c 0
 928 82 811 -20 580 -20 c 0
EndSplineSet
Substitution2: "'smcp' Lowercase to Small Capitals lookup 38 subtable" cdotaccent.sc
Substitution2: "'aalt' Access All Alternates lookup 0 subtable" cdotaccent.sc
EndChar

StartChar: Ccaron
Encoding: 268 268 206
Width: 1257
GlyphClass: 2
Flags: HW
AnchorPoint: "Anchor-3" 651 731 basechar 0
AnchorPoint: "Anchor-2" 1217 1462 basechar 0
AnchorPoint: "Anchor-1" 731 0 basechar 0
AnchorPoint: "Anchor-0" 752 1907 basechar 0
LayerCount: 2
Fore
SplineSet
641 1579 m 1
 598 1671 499 1802 436 1880 c 1
 436 1907 l 1
 516 1907 l 1
 594 1860 676 1786 737 1720 c 1
 798 1786 883 1860 961 1907 c 1
 1040 1907 l 1
 1040 1880 l 1
 977 1802 879 1671 836 1579 c 1
 641 1579 l 1
739 -20 m 0
 331 -20 117 280 117 733 c 0
 117 1175 342 1483 774 1483 c 0
 1053 1483 1188 1384 1188 1253 c 0
 1188 1165 1110 1110 1010 1110 c 1
 1010 1237 948 1374 770 1374 c 0
 461 1374 344 1143 344 733 c 0
 344 366 469 115 770 115 c 0
 969 115 1071 197 1141 289 c 1
 1164 275 1180 250 1180 209 c 0
 1180 107 1042 -20 739 -20 c 0
EndSplineSet
Substitution2: "'c2sc' Capitals to Small Capitals lookup 37 subtable" ccaron.sc
Substitution2: "'aalt' Access All Alternates lookup 0 subtable" ccaron.sc
EndChar

StartChar: ccaron
Encoding: 269 269 207
Width: 1007
GlyphClass: 2
Flags: HW
AnchorPoint: "Anchor-3" 520 549 basechar 0
AnchorPoint: "Anchor-2" 967 1098 basechar 0
AnchorPoint: "Anchor-1" 504 0 basechar 0
AnchorPoint: "Anchor-0" 504 1569 basechar 0
LayerCount: 2
Fore
SplineSet
477 1241 m 1
 434 1333 335 1464 272 1542 c 1
 272 1569 l 1
 352 1569 l 1
 430 1522 512 1448 573 1382 c 1
 634 1448 719 1522 797 1569 c 1
 877 1569 l 1
 877 1542 l 1
 814 1464 715 1333 672 1241 c 1
 477 1241 l 1
580 -20 m 0
 308 -20 113 142 113 543 c 0
 113 981 309 1118 569 1118 c 0
 739 1118 926 1050 926 909 c 0
 926 815 864 780 743 780 c 1
 743 909 706 1016 569 1016 c 0
 411 1016 311 912 311 545 c 0
 311 254 402 113 621 113 c 0
 748 113 846 172 893 256 c 1
 913 240 928 213 928 176 c 0
 928 82 811 -20 580 -20 c 0
EndSplineSet
Substitution2: "'smcp' Lowercase to Small Capitals lookup 38 subtable" ccaron.sc
Substitution2: "'aalt' Access All Alternates lookup 0 subtable" ccaron.sc
EndChar

StartChar: Dcaron
Encoding: 270 270 208
Width: 1488
GlyphClass: 2
Flags: HW
AnchorPoint: "Anchor-3" 745 731 basechar 0
AnchorPoint: "Anchor-2" 1448 1462 basechar 0
AnchorPoint: "Anchor-1" 745 0 basechar 0
AnchorPoint: "Anchor-0" 745 1907 basechar 0
LayerCount: 2
Fore
SplineSet
582 1579 m 1
 539 1671 440 1802 377 1880 c 1
 377 1907 l 1
 457 1907 l 1
 535 1860 617 1786 678 1720 c 1
 739 1786 823 1860 901 1907 c 1
 981 1907 l 1
 981 1880 l 1
 918 1802 819 1671 776 1579 c 1
 582 1579 l 1
78 0 m 1
 78 86 l 1
 104 86 l 2
 196 86 272 104 272 233 c 2
 272 1237 l 2
 272 1358 194 1376 104 1376 c 2
 78 1376 l 1
 78 1462 l 1
 705 1462 l 2
 1127 1462 1372 1198 1372 733 c 0
 1372 284 1149 0 705 0 c 2
 78 0 l 1
657 104 m 2
 983 104 1145 327 1145 733 c 0
 1145 1139 983 1360 659 1360 c 2
 479 1360 l 1
 479 104 l 1
 657 104 l 2
EndSplineSet
Substitution2: "'c2sc' Capitals to Small Capitals lookup 37 subtable" dcaron.sc
Substitution2: "'aalt' Access All Alternates lookup 0 subtable" dcaron.sc
EndChar

StartChar: dcaron
Encoding: 271 271 209
Width: 1257
GlyphClass: 2
Flags: HW
AnchorPoint: "Anchor-3" 629 549 basechar 0
AnchorPoint: "Anchor-2" 1176 1556 basechar 0
AnchorPoint: "Anchor-1" 629 0 basechar 0
AnchorPoint: "Anchor-0" 629 1556 basechar 0
LayerCount: 2
Fore
SplineSet
1149 1255 m 1
 1172 1345 1194 1458 1210 1556 c 1
 1389 1556 l 1
 1389 1536 l 1
 1352 1450 1276 1315 1219 1229 c 1
 1149 1229 l 1
 1149 1255 l 1
530 -20 m 0
 260 -20 113 154 113 547 c 0
 113 942 260 1118 530 1118 c 0
 688 1118 785 1044 844 938 c 1
 856 938 l 1
 848 1006 844 1097 844 1163 c 2
 844 1331 l 2
 844 1452 766 1470 676 1470 c 2
 659 1470 l 1
 659 1556 l 1
 1036 1556 l 1
 1036 225 l 2
 1036 104 1114 86 1204 86 c 2
 1221 86 l 1
 1221 0 l 1
 874 0 l 1
 852 184 l 1
 844 184 l 1
 783 59 690 -20 530 -20 c 0
565 111 m 0
 778 111 844 252 844 547 c 0
 844 832 778 987 563 987 c 0
 383 987 311 832 311 545 c 0
 311 254 383 111 565 111 c 0
EndSplineSet
Substitution2: "'smcp' Lowercase to Small Capitals lookup 38 subtable" dcaron.sc
Substitution2: "'aalt' Access All Alternates lookup 0 subtable" dcaron.sc
EndChar

StartChar: Dcroat
Encoding: 272 272 210
Width: 1488
GlyphClass: 2
Flags: HW
AnchorPoint: "Anchor-3" 725 731 basechar 0
AnchorPoint: "Anchor-1" 745 0 basechar 0
AnchorPoint: "Anchor-0" 745 1462 basechar 0
LayerCount: 2
Fore
SplineSet
78 0 m 1
 78 86 l 1
 104 86 l 2
 196 86 272 104 272 233 c 2
 272 715 l 1
 78 715 l 1
 78 815 l 1
 272 815 l 1
 272 1237 l 2
 272 1358 194 1376 104 1376 c 2
 78 1376 l 1
 78 1462 l 1
 705 1462 l 2
 1127 1462 1372 1198 1372 733 c 0
 1372 284 1149 0 705 0 c 2
 78 0 l 1
657 104 m 2
 983 104 1145 327 1145 733 c 0
 1145 1139 983 1360 659 1360 c 2
 479 1360 l 1
 479 815 l 1
 827 815 l 1
 827 715 l 1
 479 715 l 1
 479 104 l 1
 657 104 l 2
EndSplineSet
Substitution2: "'c2sc' Capitals to Small Capitals lookup 37 subtable" dcroat.sc
Substitution2: "'aalt' Access All Alternates lookup 0 subtable" dcroat.sc
EndChar

StartChar: dcroat
Encoding: 273 273 211
Width: 1257
GlyphClass: 2
Flags: HW
AnchorPoint: "Anchor-3" 668 768 basechar 0
AnchorPoint: "Anchor-1" 629 0 basechar 0
AnchorPoint: "Anchor-0" 629 1556 basechar 0
LayerCount: 2
Fore
SplineSet
530 -20 m 0
 260 -20 113 147 113 526 c 0
 113 907 260 1077 530 1077 c 0
 688 1077 785 1003 844 897 c 1
 856 897 l 1
 856 897 844 1073 844 1128 c 2
 844 1214 l 1
 494 1214 l 1
 494 1311 l 1
 844 1311 l 1
 844 1331 l 2
 844 1450 766 1470 676 1470 c 2
 659 1470 l 1
 659 1556 l 1
 1036 1556 l 1
 1036 1311 l 1
 1223 1311 l 1
 1223 1214 l 1
 1036 1214 l 1
 1036 225 l 2
 1036 104 1114 86 1204 86 c 2
 1221 86 l 1
 1221 0 l 1
 874 0 l 1
 852 184 l 1
 844 184 l 1
 783 59 690 -20 530 -20 c 0
565 111 m 0
 778 111 844 245 844 526 c 0
 844 798 778 946 563 946 c 0
 383 946 311 798 311 524 c 0
 311 248 383 111 565 111 c 0
EndSplineSet
Substitution2: "'smcp' Lowercase to Small Capitals lookup 38 subtable" dcroat.sc
Substitution2: "'aalt' Access All Alternates lookup 0 subtable" dcroat.sc
EndChar

StartChar: Emacron
Encoding: 274 274 212
Width: 1275
GlyphClass: 2
Flags: HW
AnchorPoint: "Anchor-3" 633 731 basechar 0
AnchorPoint: "Anchor-2" 1235 1462 basechar 0
AnchorPoint: "Anchor-1" 639 0 basechar 0
AnchorPoint: "Anchor-0" 639 1720 basechar 0
LayerCount: 2
Fore
SplineSet
354 1599 m 1
 354 1720 l 1
 948 1720 l 1
 948 1599 l 1
 354 1599 l 1
78 0 m 1
 78 86 l 1
 104 86 l 2
 194 86 272 102 272 223 c 2
 272 1229 l 2
 272 1358 196 1376 104 1376 c 2
 78 1376 l 1
 78 1462 l 1
 1110 1462 l 1
 1120 1104 l 1
 1014 1104 l 1
 1004 1192 l 2
 994 1282 946 1360 823 1360 c 2
 479 1360 l 1
 479 815 l 1
 973 815 l 1
 973 715 l 1
 479 715 l 1
 479 102 l 1
 874 102 l 2
 1003 102 1055 180 1069 270 c 2
 1083 358 l 1
 1190 358 l 1
 1176 0 l 1
 78 0 l 1
EndSplineSet
Substitution2: "'c2sc' Capitals to Small Capitals lookup 37 subtable" emacron.sc
Substitution2: "'aalt' Access All Alternates lookup 0 subtable" emacron.sc
EndChar

StartChar: emacron
Encoding: 275 275 213
Width: 1095
GlyphClass: 2
Flags: HW
AnchorPoint: "Anchor-3" 553 549 basechar 0
AnchorPoint: "Anchor-2" 1055 1098 basechar 0
AnchorPoint: "Anchor-1" 549 0 basechar 0
AnchorPoint: "Anchor-0" 549 1382 basechar 0
LayerCount: 2
Fore
SplineSet
262 1262 m 1
 262 1382 l 1
 856 1382 l 1
 856 1262 l 1
 262 1262 l 1
588 -20 m 0
 291 -20 113 187 113 541 c 0
 113 924 276 1118 567 1118 c 0
 831 1118 993 953 993 629 c 2
 993 535 l 1
 311 535 l 1
 317 236 419 109 616 109 c 0
 757 109 860 178 909 252 c 1
 927 244 948 217 948 182 c 0
 948 100 832 -20 588 -20 c 0
786 645 m 1
 786 862 727 1008 563 1008 c 0
 411 1008 329 881 315 645 c 1
 786 645 l 1
EndSplineSet
Substitution2: "'smcp' Lowercase to Small Capitals lookup 38 subtable" emacron.sc
Substitution2: "'aalt' Access All Alternates lookup 0 subtable" emacron.sc
EndChar

StartChar: Ebreve
Encoding: 276 276 214
Width: 1275
GlyphClass: 2
Flags: HW
AnchorPoint: "Anchor-3" 633 731 basechar 0
AnchorPoint: "Anchor-2" 1235 1462 basechar 0
AnchorPoint: "Anchor-1" 639 0 basechar 0
AnchorPoint: "Anchor-0" 639 1860 basechar 0
LayerCount: 2
Fore
SplineSet
639 1579 m 0
 444 1579 356 1706 352 1860 c 1
 446 1860 l 1
 469 1762 539 1720 639 1720 c 0
 739 1720 808 1762 831 1860 c 1
 926 1860 l 1
 922 1706 834 1579 639 1579 c 0
78 0 m 1
 78 86 l 1
 104 86 l 2
 194 86 272 102 272 223 c 2
 272 1229 l 2
 272 1358 196 1376 104 1376 c 2
 78 1376 l 1
 78 1462 l 1
 1110 1462 l 1
 1120 1104 l 1
 1014 1104 l 1
 1004 1192 l 2
 994 1282 946 1360 823 1360 c 2
 479 1360 l 1
 479 815 l 1
 973 815 l 1
 973 715 l 1
 479 715 l 1
 479 102 l 1
 874 102 l 2
 1003 102 1055 180 1069 270 c 2
 1083 358 l 1
 1190 358 l 1
 1176 0 l 1
 78 0 l 1
EndSplineSet
Substitution2: "'c2sc' Capitals to Small Capitals lookup 37 subtable" ebreve.sc
Substitution2: "'aalt' Access All Alternates lookup 0 subtable" ebreve.sc
EndChar

StartChar: ebreve
Encoding: 277 277 215
Width: 1095
GlyphClass: 2
Flags: HW
AnchorPoint: "Anchor-3" 553 549 basechar 0
AnchorPoint: "Anchor-2" 1055 1098 basechar 0
AnchorPoint: "Anchor-1" 549 0 basechar 0
AnchorPoint: "Anchor-0" 549 1522 basechar 0
LayerCount: 2
Fore
SplineSet
567 1241 m 0
 372 1241 285 1368 281 1522 c 1
 375 1522 l 1
 398 1424 467 1382 567 1382 c 0
 667 1382 737 1424 760 1522 c 1
 854 1522 l 1
 850 1368 762 1241 567 1241 c 0
588 -20 m 0
 291 -20 113 187 113 541 c 0
 113 924 276 1118 567 1118 c 0
 831 1118 993 953 993 629 c 2
 993 535 l 1
 311 535 l 1
 317 236 419 109 616 109 c 0
 757 109 860 178 909 252 c 1
 927 244 948 217 948 182 c 0
 948 100 832 -20 588 -20 c 0
786 645 m 1
 786 862 727 1008 563 1008 c 0
 411 1008 329 881 315 645 c 1
 786 645 l 1
EndSplineSet
Substitution2: "'smcp' Lowercase to Small Capitals lookup 38 subtable" ebreve.sc
Substitution2: "'aalt' Access All Alternates lookup 0 subtable" ebreve.sc
EndChar

StartChar: Edotaccent
Encoding: 278 278 216
Width: 1275
GlyphClass: 2
Flags: HW
AnchorPoint: "Anchor-3" 633 731 basechar 0
AnchorPoint: "Anchor-2" 1235 1462 basechar 0
AnchorPoint: "Anchor-1" 639 0 basechar 0
AnchorPoint: "Anchor-0" 639 1866 basechar 0
LayerCount: 2
Fore
SplineSet
659 1612 m 0
 593 1612 543 1645 543 1739 c 0
 543 1835 593 1866 659 1866 c 0
 722 1866 776 1835 776 1739 c 0
 776 1645 722 1612 659 1612 c 0
78 0 m 1
 78 86 l 1
 104 86 l 2
 194 86 272 102 272 223 c 2
 272 1229 l 2
 272 1358 196 1376 104 1376 c 2
 78 1376 l 1
 78 1462 l 1
 1110 1462 l 1
 1120 1104 l 1
 1014 1104 l 1
 1004 1192 l 2
 994 1282 946 1360 823 1360 c 2
 479 1360 l 1
 479 815 l 1
 973 815 l 1
 973 715 l 1
 479 715 l 1
 479 102 l 1
 874 102 l 2
 1003 102 1055 180 1069 270 c 2
 1083 358 l 1
 1190 358 l 1
 1176 0 l 1
 78 0 l 1
EndSplineSet
Substitution2: "'c2sc' Capitals to Small Capitals lookup 37 subtable" edotaccent.sc
Substitution2: "'aalt' Access All Alternates lookup 0 subtable" edotaccent.sc
EndChar

StartChar: edotaccent
Encoding: 279 279 217
Width: 1095
GlyphClass: 2
Flags: HW
AnchorPoint: "Anchor-3" 553 549 basechar 0
AnchorPoint: "Anchor-2" 1055 1098 basechar 0
AnchorPoint: "Anchor-1" 549 0 basechar 0
AnchorPoint: "Anchor-0" 549 1556 basechar 0
LayerCount: 2
Fore
SplineSet
563 1303 m 0
 497 1303 446 1336 446 1430 c 0
 446 1526 497 1556 563 1556 c 0
 626 1556 680 1526 680 1430 c 0
 680 1336 626 1303 563 1303 c 0
588 -20 m 0
 291 -20 113 187 113 541 c 0
 113 924 276 1118 567 1118 c 0
 831 1118 993 953 993 629 c 2
 993 535 l 1
 311 535 l 1
 317 236 419 109 616 109 c 0
 757 109 860 178 909 252 c 1
 927 244 948 217 948 182 c 0
 948 100 832 -20 588 -20 c 0
786 645 m 1
 786 862 727 1008 563 1008 c 0
 411 1008 329 881 315 645 c 1
 786 645 l 1
EndSplineSet
Substitution2: "'smcp' Lowercase to Small Capitals lookup 38 subtable" edotaccent.sc
Substitution2: "'aalt' Access All Alternates lookup 0 subtable" edotaccent.sc
EndChar

StartChar: Eogonek
Encoding: 280 280 218
Width: 1275
GlyphClass: 2
Flags: HW
AnchorPoint: "Anchor-3" 633 731 basechar 0
AnchorPoint: "Anchor-2" 1235 1462 basechar 0
AnchorPoint: "Anchor-1" 639 -492 basechar 0
AnchorPoint: "Anchor-0" 639 1462 basechar 0
LayerCount: 2
Fore
SplineSet
78 0 m 1
 78 86 l 1
 104 86 l 2
 194 86 272 102 272 223 c 2
 272 1229 l 2
 272 1358 196 1376 104 1376 c 2
 78 1376 l 1
 78 1462 l 1
 1110 1462 l 1
 1120 1104 l 1
 1014 1104 l 1
 1004 1192 l 2
 994 1282 946 1360 823 1360 c 2
 479 1360 l 1
 479 815 l 1
 973 815 l 1
 973 715 l 1
 479 715 l 1
 479 102 l 1
 874 102 l 2
 1003 102 1055 180 1069 270 c 2
 1083 358 l 1
 1190 358 l 1
 1176 0 l 1
 1067 0 l 1
 981 -27 877 -107 877 -236 c 0
 877 -326 936 -365 1018 -365 c 0
 1055 -365 1098 -358 1147 -348 c 1
 1147 -459 l 1
 1104 -479 1032 -492 989 -492 c 0
 815 -492 709 -422 709 -266 c 0
 709 -139 825 -29 950 0 c 1
 78 0 l 1
EndSplineSet
Substitution2: "'c2sc' Capitals to Small Capitals lookup 37 subtable" eogonek.sc
Substitution2: "'locl' Localized Forms in Latin lookup 6 subtable" Eogonek.loclNAV
AlternateSubs2: "'aalt' Access All Alternates lookup 1 subtable" Eogonek.loclNAV eogonek.sc
EndChar

StartChar: eogonek
Encoding: 281 281 219
Width: 1095
GlyphClass: 2
Flags: HW
AnchorPoint: "Anchor-3" 553 328 basechar 0
AnchorPoint: "Anchor-1" 549 -461 basechar 0
AnchorPoint: "Anchor-0" 549 1098 basechar 0
LayerCount: 2
Fore
SplineSet
752 -461 m 0
 578 -461 471 -392 471 -236 c 0
 471 -150 534 -69 606 -20 c 1
 588 -20 l 2
 291 -20 113 187 113 541 c 0
 113 924 276 1118 567 1118 c 0
 831 1118 993 953 993 629 c 2
 993 535 l 1
 311 535 l 1
 317 236 419 109 616 109 c 0
 757 109 860 178 909 252 c 1
 927 244 948 217 948 182 c 0
 948 100 846 28 780 10 c 1
 708 -27 639 -101 639 -205 c 0
 639 -295 698 -334 780 -334 c 0
 817 -334 860 -327 909 -317 c 1
 909 -428 l 1
 866 -448 795 -461 752 -461 c 0
786 645 m 1
 786 862 727 1008 563 1008 c 0
 411 1008 329 881 315 645 c 1
 786 645 l 1
EndSplineSet
Substitution2: "'smcp' Lowercase to Small Capitals lookup 38 subtable" eogonek.sc
Substitution2: "'locl' Localized Forms in Latin lookup 6 subtable" eogonek.loclNAV
AlternateSubs2: "'aalt' Access All Alternates lookup 1 subtable" eogonek.loclNAV eogonek.sc
EndChar

StartChar: Ecaron
Encoding: 282 282 220
Width: 1275
GlyphClass: 2
Flags: HW
AnchorPoint: "Anchor-3" 633 731 basechar 0
AnchorPoint: "Anchor-2" 1235 1462 basechar 0
AnchorPoint: "Anchor-1" 639 0 basechar 0
AnchorPoint: "Anchor-0" 639 1907 basechar 0
LayerCount: 2
Fore
SplineSet
537 1579 m 1
 494 1671 395 1802 332 1880 c 1
 332 1907 l 1
 412 1907 l 1
 490 1860 572 1786 633 1720 c 1
 694 1786 778 1860 856 1907 c 1
 936 1907 l 1
 936 1880 l 1
 873 1802 774 1671 731 1579 c 1
 537 1579 l 1
78 0 m 1
 78 86 l 1
 104 86 l 2
 194 86 272 102 272 223 c 2
 272 1229 l 2
 272 1358 196 1376 104 1376 c 2
 78 1376 l 1
 78 1462 l 1
 1110 1462 l 1
 1120 1104 l 1
 1014 1104 l 1
 1004 1192 l 2
 994 1282 946 1360 823 1360 c 2
 479 1360 l 1
 479 815 l 1
 973 815 l 1
 973 715 l 1
 479 715 l 1
 479 102 l 1
 874 102 l 2
 1003 102 1055 180 1069 270 c 2
 1083 358 l 1
 1190 358 l 1
 1176 0 l 1
 78 0 l 1
EndSplineSet
Substitution2: "'c2sc' Capitals to Small Capitals lookup 37 subtable" ecaron.sc
Substitution2: "'aalt' Access All Alternates lookup 0 subtable" ecaron.sc
EndChar

StartChar: ecaron
Encoding: 283 283 221
Width: 1095
GlyphClass: 2
Flags: HW
AnchorPoint: "Anchor-3" 553 549 basechar 0
AnchorPoint: "Anchor-2" 1055 1098 basechar 0
AnchorPoint: "Anchor-1" 549 0 basechar 0
AnchorPoint: "Anchor-0" 549 1569 basechar 0
LayerCount: 2
Fore
SplineSet
465 1241 m 1
 422 1333 323 1464 260 1542 c 1
 260 1569 l 1
 340 1569 l 1
 418 1522 500 1448 561 1382 c 1
 622 1448 706 1522 784 1569 c 1
 864 1569 l 1
 864 1542 l 1
 801 1464 702 1333 659 1241 c 1
 465 1241 l 1
588 -20 m 0
 291 -20 113 187 113 541 c 0
 113 924 276 1118 567 1118 c 0
 831 1118 993 953 993 629 c 2
 993 535 l 1
 311 535 l 1
 317 236 419 109 616 109 c 0
 757 109 860 178 909 252 c 1
 927 244 948 217 948 182 c 0
 948 100 832 -20 588 -20 c 0
786 645 m 1
 786 862 727 1008 563 1008 c 0
 411 1008 329 881 315 645 c 1
 786 645 l 1
EndSplineSet
Substitution2: "'smcp' Lowercase to Small Capitals lookup 38 subtable" ecaron.sc
Substitution2: "'aalt' Access All Alternates lookup 0 subtable" ecaron.sc
EndChar

StartChar: Gcircumflex
Encoding: 284 284 222
Width: 1462
GlyphClass: 2
Flags: HW
AnchorPoint: "Anchor-3" 770 731 basechar 0
AnchorPoint: "Anchor-2" 1421 1462 basechar 0
AnchorPoint: "Anchor-1" 731 0 basechar 0
AnchorPoint: "Anchor-0" 731 1907 basechar 0
LayerCount: 2
Fore
SplineSet
504 1606 m 1
 567 1684 666 1815 709 1907 c 1
 903 1907 l 1
 946 1815 1045 1684 1108 1606 c 1
 1108 1579 l 1
 1028 1579 l 1
 950 1624 866 1697 805 1763 c 1
 744 1697 662 1624 584 1579 c 1
 504 1579 l 1
 504 1606 l 1
821 -20 m 0
 346 -20 117 280 117 733 c 0
 117 1175 363 1483 834 1483 c 0
 1137 1483 1286 1384 1286 1253 c 0
 1286 1165 1202 1110 1096 1110 c 1
 1096 1237 1026 1374 825 1374 c 0
 477 1374 344 1143 344 733 c 0
 344 323 481 96 854 96 c 0
 932 96 1010 105 1067 121 c 1
 1067 451 l 2
 1067 572 989 590 899 590 c 2
 891 590 l 1
 891 676 l 1
 1423 676 l 1
 1423 590 l 1
 1415 590 l 2
 1337 590 1274 571 1274 442 c 2
 1274 74 l 1
 1137 11 997 -20 821 -20 c 0
EndSplineSet
Substitution2: "'c2sc' Capitals to Small Capitals lookup 37 subtable" gcircumflex.sc
Substitution2: "'aalt' Access All Alternates lookup 0 subtable" gcircumflex.sc
EndChar

StartChar: gcircumflex
Encoding: 285 285 223
Width: 1101
GlyphClass: 2
Flags: HW
AnchorPoint: "Anchor-3" 561 334 basechar 0
AnchorPoint: "Anchor-2" 1061 1098 basechar 0
AnchorPoint: "Anchor-1" 551 -492 basechar 0
AnchorPoint: "Anchor-0" 551 1569 basechar 0
LayerCount: 2
Fore
SplineSet
229 1268 m 1
 292 1346 391 1477 434 1569 c 1
 629 1569 l 1
 672 1477 771 1346 834 1268 c 1
 834 1241 l 1
 754 1241 l 1
 676 1286 591 1359 530 1425 c 1
 469 1359 387 1286 309 1241 c 1
 229 1241 l 1
 229 1268 l 1
473 -492 m 0
 188 -492 47 -381 47 -193 c 0
 47 -33 168 45 303 70 c 1
 248 95 190 150 190 238 c 0
 190 320 232 375 324 430 c 1
 207 479 139 602 139 739 c 0
 139 975 266 1118 524 1118 c 0
 622 1118 719 1086 758 1051 c 1
 797 1094 866 1161 956 1161 c 0
 1038 1161 1077 1112 1077 1055 c 0
 1077 998 1045 948 969 948 c 1
 969 979 956 1018 901 1018 c 0
 866 1018 840 1009 813 993 c 1
 860 936 893 862 893 745 c 0
 893 542 772 393 524 393 c 0
 491 393 443 397 416 403 c 1
 363 376 319 335 319 274 c 0
 319 225 340 197 446 197 c 2
 678 197 l 2
 922 197 1016 67 1016 -109 c 0
 1016 -345 844 -492 473 -492 c 0
518 492 m 0
 651 492 700 570 700 748 c 0
 700 932 649 1018 516 1018 c 0
 385 1018 332 927 332 745 c 0
 332 571 387 492 518 492 c 0
477 -391 m 0
 770 -391 848 -286 848 -143 c 0
 848 -18 774 14 639 14 c 2
 438 14 l 2
 323 14 213 -18 213 -180 c 0
 213 -301 268 -391 477 -391 c 0
EndSplineSet
Substitution2: "'smcp' Lowercase to Small Capitals lookup 38 subtable" gcircumflex.sc
Substitution2: "'aalt' Access All Alternates lookup 0 subtable" gcircumflex.sc
EndChar

StartChar: Gbreve
Encoding: 286 286 224
Width: 1462
GlyphClass: 2
Flags: HW
AnchorPoint: "Anchor-3" 770 731 basechar 0
AnchorPoint: "Anchor-2" 1421 1462 basechar 0
AnchorPoint: "Anchor-1" 731 0 basechar 0
AnchorPoint: "Anchor-0" 731 1860 basechar 0
LayerCount: 2
Fore
SplineSet
807 1579 m 0
 612 1579 524 1706 520 1860 c 1
 614 1860 l 1
 637 1762 707 1720 807 1720 c 0
 907 1720 976 1762 999 1860 c 1
 1094 1860 l 1
 1090 1706 1002 1579 807 1579 c 0
821 -20 m 0
 346 -20 117 280 117 733 c 0
 117 1175 363 1483 834 1483 c 0
 1137 1483 1286 1384 1286 1253 c 0
 1286 1165 1202 1110 1096 1110 c 1
 1096 1237 1026 1374 825 1374 c 0
 477 1374 344 1143 344 733 c 0
 344 323 481 96 854 96 c 0
 932 96 1010 105 1067 121 c 1
 1067 451 l 2
 1067 572 989 590 899 590 c 2
 891 590 l 1
 891 676 l 1
 1423 676 l 1
 1423 590 l 1
 1415 590 l 2
 1337 590 1274 571 1274 442 c 2
 1274 74 l 1
 1137 11 997 -20 821 -20 c 0
EndSplineSet
Substitution2: "'c2sc' Capitals to Small Capitals lookup 37 subtable" gbreve.sc
Substitution2: "'aalt' Access All Alternates lookup 0 subtable" gbreve.sc
EndChar

StartChar: gbreve
Encoding: 287 287 225
Width: 1101
GlyphClass: 2
Flags: HW
AnchorPoint: "Anchor-3" 561 334 basechar 0
AnchorPoint: "Anchor-2" 1061 1098 basechar 0
AnchorPoint: "Anchor-1" 551 -492 basechar 0
AnchorPoint: "Anchor-0" 551 1522 basechar 0
LayerCount: 2
Fore
SplineSet
524 1241 m 0
 329 1241 242 1368 238 1522 c 1
 332 1522 l 1
 355 1424 424 1382 524 1382 c 0
 624 1382 694 1424 717 1522 c 1
 811 1522 l 1
 807 1368 719 1241 524 1241 c 0
473 -492 m 0
 188 -492 47 -381 47 -193 c 0
 47 -33 168 45 303 70 c 1
 248 95 190 150 190 238 c 0
 190 320 232 375 324 430 c 1
 207 479 139 602 139 739 c 0
 139 975 266 1118 524 1118 c 0
 622 1118 719 1086 758 1051 c 1
 797 1094 866 1161 956 1161 c 0
 1038 1161 1077 1112 1077 1055 c 0
 1077 998 1045 948 969 948 c 1
 969 979 956 1018 901 1018 c 0
 866 1018 840 1009 813 993 c 1
 860 936 893 862 893 745 c 0
 893 542 772 393 524 393 c 0
 491 393 443 397 416 403 c 1
 363 376 319 335 319 274 c 0
 319 225 340 197 446 197 c 2
 678 197 l 2
 922 197 1016 67 1016 -109 c 0
 1016 -345 844 -492 473 -492 c 0
518 492 m 0
 651 492 700 570 700 748 c 0
 700 932 649 1018 516 1018 c 0
 385 1018 332 927 332 745 c 0
 332 571 387 492 518 492 c 0
477 -391 m 0
 770 -391 848 -286 848 -143 c 0
 848 -18 774 14 639 14 c 2
 438 14 l 2
 323 14 213 -18 213 -180 c 0
 213 -301 268 -391 477 -391 c 0
EndSplineSet
Substitution2: "'smcp' Lowercase to Small Capitals lookup 38 subtable" gbreve.sc
Substitution2: "'aalt' Access All Alternates lookup 0 subtable" gbreve.sc
EndChar

StartChar: Gdotaccent
Encoding: 288 288 226
Width: 1462
GlyphClass: 2
Flags: HW
AnchorPoint: "Anchor-3" 770 731 basechar 0
AnchorPoint: "Anchor-2" 1421 1462 basechar 0
AnchorPoint: "Anchor-1" 731 0 basechar 0
AnchorPoint: "Anchor-0" 731 1894 basechar 0
LayerCount: 2
Fore
SplineSet
825 1640 m 0
 759 1640 709 1673 709 1767 c 0
 709 1863 759 1894 825 1894 c 0
 888 1894 942 1863 942 1767 c 0
 942 1673 888 1640 825 1640 c 0
821 -20 m 0
 346 -20 117 280 117 733 c 0
 117 1175 363 1483 834 1483 c 0
 1137 1483 1286 1384 1286 1253 c 0
 1286 1165 1202 1110 1096 1110 c 1
 1096 1237 1026 1374 825 1374 c 0
 477 1374 344 1143 344 733 c 0
 344 323 481 96 854 96 c 0
 932 96 1010 105 1067 121 c 1
 1067 451 l 2
 1067 572 989 590 899 590 c 2
 891 590 l 1
 891 676 l 1
 1423 676 l 1
 1423 590 l 1
 1415 590 l 2
 1337 590 1274 571 1274 442 c 2
 1274 74 l 1
 1137 11 997 -20 821 -20 c 0
EndSplineSet
EndChar

StartChar: gdotaccent
Encoding: 289 289 227
Width: 1101
GlyphClass: 2
Flags: HW
AnchorPoint: "Anchor-3" 561 334 basechar 0
AnchorPoint: "Anchor-2" 1061 1098 basechar 0
AnchorPoint: "Anchor-1" 551 -492 basechar 0
AnchorPoint: "Anchor-0" 551 1556 basechar 0
LayerCount: 2
Fore
SplineSet
524 1303 m 0
 458 1303 408 1336 408 1430 c 0
 408 1526 458 1556 524 1556 c 0
 587 1556 641 1526 641 1430 c 0
 641 1336 587 1303 524 1303 c 0
473 -492 m 0
 188 -492 47 -381 47 -193 c 0
 47 -33 168 45 303 70 c 1
 248 95 190 150 190 238 c 0
 190 320 232 375 324 430 c 1
 207 479 139 602 139 739 c 0
 139 975 266 1118 524 1118 c 0
 622 1118 719 1086 758 1051 c 1
 797 1094 866 1161 956 1161 c 0
 1038 1161 1077 1112 1077 1055 c 0
 1077 998 1045 948 969 948 c 1
 969 979 956 1018 901 1018 c 0
 866 1018 840 1009 813 993 c 1
 860 936 893 862 893 745 c 0
 893 542 772 393 524 393 c 0
 491 393 443 397 416 403 c 1
 363 376 319 335 319 274 c 0
 319 225 340 197 446 197 c 2
 678 197 l 2
 922 197 1016 67 1016 -109 c 0
 1016 -345 844 -492 473 -492 c 0
518 492 m 0
 651 492 700 570 700 748 c 0
 700 932 649 1018 516 1018 c 0
 385 1018 332 927 332 745 c 0
 332 571 387 492 518 492 c 0
477 -391 m 0
 770 -391 848 -286 848 -143 c 0
 848 -18 774 14 639 14 c 2
 438 14 l 2
 323 14 213 -18 213 -180 c 0
 213 -301 268 -391 477 -391 c 0
EndSplineSet
Substitution2: "'smcp' Lowercase to Small Capitals lookup 38 subtable" gdotaccent.sc
Substitution2: "'aalt' Access All Alternates lookup 0 subtable" gdotaccent.sc
EndChar

StartChar: uni0122
Encoding: 290 290 228
Width: 1462
GlyphClass: 2
Flags: HW
AnchorPoint: "Anchor-3" 770 731 basechar 0
AnchorPoint: "Anchor-2" 1421 1462 basechar 0
AnchorPoint: "Anchor-1" 731 -453 basechar 0
AnchorPoint: "Anchor-0" 731 1462 basechar 0
LayerCount: 2
Fore
SplineSet
821 -20 m 0
 346 -20 117 280 117 733 c 0
 117 1175 363 1483 834 1483 c 0
 1137 1483 1286 1384 1286 1253 c 0
 1286 1165 1202 1110 1096 1110 c 1
 1096 1237 1026 1374 825 1374 c 0
 477 1374 344 1143 344 733 c 0
 344 323 481 96 854 96 c 0
 932 96 1010 105 1067 121 c 1
 1067 451 l 2
 1067 572 989 590 899 590 c 2
 891 590 l 1
 891 676 l 1
 1423 676 l 1
 1423 590 l 1
 1415 590 l 2
 1337 590 1274 571 1274 442 c 2
 1274 74 l 1
 1137 11 997 -20 821 -20 c 0
657 -426 m 1
 680 -336 703 -223 719 -125 c 1
 918 -125 l 1
 918 -145 l 1
 881 -231 805 -367 748 -453 c 1
 657 -453 l 1
 657 -426 l 1
EndSplineSet
Substitution2: "'c2sc' Capitals to Small Capitals lookup 37 subtable" uni0123.sc
Substitution2: "'aalt' Access All Alternates lookup 0 subtable" uni0123.sc
EndChar

StartChar: uni0123
Encoding: 291 291 229
Width: 1101
GlyphClass: 2
Flags: HW
AnchorPoint: "Anchor-3" 561 334 basechar 0
AnchorPoint: "Anchor-2" 1061 1098 basechar 0
AnchorPoint: "Anchor-1" 551 -492 basechar 0
AnchorPoint: "Anchor-0" 551 1569 basechar 0
LayerCount: 2
Fore
SplineSet
430 1262 m 1
 467 1348 543 1483 600 1569 c 1
 690 1569 l 1
 690 1542 l 1
 667 1452 645 1339 629 1241 c 1
 430 1241 l 1
 430 1262 l 1
473 -492 m 0
 188 -492 47 -381 47 -193 c 0
 47 -33 168 45 303 70 c 1
 248 95 190 150 190 238 c 0
 190 320 232 375 324 430 c 1
 207 479 139 602 139 739 c 0
 139 975 266 1118 524 1118 c 0
 622 1118 719 1086 758 1051 c 1
 797 1094 866 1161 956 1161 c 0
 1038 1161 1077 1112 1077 1055 c 0
 1077 998 1045 948 969 948 c 1
 969 979 956 1018 901 1018 c 0
 866 1018 840 1009 813 993 c 1
 860 936 893 862 893 745 c 0
 893 542 772 393 524 393 c 0
 491 393 443 397 416 403 c 1
 363 376 319 335 319 274 c 0
 319 225 340 197 446 197 c 2
 678 197 l 2
 922 197 1016 67 1016 -109 c 0
 1016 -345 844 -492 473 -492 c 0
518 492 m 0
 651 492 700 570 700 748 c 0
 700 932 649 1018 516 1018 c 0
 385 1018 332 927 332 745 c 0
 332 571 387 492 518 492 c 0
477 -391 m 0
 770 -391 848 -286 848 -143 c 0
 848 -18 774 14 639 14 c 2
 438 14 l 2
 323 14 213 -18 213 -180 c 0
 213 -301 268 -391 477 -391 c 0
EndSplineSet
Substitution2: "'smcp' Lowercase to Small Capitals lookup 38 subtable" uni0123.sc
Substitution2: "'aalt' Access All Alternates lookup 0 subtable" uni0123.sc
EndChar

StartChar: Hcircumflex
Encoding: 292 292 230
Width: 1624
GlyphClass: 2
Flags: HW
AnchorPoint: "Anchor-3" 813 760 basechar 0
AnchorPoint: "Anchor-2" 1583 1462 basechar 0
AnchorPoint: "Anchor-1" 813 0 basechar 0
AnchorPoint: "Anchor-0" 813 1907 basechar 0
LayerCount: 2
Fore
SplineSet
510 1606 m 1
 573 1684 672 1815 715 1907 c 1
 909 1907 l 1
 952 1815 1051 1684 1114 1606 c 1
 1114 1579 l 1
 1034 1579 l 1
 956 1624 872 1697 811 1763 c 1
 750 1697 668 1624 590 1579 c 1
 510 1579 l 1
 510 1606 l 1
78 0 m 1
 78 86 l 1
 104 86 l 2
 196 86 272 104 272 233 c 2
 272 1237 l 2
 272 1358 194 1376 104 1376 c 2
 78 1376 l 1
 78 1462 l 1
 674 1462 l 1
 674 1376 l 1
 647 1376 l 2
 555 1376 479 1358 479 1229 c 2
 479 815 l 1
 1145 815 l 1
 1145 1229 l 2
 1145 1358 1069 1376 977 1376 c 2
 950 1376 l 1
 950 1462 l 1
 1546 1462 l 1
 1546 1376 l 1
 1520 1376 l 2
 1428 1376 1352 1358 1352 1229 c 2
 1352 223 l 2
 1352 102 1430 86 1520 86 c 2
 1546 86 l 1
 1546 0 l 1
 950 0 l 1
 950 86 l 1
 977 86 l 2
 1069 86 1145 104 1145 233 c 2
 1145 713 l 1
 479 713 l 1
 479 233 l 2
 479 104 555 86 647 86 c 2
 674 86 l 1
 674 0 l 1
 78 0 l 1
EndSplineSet
Substitution2: "'c2sc' Capitals to Small Capitals lookup 37 subtable" hcircumflex.sc
Substitution2: "'aalt' Access All Alternates lookup 0 subtable" hcircumflex.sc
EndChar

